<?xml version="1.0" encoding="utf-8" standalone="no"?>
<!DOCTYPE svg PUBLIC "-//W3C//DTD SVG 1.1//EN"
  "http://www.w3.org/Graphics/SVG/1.1/DTD/svg11.dtd">
<svg xmlns:xlink="http://www.w3.org/1999/xlink" width="1018.8pt" height="644.4pt" viewBox="0 0 1018.8 644.4" xmlns="http://www.w3.org/2000/svg" version="1.1">
 <metadata>
  <rdf:RDF xmlns:dc="http://purl.org/dc/elements/1.1/" xmlns:cc="http://creativecommons.org/ns#" xmlns:rdf="http://www.w3.org/1999/02/22-rdf-syntax-ns#">
   <cc:Work>
    <dc:type rdf:resource="http://purl.org/dc/dcmitype/StillImage"/>
    <dc:date>2026-03-08T20:38:32.506394</dc:date>
    <dc:format>image/svg+xml</dc:format>
    <dc:creator>
     <cc:Agent>
      <dc:title>Matplotlib v3.9.4, https://matplotlib.org/</dc:title>
     </cc:Agent>
    </dc:creator>
   </cc:Work>
  </rdf:RDF>
 </metadata>
 <defs>
  <style type="text/css">*{stroke-linejoin: round; stroke-linecap: butt}</style>
 </defs>
 <g id="figure_1">
  <g id="patch_1">
   <path d="M 0 644.4 
L 1018.8 644.4 
L 1018.8 0 
L 0 0 
z
" style="fill: #ffffff"/>
  </g>
  <g id="axes_1">
   <g id="patch_2">
    <path d="M 37.332 606.708 
L 981.468 606.708 
Q 996.534 606.708 996.534 598.392 
L 996.534 121.608 
Q 996.534 113.292 981.468 113.292 
L 37.332 113.292 
Q 22.266 113.292 22.266 121.608 
L 22.266 598.392 
Q 22.266 606.708 37.332 606.708 
z
" clip-path="url(#p7bfbf2bfe2)" style="fill: #edf6ff; stroke: #1f2937; stroke-width: 2.2; stroke-linejoin: miter"/>
   </g>
   <g id="patch_3">
    <path d="M 218.124 540.18 
L 760.5 540.18 
Q 775.566 540.18 775.566 531.864 
L 775.566 243.576 
Q 775.566 235.26 760.5 235.26 
L 218.124 235.26 
Q 203.058 235.26 203.058 243.576 
L 203.058 531.864 
Q 203.058 540.18 218.124 540.18 
z
" clip-path="url(#p7bfbf2bfe2)" style="fill: #fbf3cf; stroke: #1f2937; stroke-width: 2.2; stroke-linejoin: miter"/>
   </g>
   <g id="patch_4">
    <path d="M 218.124 514.1232 
L 680.148 514.1232 
L 680.148 494.1648 
L 218.124 494.1648 
z
" clip-path="url(#p7bfbf2bfe2)" style="fill: #cdeee0; stroke: #0f766e; stroke-width: 1.6; stroke-linejoin: miter"/>
   </g>
   <g id="patch_5">
    <path d="M 308.52 506.0844 
C 309.452295 506.0844 310.346531 505.879947 311.005763 505.51607 
C 311.664995 505.152193 312.0354 504.6586 312.0354 504.144 
C 312.0354 503.6294 311.664995 503.135807 311.005763 502.77193 
C 310.346531 502.408053 309.452295 502.2036 308.52 502.2036 
C 307.587705 502.2036 306.693469 502.408053 306.034237 502.77193 
C 305.375005 503.135807 305.0046 503.6294 305.0046 504.144 
C 305.0046 504.6586 305.375005 505.152193 306.034237 505.51607 
C 306.693469 505.879947 307.587705 506.0844 308.52 506.0844 
z
" clip-path="url(#p7bfbf2bfe2)" style="fill: #059669; stroke: #047857; stroke-linejoin: miter"/>
   </g>
   <g id="patch_6">
    <path d="M 388.872 506.0844 
C 389.804295 506.0844 390.698531 505.879947 391.357763 505.51607 
C 392.016995 505.152193 392.3874 504.6586 392.3874 504.144 
C 392.3874 503.6294 392.016995 503.135807 391.357763 502.77193 
C 390.698531 502.408053 389.804295 502.2036 388.872 502.2036 
C 387.939705 502.2036 387.045469 502.408053 386.386237 502.77193 
C 385.727005 503.135807 385.3566 503.6294 385.3566 504.144 
C 385.3566 504.6586 385.727005 505.152193 386.386237 505.51607 
C 387.045469 505.879947 387.939705 506.0844 388.872 506.0844 
z
" clip-path="url(#p7bfbf2bfe2)" style="fill: #059669; stroke: #047857; stroke-linejoin: miter"/>
   </g>
   <g id="patch_7">
    <path d="M 469.224 506.0844 
C 470.156295 506.0844 471.050531 505.879947 471.709763 505.51607 
C 472.368995 505.152193 472.7394 504.6586 472.7394 504.144 
C 472.7394 503.6294 472.368995 503.135807 471.709763 502.77193 
C 471.050531 502.408053 470.156295 502.2036 469.224 502.2036 
C 468.291705 502.2036 467.397469 502.408053 466.738237 502.77193 
C 466.079005 503.135807 465.7086 503.6294 465.7086 504.144 
C 465.7086 504.6586 466.079005 505.152193 466.738237 505.51607 
C 467.397469 505.879947 468.291705 506.0844 469.224 506.0844 
z
" clip-path="url(#p7bfbf2bfe2)" style="fill: #059669; stroke: #047857; stroke-linejoin: miter"/>
   </g>
   <g id="patch_8">
    <path d="M 549.576 506.0844 
C 550.508295 506.0844 551.402531 505.879947 552.061763 505.51607 
C 552.720995 505.152193 553.0914 504.6586 553.0914 504.144 
C 553.0914 503.6294 552.720995 503.135807 552.061763 502.77193 
C 551.402531 502.408053 550.508295 502.2036 549.576 502.2036 
C 548.643705 502.2036 547.749469 502.408053 547.090237 502.77193 
C 546.431005 503.135807 546.0606 503.6294 546.0606 504.144 
C 546.0606 504.6586 546.431005 505.152193 547.090237 505.51607 
C 547.749469 505.879947 548.643705 506.0844 549.576 506.0844 
z
" clip-path="url(#p7bfbf2bfe2)" style="fill: #059669; stroke: #047857; stroke-linejoin: miter"/>
   </g>
   <g id="patch_9">
    <path d="M 629.928 506.0844 
C 630.860295 506.0844 631.754531 505.879947 632.413763 505.51607 
C 633.072995 505.152193 633.4434 504.6586 633.4434 504.144 
C 633.4434 503.6294 633.072995 503.135807 632.413763 502.77193 
C 631.754531 502.408053 630.860295 502.2036 629.928 502.2036 
C 628.995705 502.2036 628.101469 502.408053 627.442237 502.77193 
C 626.783005 503.135807 626.4126 503.6294 626.4126 504.144 
C 626.4126 504.6586 626.783005 505.152193 627.442237 505.51607 
C 628.101469 505.879947 628.995705 506.0844 629.928 506.0844 
z
" clip-path="url(#p7bfbf2bfe2)" style="fill: #059669; stroke: #047857; stroke-linejoin: miter"/>
   </g>
   <g id="patch_10">
    <path d="M 218.124 469.7712 
L 680.148 469.7712 
L 680.148 449.8128 
L 218.124 449.8128 
z
" clip-path="url(#p7bfbf2bfe2)" style="fill: #cdeee0; stroke: #0f766e; stroke-width: 1.6; stroke-linejoin: miter"/>
   </g>
   <g id="patch_11">
    <path d="M 308.52 461.7324 
C 309.452295 461.7324 310.346531 461.527947 311.005763 461.16407 
C 311.664995 460.800193 312.0354 460.3066 312.0354 459.792 
C 312.0354 459.2774 311.664995 458.783807 311.005763 458.41993 
C 310.346531 458.056053 309.452295 457.8516 308.52 457.8516 
C 307.587705 457.8516 306.693469 458.056053 306.034237 458.41993 
C 305.375005 458.783807 305.0046 459.2774 305.0046 459.792 
C 305.0046 460.3066 305.375005 460.800193 306.034237 461.16407 
C 306.693469 461.527947 307.587705 461.7324 308.52 461.7324 
z
" clip-path="url(#p7bfbf2bfe2)" style="fill: #059669; stroke: #047857; stroke-linejoin: miter"/>
   </g>
   <g id="patch_12">
    <path d="M 388.872 461.7324 
C 389.804295 461.7324 390.698531 461.527947 391.357763 461.16407 
C 392.016995 460.800193 392.3874 460.3066 392.3874 459.792 
C 392.3874 459.2774 392.016995 458.783807 391.357763 458.41993 
C 390.698531 458.056053 389.804295 457.8516 388.872 457.8516 
C 387.939705 457.8516 387.045469 458.056053 386.386237 458.41993 
C 385.727005 458.783807 385.3566 459.2774 385.3566 459.792 
C 385.3566 460.3066 385.727005 460.800193 386.386237 461.16407 
C 387.045469 461.527947 387.939705 461.7324 388.872 461.7324 
z
" clip-path="url(#p7bfbf2bfe2)" style="fill: #059669; stroke: #047857; stroke-linejoin: miter"/>
   </g>
   <g id="patch_13">
    <path d="M 469.224 461.7324 
C 470.156295 461.7324 471.050531 461.527947 471.709763 461.16407 
C 472.368995 460.800193 472.7394 460.3066 472.7394 459.792 
C 472.7394 459.2774 472.368995 458.783807 471.709763 458.41993 
C 471.050531 458.056053 470.156295 457.8516 469.224 457.8516 
C 468.291705 457.8516 467.397469 458.056053 466.738237 458.41993 
C 466.079005 458.783807 465.7086 459.2774 465.7086 459.792 
C 465.7086 460.3066 466.079005 460.800193 466.738237 461.16407 
C 467.397469 461.527947 468.291705 461.7324 469.224 461.7324 
z
" clip-path="url(#p7bfbf2bfe2)" style="fill: #059669; stroke: #047857; stroke-linejoin: miter"/>
   </g>
   <g id="patch_14">
    <path d="M 549.576 461.7324 
C 550.508295 461.7324 551.402531 461.527947 552.061763 461.16407 
C 552.720995 460.800193 553.0914 460.3066 553.0914 459.792 
C 553.0914 459.2774 552.720995 458.783807 552.061763 458.41993 
C 551.402531 458.056053 550.508295 457.8516 549.576 457.8516 
C 548.643705 457.8516 547.749469 458.056053 547.090237 458.41993 
C 546.431005 458.783807 546.0606 459.2774 546.0606 459.792 
C 546.0606 460.3066 546.431005 460.800193 547.090237 461.16407 
C 547.749469 461.527947 548.643705 461.7324 549.576 461.7324 
z
" clip-path="url(#p7bfbf2bfe2)" style="fill: #059669; stroke: #047857; stroke-linejoin: miter"/>
   </g>
   <g id="patch_15">
    <path d="M 629.928 461.7324 
C 630.860295 461.7324 631.754531 461.527947 632.413763 461.16407 
C 633.072995 460.800193 633.4434 460.3066 633.4434 459.792 
C 633.4434 459.2774 633.072995 458.783807 632.413763 458.41993 
C 631.754531 458.056053 630.860295 457.8516 629.928 457.8516 
C 628.995705 457.8516 628.101469 458.056053 627.442237 458.41993 
C 626.783005 458.783807 626.4126 459.2774 626.4126 459.792 
C 626.4126 460.3066 626.783005 460.800193 627.442237 461.16407 
C 628.101469 461.527947 628.995705 461.7324 629.928 461.7324 
z
" clip-path="url(#p7bfbf2bfe2)" style="fill: #059669; stroke: #047857; stroke-linejoin: miter"/>
   </g>
   <g id="patch_16">
    <path d="M 218.124 425.4192 
L 680.148 425.4192 
L 680.148 405.4608 
L 218.124 405.4608 
z
" clip-path="url(#p7bfbf2bfe2)" style="fill: #cdeee0; stroke: #0f766e; stroke-width: 1.6; stroke-linejoin: miter"/>
   </g>
   <g id="patch_17">
    <path d="M 308.52 417.3804 
C 309.452295 417.3804 310.346531 417.175947 311.005763 416.81207 
C 311.664995 416.448193 312.0354 415.9546 312.0354 415.44 
C 312.0354 414.9254 311.664995 414.431807 311.005763 414.06793 
C 310.346531 413.704053 309.452295 413.4996 308.52 413.4996 
C 307.587705 413.4996 306.693469 413.704053 306.034237 414.06793 
C 305.375005 414.431807 305.0046 414.9254 305.0046 415.44 
C 305.0046 415.9546 305.375005 416.448193 306.034237 416.81207 
C 306.693469 417.175947 307.587705 417.3804 308.52 417.3804 
z
" clip-path="url(#p7bfbf2bfe2)" style="fill: #059669; stroke: #047857; stroke-linejoin: miter"/>
   </g>
   <g id="patch_18">
    <path d="M 388.872 417.3804 
C 389.804295 417.3804 390.698531 417.175947 391.357763 416.81207 
C 392.016995 416.448193 392.3874 415.9546 392.3874 415.44 
C 392.3874 414.9254 392.016995 414.431807 391.357763 414.06793 
C 390.698531 413.704053 389.804295 413.4996 388.872 413.4996 
C 387.939705 413.4996 387.045469 413.704053 386.386237 414.06793 
C 385.727005 414.431807 385.3566 414.9254 385.3566 415.44 
C 385.3566 415.9546 385.727005 416.448193 386.386237 416.81207 
C 387.045469 417.175947 387.939705 417.3804 388.872 417.3804 
z
" clip-path="url(#p7bfbf2bfe2)" style="fill: #059669; stroke: #047857; stroke-linejoin: miter"/>
   </g>
   <g id="patch_19">
    <path d="M 469.224 417.3804 
C 470.156295 417.3804 471.050531 417.175947 471.709763 416.81207 
C 472.368995 416.448193 472.7394 415.9546 472.7394 415.44 
C 472.7394 414.9254 472.368995 414.431807 471.709763 414.06793 
C 471.050531 413.704053 470.156295 413.4996 469.224 413.4996 
C 468.291705 413.4996 467.397469 413.704053 466.738237 414.06793 
C 466.079005 414.431807 465.7086 414.9254 465.7086 415.44 
C 465.7086 415.9546 466.079005 416.448193 466.738237 416.81207 
C 467.397469 417.175947 468.291705 417.3804 469.224 417.3804 
z
" clip-path="url(#p7bfbf2bfe2)" style="fill: #059669; stroke: #047857; stroke-linejoin: miter"/>
   </g>
   <g id="patch_20">
    <path d="M 549.576 417.3804 
C 550.508295 417.3804 551.402531 417.175947 552.061763 416.81207 
C 552.720995 416.448193 553.0914 415.9546 553.0914 415.44 
C 553.0914 414.9254 552.720995 414.431807 552.061763 414.06793 
C 551.402531 413.704053 550.508295 413.4996 549.576 413.4996 
C 548.643705 413.4996 547.749469 413.704053 547.090237 414.06793 
C 546.431005 414.431807 546.0606 414.9254 546.0606 415.44 
C 546.0606 415.9546 546.431005 416.448193 547.090237 416.81207 
C 547.749469 417.175947 548.643705 417.3804 549.576 417.3804 
z
" clip-path="url(#p7bfbf2bfe2)" style="fill: #059669; stroke: #047857; stroke-linejoin: miter"/>
   </g>
   <g id="patch_21">
    <path d="M 629.928 417.3804 
C 630.860295 417.3804 631.754531 417.175947 632.413763 416.81207 
C 633.072995 416.448193 633.4434 415.9546 633.4434 415.44 
C 633.4434 414.9254 633.072995 414.431807 632.413763 414.06793 
C 631.754531 413.704053 630.860295 413.4996 629.928 413.4996 
C 628.995705 413.4996 628.101469 413.704053 627.442237 414.06793 
C 626.783005 414.431807 626.4126 414.9254 626.4126 415.44 
C 626.4126 415.9546 626.783005 416.448193 627.442237 416.81207 
C 628.101469 417.175947 628.995705 417.3804 629.928 417.3804 
z
" clip-path="url(#p7bfbf2bfe2)" style="fill: #059669; stroke: #047857; stroke-linejoin: miter"/>
   </g>
   <g id="patch_22">
    <path d="M 218.124 381.0672 
L 680.148 381.0672 
L 680.148 361.1088 
L 218.124 361.1088 
z
" clip-path="url(#p7bfbf2bfe2)" style="fill: #cdeee0; stroke: #0f766e; stroke-width: 1.6; stroke-linejoin: miter"/>
   </g>
   <g id="patch_23">
    <path d="M 308.52 373.0284 
C 309.452295 373.0284 310.346531 372.823947 311.005763 372.46007 
C 311.664995 372.096193 312.0354 371.6026 312.0354 371.088 
C 312.0354 370.5734 311.664995 370.079807 311.005763 369.71593 
C 310.346531 369.352053 309.452295 369.1476 308.52 369.1476 
C 307.587705 369.1476 306.693469 369.352053 306.034237 369.71593 
C 305.375005 370.079807 305.0046 370.5734 305.0046 371.088 
C 305.0046 371.6026 305.375005 372.096193 306.034237 372.46007 
C 306.693469 372.823947 307.587705 373.0284 308.52 373.0284 
z
" clip-path="url(#p7bfbf2bfe2)" style="fill: #059669; stroke: #047857; stroke-linejoin: miter"/>
   </g>
   <g id="patch_24">
    <path d="M 388.872 373.0284 
C 389.804295 373.0284 390.698531 372.823947 391.357763 372.46007 
C 392.016995 372.096193 392.3874 371.6026 392.3874 371.088 
C 392.3874 370.5734 392.016995 370.079807 391.357763 369.71593 
C 390.698531 369.352053 389.804295 369.1476 388.872 369.1476 
C 387.939705 369.1476 387.045469 369.352053 386.386237 369.71593 
C 385.727005 370.079807 385.3566 370.5734 385.3566 371.088 
C 385.3566 371.6026 385.727005 372.096193 386.386237 372.46007 
C 387.045469 372.823947 387.939705 373.0284 388.872 373.0284 
z
" clip-path="url(#p7bfbf2bfe2)" style="fill: #059669; stroke: #047857; stroke-linejoin: miter"/>
   </g>
   <g id="patch_25">
    <path d="M 469.224 373.0284 
C 470.156295 373.0284 471.050531 372.823947 471.709763 372.46007 
C 472.368995 372.096193 472.7394 371.6026 472.7394 371.088 
C 472.7394 370.5734 472.368995 370.079807 471.709763 369.71593 
C 471.050531 369.352053 470.156295 369.1476 469.224 369.1476 
C 468.291705 369.1476 467.397469 369.352053 466.738237 369.71593 
C 466.079005 370.079807 465.7086 370.5734 465.7086 371.088 
C 465.7086 371.6026 466.079005 372.096193 466.738237 372.46007 
C 467.397469 372.823947 468.291705 373.0284 469.224 373.0284 
z
" clip-path="url(#p7bfbf2bfe2)" style="fill: #059669; stroke: #047857; stroke-linejoin: miter"/>
   </g>
   <g id="patch_26">
    <path d="M 549.576 373.0284 
C 550.508295 373.0284 551.402531 372.823947 552.061763 372.46007 
C 552.720995 372.096193 553.0914 371.6026 553.0914 371.088 
C 553.0914 370.5734 552.720995 370.079807 552.061763 369.71593 
C 551.402531 369.352053 550.508295 369.1476 549.576 369.1476 
C 548.643705 369.1476 547.749469 369.352053 547.090237 369.71593 
C 546.431005 370.079807 546.0606 370.5734 546.0606 371.088 
C 546.0606 371.6026 546.431005 372.096193 547.090237 372.46007 
C 547.749469 372.823947 548.643705 373.0284 549.576 373.0284 
z
" clip-path="url(#p7bfbf2bfe2)" style="fill: #059669; stroke: #047857; stroke-linejoin: miter"/>
   </g>
   <g id="patch_27">
    <path d="M 629.928 373.0284 
C 630.860295 373.0284 631.754531 372.823947 632.413763 372.46007 
C 633.072995 372.096193 633.4434 371.6026 633.4434 371.088 
C 633.4434 370.5734 633.072995 370.079807 632.413763 369.71593 
C 631.754531 369.352053 630.860295 369.1476 629.928 369.1476 
C 628.995705 369.1476 628.101469 369.352053 627.442237 369.71593 
C 626.783005 370.079807 626.4126 370.5734 626.4126 371.088 
C 626.4126 371.6026 626.783005 372.096193 627.442237 372.46007 
C 628.101469 372.823947 628.995705 373.0284 629.928 373.0284 
z
" clip-path="url(#p7bfbf2bfe2)" style="fill: #059669; stroke: #047857; stroke-linejoin: miter"/>
   </g>
   <g id="patch_28">
    <path d="M 57.42 240.804 
L 177.948 240.804 
Q 193.014 240.804 193.014 232.488 
L 193.014 188.136 
Q 193.014 179.82 177.948 179.82 
L 57.42 179.82 
Q 42.354 179.82 42.354 188.136 
L 42.354 232.488 
Q 42.354 240.804 57.42 240.804 
z
" clip-path="url(#p7bfbf2bfe2)" style="fill: #e9ddff; stroke: #1f2937; stroke-width: 2.2; stroke-linejoin: miter"/>
   </g>
   <g id="patch_29">
    <path d="M 57.42 529.092 
L 157.86 529.092 
Q 172.926 529.092 172.926 520.776 
L 172.926 310.104 
Q 172.926 301.788 157.86 301.788 
L 57.42 301.788 
Q 42.354 301.788 42.354 310.104 
L 42.354 520.776 
Q 42.354 529.092 57.42 529.092 
z
" clip-path="url(#p7bfbf2bfe2)" style="fill: #f8d1d1; stroke: #1f2937; stroke-width: 2.2; stroke-linejoin: miter"/>
   </g>
   <g id="patch_30">
    <path d="M 169.905566 504.144 
Q 193.015628 504.144 213.442408 504.144 
" clip-path="url(#p7bfbf2bfe2)" style="fill: none; stroke: #b91c1c; stroke-width: 2.4; stroke-linecap: round"/>
    <path d="M 206.242408 500.544 
L 213.442408 504.144 
L 206.242408 507.744 
z
" clip-path="url(#p7bfbf2bfe2)" style="fill: #b91c1c; stroke: #b91c1c; stroke-width: 2.4; stroke-linecap: round"/>
   </g>
   <g id="patch_31">
    <path d="M 117.684 240.028266 
Q 117.684 365.54023 117.684 489.039733 
" clip-path="url(#p7bfbf2bfe2)" style="fill: none; stroke: #6d28d9; stroke-width: 1.8; stroke-linecap: round"/>
    <path d="M 120.084 484.239733 
L 117.684 489.039733 
L 115.284 484.239733 
z
" clip-path="url(#p7bfbf2bfe2)" style="fill: #6d28d9; stroke: #6d28d9; stroke-width: 1.8; stroke-linecap: round"/>
   </g>
   <g id="patch_32">
    <path d="M 169.905566 459.792 
Q 193.015628 459.792 213.442408 459.792 
" clip-path="url(#p7bfbf2bfe2)" style="fill: none; stroke: #b91c1c; stroke-width: 2.4; stroke-linecap: round"/>
    <path d="M 206.242408 456.192 
L 213.442408 459.792 
L 206.242408 463.392 
z
" clip-path="url(#p7bfbf2bfe2)" style="fill: #b91c1c; stroke: #b91c1c; stroke-width: 2.4; stroke-linecap: round"/>
   </g>
   <g id="patch_33">
    <path d="M 117.684 240.034696 
Q 117.684 343.367967 117.684 444.688777 
" clip-path="url(#p7bfbf2bfe2)" style="fill: none; stroke: #6d28d9; stroke-width: 1.8; stroke-linecap: round"/>
    <path d="M 120.084 439.888777 
L 117.684 444.688777 
L 115.284 439.888777 
z
" clip-path="url(#p7bfbf2bfe2)" style="fill: #6d28d9; stroke: #6d28d9; stroke-width: 1.8; stroke-linecap: round"/>
   </g>
   <g id="patch_34">
    <path d="M 169.905566 415.44 
Q 193.015628 415.44 213.442408 415.44 
" clip-path="url(#p7bfbf2bfe2)" style="fill: none; stroke: #b91c1c; stroke-width: 2.4; stroke-linecap: round"/>
    <path d="M 206.242408 411.84 
L 213.442408 415.44 
L 206.242408 419.04 
z
" clip-path="url(#p7bfbf2bfe2)" style="fill: #b91c1c; stroke: #b91c1c; stroke-width: 2.4; stroke-linecap: round"/>
   </g>
   <g id="patch_35">
    <path d="M 117.684 240.034357 
Q 117.684 321.194024 117.684 400.34123 
" clip-path="url(#p7bfbf2bfe2)" style="fill: none; stroke: #6d28d9; stroke-width: 1.8; stroke-linecap: round"/>
    <path d="M 120.084 395.54123 
L 117.684 400.34123 
L 115.284 395.54123 
z
" clip-path="url(#p7bfbf2bfe2)" style="fill: #6d28d9; stroke: #6d28d9; stroke-width: 1.8; stroke-linecap: round"/>
   </g>
   <g id="patch_36">
    <path d="M 169.905566 371.088 
Q 193.015628 371.088 213.442408 371.088 
" clip-path="url(#p7bfbf2bfe2)" style="fill: none; stroke: #b91c1c; stroke-width: 2.4; stroke-linecap: round"/>
    <path d="M 206.242408 367.488 
L 213.442408 371.088 
L 206.242408 374.688 
z
" clip-path="url(#p7bfbf2bfe2)" style="fill: #b91c1c; stroke: #b91c1c; stroke-width: 2.4; stroke-linecap: round"/>
   </g>
   <g id="patch_37">
    <path d="M 117.684 240.030804 
Q 117.684 299.014072 117.684 355.984879 
" clip-path="url(#p7bfbf2bfe2)" style="fill: none; stroke: #6d28d9; stroke-width: 1.8; stroke-linecap: round"/>
    <path d="M 120.084 351.184879 
L 117.684 355.984879 
L 115.284 351.184879 
z
" clip-path="url(#p7bfbf2bfe2)" style="fill: #6d28d9; stroke: #6d28d9; stroke-width: 1.8; stroke-linecap: round"/>
   </g>
   <g id="patch_38">
    <path d="M 820.764 484.74 
L 941.292 484.74 
Q 956.358 484.74 956.358 476.424 
L 956.358 354.456 
Q 956.358 346.14 941.292 346.14 
L 820.764 346.14 
Q 805.698 346.14 805.698 354.456 
L 805.698 476.424 
Q 805.698 484.74 820.764 484.74 
z
" clip-path="url(#p7bfbf2bfe2)" style="fill: #dcd6f7; stroke: #1f2937; stroke-width: 2.2; stroke-linejoin: miter"/>
   </g>
   <g id="patch_39">
    <path d="M 772.540049 465.336 
Q 790.630317 465.336 806.037304 465.336 
" clip-path="url(#p7bfbf2bfe2)" style="fill: none; stroke: #4f46e5; stroke-width: 2.4; stroke-linecap: round"/>
    <path d="M 798.837304 461.736 
L 806.037304 465.336 
L 798.837304 468.936 
z
" clip-path="url(#p7bfbf2bfe2)" style="fill: #4f46e5; stroke: #4f46e5; stroke-width: 2.4; stroke-linecap: round"/>
   </g>
   <g id="patch_40">
    <path d="M 772.540049 387.72 
Q 790.630317 387.72 806.037304 387.72 
" clip-path="url(#p7bfbf2bfe2)" style="fill: none; stroke: #4f46e5; stroke-width: 2.4; stroke-linecap: round"/>
    <path d="M 798.837304 384.12 
L 806.037304 387.72 
L 798.837304 391.32 
z
" clip-path="url(#p7bfbf2bfe2)" style="fill: #4f46e5; stroke: #4f46e5; stroke-width: 2.4; stroke-linecap: round"/>
   </g>
   <g id="patch_41">
    <path d="M 881.028 346.913196 
Q 881.028 287.929928 881.028 231.629941 
" clip-path="url(#p7bfbf2bfe2)" style="fill: none; stroke: #4f46e5; stroke-width: 2.4; stroke-linecap: round"/>
    <path d="M 877.428 238.829941 
L 881.028 231.629941 
L 884.628 238.829941 
z
" clip-path="url(#p7bfbf2bfe2)" style="fill: #4f46e5; stroke: #4f46e5; stroke-width: 2.4; stroke-linecap: round"/>
   </g>
   <g id="patch_42">
    <path d="M 879.026702 226.895971 
Q 534.509746 218.627994 192.6753 210.424393 
" clip-path="url(#p7bfbf2bfe2)" style="fill: none; stroke: #4f46e5; stroke-width: 2.4; stroke-linecap: round"/>
    <path d="M 199.786857 214.196098 
L 192.6753 210.424393 
L 199.959598 206.998171 
z
" clip-path="url(#p7bfbf2bfe2)" style="fill: #4f46e5; stroke: #4f46e5; stroke-width: 2.4; stroke-linecap: round"/>
   </g>
   <g id="text_1">
    <!-- External boundary used in the heat-loss model: stagnant greenhouse air, design temperature = -15 C -->
    <g style="fill: #1d4ed8" transform="translate(87.552 152.915188) scale(0.13 -0.13)">
     <defs>
      <path id="DejaVuSans-45" d="M 628 4666 
L 3578 4666 
L 3578 4134 
L 1259 4134 
L 1259 2753 
L 3481 2753 
L 3481 2222 
L 1259 2222 
L 1259 531 
L 3634 531 
L 3634 0 
L 628 0 
L 628 4666 
z
" transform="scale(0.015625)"/>
      <path id="DejaVuSans-78" d="M 3513 3500 
L 2247 1797 
L 3578 0 
L 2900 0 
L 1881 1375 
L 863 0 
L 184 0 
L 1544 1831 
L 300 3500 
L 978 3500 
L 1906 2253 
L 2834 3500 
L 3513 3500 
z
" transform="scale(0.015625)"/>
      <path id="DejaVuSans-74" d="M 1172 4494 
L 1172 3500 
L 2356 3500 
L 2356 3053 
L 1172 3053 
L 1172 1153 
Q 1172 725 1289 603 
Q 1406 481 1766 481 
L 2356 481 
L 2356 0 
L 1766 0 
Q 1100 0 847 248 
Q 594 497 594 1153 
L 594 3053 
L 172 3053 
L 172 3500 
L 594 3500 
L 594 4494 
L 1172 4494 
z
" transform="scale(0.015625)"/>
      <path id="DejaVuSans-65" d="M 3597 1894 
L 3597 1613 
L 953 1613 
Q 991 1019 1311 708 
Q 1631 397 2203 397 
Q 2534 397 2845 478 
Q 3156 559 3463 722 
L 3463 178 
Q 3153 47 2828 -22 
Q 2503 -91 2169 -91 
Q 1331 -91 842 396 
Q 353 884 353 1716 
Q 353 2575 817 3079 
Q 1281 3584 2069 3584 
Q 2775 3584 3186 3129 
Q 3597 2675 3597 1894 
z
M 3022 2063 
Q 3016 2534 2758 2815 
Q 2500 3097 2075 3097 
Q 1594 3097 1305 2825 
Q 1016 2553 972 2059 
L 3022 2063 
z
" transform="scale(0.015625)"/>
      <path id="DejaVuSans-72" d="M 2631 2963 
Q 2534 3019 2420 3045 
Q 2306 3072 2169 3072 
Q 1681 3072 1420 2755 
Q 1159 2438 1159 1844 
L 1159 0 
L 581 0 
L 581 3500 
L 1159 3500 
L 1159 2956 
Q 1341 3275 1631 3429 
Q 1922 3584 2338 3584 
Q 2397 3584 2469 3576 
Q 2541 3569 2628 3553 
L 2631 2963 
z
" transform="scale(0.015625)"/>
      <path id="DejaVuSans-6e" d="M 3513 2113 
L 3513 0 
L 2938 0 
L 2938 2094 
Q 2938 2591 2744 2837 
Q 2550 3084 2163 3084 
Q 1697 3084 1428 2787 
Q 1159 2491 1159 1978 
L 1159 0 
L 581 0 
L 581 3500 
L 1159 3500 
L 1159 2956 
Q 1366 3272 1645 3428 
Q 1925 3584 2291 3584 
Q 2894 3584 3203 3211 
Q 3513 2838 3513 2113 
z
" transform="scale(0.015625)"/>
      <path id="DejaVuSans-61" d="M 2194 1759 
Q 1497 1759 1228 1600 
Q 959 1441 959 1056 
Q 959 750 1161 570 
Q 1363 391 1709 391 
Q 2188 391 2477 730 
Q 2766 1069 2766 1631 
L 2766 1759 
L 2194 1759 
z
M 3341 1997 
L 3341 0 
L 2766 0 
L 2766 531 
Q 2569 213 2275 61 
Q 1981 -91 1556 -91 
Q 1019 -91 701 211 
Q 384 513 384 1019 
Q 384 1609 779 1909 
Q 1175 2209 1959 2209 
L 2766 2209 
L 2766 2266 
Q 2766 2663 2505 2880 
Q 2244 3097 1772 3097 
Q 1472 3097 1187 3025 
Q 903 2953 641 2809 
L 641 3341 
Q 956 3463 1253 3523 
Q 1550 3584 1831 3584 
Q 2591 3584 2966 3190 
Q 3341 2797 3341 1997 
z
" transform="scale(0.015625)"/>
      <path id="DejaVuSans-6c" d="M 603 4863 
L 1178 4863 
L 1178 0 
L 603 0 
L 603 4863 
z
" transform="scale(0.015625)"/>
      <path id="DejaVuSans-20" transform="scale(0.015625)"/>
      <path id="DejaVuSans-62" d="M 3116 1747 
Q 3116 2381 2855 2742 
Q 2594 3103 2138 3103 
Q 1681 3103 1420 2742 
Q 1159 2381 1159 1747 
Q 1159 1113 1420 752 
Q 1681 391 2138 391 
Q 2594 391 2855 752 
Q 3116 1113 3116 1747 
z
M 1159 2969 
Q 1341 3281 1617 3432 
Q 1894 3584 2278 3584 
Q 2916 3584 3314 3078 
Q 3713 2572 3713 1747 
Q 3713 922 3314 415 
Q 2916 -91 2278 -91 
Q 1894 -91 1617 61 
Q 1341 213 1159 525 
L 1159 0 
L 581 0 
L 581 4863 
L 1159 4863 
L 1159 2969 
z
" transform="scale(0.015625)"/>
      <path id="DejaVuSans-6f" d="M 1959 3097 
Q 1497 3097 1228 2736 
Q 959 2375 959 1747 
Q 959 1119 1226 758 
Q 1494 397 1959 397 
Q 2419 397 2687 759 
Q 2956 1122 2956 1747 
Q 2956 2369 2687 2733 
Q 2419 3097 1959 3097 
z
M 1959 3584 
Q 2709 3584 3137 3096 
Q 3566 2609 3566 1747 
Q 3566 888 3137 398 
Q 2709 -91 1959 -91 
Q 1206 -91 779 398 
Q 353 888 353 1747 
Q 353 2609 779 3096 
Q 1206 3584 1959 3584 
z
" transform="scale(0.015625)"/>
      <path id="DejaVuSans-75" d="M 544 1381 
L 544 3500 
L 1119 3500 
L 1119 1403 
Q 1119 906 1312 657 
Q 1506 409 1894 409 
Q 2359 409 2629 706 
Q 2900 1003 2900 1516 
L 2900 3500 
L 3475 3500 
L 3475 0 
L 2900 0 
L 2900 538 
Q 2691 219 2414 64 
Q 2138 -91 1772 -91 
Q 1169 -91 856 284 
Q 544 659 544 1381 
z
M 1991 3584 
L 1991 3584 
z
" transform="scale(0.015625)"/>
      <path id="DejaVuSans-64" d="M 2906 2969 
L 2906 4863 
L 3481 4863 
L 3481 0 
L 2906 0 
L 2906 525 
Q 2725 213 2448 61 
Q 2172 -91 1784 -91 
Q 1150 -91 751 415 
Q 353 922 353 1747 
Q 353 2572 751 3078 
Q 1150 3584 1784 3584 
Q 2172 3584 2448 3432 
Q 2725 3281 2906 2969 
z
M 947 1747 
Q 947 1113 1208 752 
Q 1469 391 1925 391 
Q 2381 391 2643 752 
Q 2906 1113 2906 1747 
Q 2906 2381 2643 2742 
Q 2381 3103 1925 3103 
Q 1469 3103 1208 2742 
Q 947 2381 947 1747 
z
" transform="scale(0.015625)"/>
      <path id="DejaVuSans-79" d="M 2059 -325 
Q 1816 -950 1584 -1140 
Q 1353 -1331 966 -1331 
L 506 -1331 
L 506 -850 
L 844 -850 
Q 1081 -850 1212 -737 
Q 1344 -625 1503 -206 
L 1606 56 
L 191 3500 
L 800 3500 
L 1894 763 
L 2988 3500 
L 3597 3500 
L 2059 -325 
z
" transform="scale(0.015625)"/>
      <path id="DejaVuSans-73" d="M 2834 3397 
L 2834 2853 
Q 2591 2978 2328 3040 
Q 2066 3103 1784 3103 
Q 1356 3103 1142 2972 
Q 928 2841 928 2578 
Q 928 2378 1081 2264 
Q 1234 2150 1697 2047 
L 1894 2003 
Q 2506 1872 2764 1633 
Q 3022 1394 3022 966 
Q 3022 478 2636 193 
Q 2250 -91 1575 -91 
Q 1294 -91 989 -36 
Q 684 19 347 128 
L 347 722 
Q 666 556 975 473 
Q 1284 391 1588 391 
Q 1994 391 2212 530 
Q 2431 669 2431 922 
Q 2431 1156 2273 1281 
Q 2116 1406 1581 1522 
L 1381 1569 
Q 847 1681 609 1914 
Q 372 2147 372 2553 
Q 372 3047 722 3315 
Q 1072 3584 1716 3584 
Q 2034 3584 2315 3537 
Q 2597 3491 2834 3397 
z
" transform="scale(0.015625)"/>
      <path id="DejaVuSans-69" d="M 603 3500 
L 1178 3500 
L 1178 0 
L 603 0 
L 603 3500 
z
M 603 4863 
L 1178 4863 
L 1178 4134 
L 603 4134 
L 603 4863 
z
" transform="scale(0.015625)"/>
      <path id="DejaVuSans-68" d="M 3513 2113 
L 3513 0 
L 2938 0 
L 2938 2094 
Q 2938 2591 2744 2837 
Q 2550 3084 2163 3084 
Q 1697 3084 1428 2787 
Q 1159 2491 1159 1978 
L 1159 0 
L 581 0 
L 581 4863 
L 1159 4863 
L 1159 2956 
Q 1366 3272 1645 3428 
Q 1925 3584 2291 3584 
Q 2894 3584 3203 3211 
Q 3513 2838 3513 2113 
z
" transform="scale(0.015625)"/>
      <path id="DejaVuSans-2d" d="M 313 2009 
L 1997 2009 
L 1997 1497 
L 313 1497 
L 313 2009 
z
" transform="scale(0.015625)"/>
      <path id="DejaVuSans-6d" d="M 3328 2828 
Q 3544 3216 3844 3400 
Q 4144 3584 4550 3584 
Q 5097 3584 5394 3201 
Q 5691 2819 5691 2113 
L 5691 0 
L 5113 0 
L 5113 2094 
Q 5113 2597 4934 2840 
Q 4756 3084 4391 3084 
Q 3944 3084 3684 2787 
Q 3425 2491 3425 1978 
L 3425 0 
L 2847 0 
L 2847 2094 
Q 2847 2600 2669 2842 
Q 2491 3084 2119 3084 
Q 1678 3084 1418 2786 
Q 1159 2488 1159 1978 
L 1159 0 
L 581 0 
L 581 3500 
L 1159 3500 
L 1159 2956 
Q 1356 3278 1631 3431 
Q 1906 3584 2284 3584 
Q 2666 3584 2933 3390 
Q 3200 3197 3328 2828 
z
" transform="scale(0.015625)"/>
      <path id="DejaVuSans-3a" d="M 750 794 
L 1409 794 
L 1409 0 
L 750 0 
L 750 794 
z
M 750 3309 
L 1409 3309 
L 1409 2516 
L 750 2516 
L 750 3309 
z
" transform="scale(0.015625)"/>
      <path id="DejaVuSans-67" d="M 2906 1791 
Q 2906 2416 2648 2759 
Q 2391 3103 1925 3103 
Q 1463 3103 1205 2759 
Q 947 2416 947 1791 
Q 947 1169 1205 825 
Q 1463 481 1925 481 
Q 2391 481 2648 825 
Q 2906 1169 2906 1791 
z
M 3481 434 
Q 3481 -459 3084 -895 
Q 2688 -1331 1869 -1331 
Q 1566 -1331 1297 -1286 
Q 1028 -1241 775 -1147 
L 775 -588 
Q 1028 -725 1275 -790 
Q 1522 -856 1778 -856 
Q 2344 -856 2625 -561 
Q 2906 -266 2906 331 
L 2906 616 
Q 2728 306 2450 153 
Q 2172 0 1784 0 
Q 1141 0 747 490 
Q 353 981 353 1791 
Q 353 2603 747 3093 
Q 1141 3584 1784 3584 
Q 2172 3584 2450 3431 
Q 2728 3278 2906 2969 
L 2906 3500 
L 3481 3500 
L 3481 434 
z
" transform="scale(0.015625)"/>
      <path id="DejaVuSans-2c" d="M 750 794 
L 1409 794 
L 1409 256 
L 897 -744 
L 494 -744 
L 750 256 
L 750 794 
z
" transform="scale(0.015625)"/>
      <path id="DejaVuSans-70" d="M 1159 525 
L 1159 -1331 
L 581 -1331 
L 581 3500 
L 1159 3500 
L 1159 2969 
Q 1341 3281 1617 3432 
Q 1894 3584 2278 3584 
Q 2916 3584 3314 3078 
Q 3713 2572 3713 1747 
Q 3713 922 3314 415 
Q 2916 -91 2278 -91 
Q 1894 -91 1617 61 
Q 1341 213 1159 525 
z
M 3116 1747 
Q 3116 2381 2855 2742 
Q 2594 3103 2138 3103 
Q 1681 3103 1420 2742 
Q 1159 2381 1159 1747 
Q 1159 1113 1420 752 
Q 1681 391 2138 391 
Q 2594 391 2855 752 
Q 3116 1113 3116 1747 
z
" transform="scale(0.015625)"/>
      <path id="DejaVuSans-3d" d="M 678 2906 
L 4684 2906 
L 4684 2381 
L 678 2381 
L 678 2906 
z
M 678 1631 
L 4684 1631 
L 4684 1100 
L 678 1100 
L 678 1631 
z
" transform="scale(0.015625)"/>
      <path id="DejaVuSans-31" d="M 794 531 
L 1825 531 
L 1825 4091 
L 703 3866 
L 703 4441 
L 1819 4666 
L 2450 4666 
L 2450 531 
L 3481 531 
L 3481 0 
L 794 0 
L 794 531 
z
" transform="scale(0.015625)"/>
      <path id="DejaVuSans-35" d="M 691 4666 
L 3169 4666 
L 3169 4134 
L 1269 4134 
L 1269 2991 
Q 1406 3038 1543 3061 
Q 1681 3084 1819 3084 
Q 2600 3084 3056 2656 
Q 3513 2228 3513 1497 
Q 3513 744 3044 326 
Q 2575 -91 1722 -91 
Q 1428 -91 1123 -41 
Q 819 9 494 109 
L 494 744 
Q 775 591 1075 516 
Q 1375 441 1709 441 
Q 2250 441 2565 725 
Q 2881 1009 2881 1497 
Q 2881 1984 2565 2268 
Q 2250 2553 1709 2553 
Q 1456 2553 1204 2497 
Q 953 2441 691 2322 
L 691 4666 
z
" transform="scale(0.015625)"/>
      <path id="DejaVuSans-43" d="M 4122 4306 
L 4122 3641 
Q 3803 3938 3442 4084 
Q 3081 4231 2675 4231 
Q 1875 4231 1450 3742 
Q 1025 3253 1025 2328 
Q 1025 1406 1450 917 
Q 1875 428 2675 428 
Q 3081 428 3442 575 
Q 3803 722 4122 1019 
L 4122 359 
Q 3791 134 3420 21 
Q 3050 -91 2638 -91 
Q 1578 -91 968 557 
Q 359 1206 359 2328 
Q 359 3453 968 4101 
Q 1578 4750 2638 4750 
Q 3056 4750 3426 4639 
Q 3797 4528 4122 4306 
z
" transform="scale(0.015625)"/>
     </defs>
     <use xlink:href="#DejaVuSans-45"/>
     <use xlink:href="#DejaVuSans-78" x="63.183594"/>
     <use xlink:href="#DejaVuSans-74" x="122.363281"/>
     <use xlink:href="#DejaVuSans-65" x="161.572266"/>
     <use xlink:href="#DejaVuSans-72" x="223.095703"/>
     <use xlink:href="#DejaVuSans-6e" x="262.458984"/>
     <use xlink:href="#DejaVuSans-61" x="325.837891"/>
     <use xlink:href="#DejaVuSans-6c" x="387.117188"/>
     <use xlink:href="#DejaVuSans-20" x="414.900391"/>
     <use xlink:href="#DejaVuSans-62" x="446.6875"/>
     <use xlink:href="#DejaVuSans-6f" x="510.164062"/>
     <use xlink:href="#DejaVuSans-75" x="571.345703"/>
     <use xlink:href="#DejaVuSans-6e" x="634.724609"/>
     <use xlink:href="#DejaVuSans-64" x="698.103516"/>
     <use xlink:href="#DejaVuSans-61" x="761.580078"/>
     <use xlink:href="#DejaVuSans-72" x="822.859375"/>
     <use xlink:href="#DejaVuSans-79" x="863.972656"/>
     <use xlink:href="#DejaVuSans-20" x="923.152344"/>
     <use xlink:href="#DejaVuSans-75" x="954.939453"/>
     <use xlink:href="#DejaVuSans-73" x="1018.318359"/>
     <use xlink:href="#DejaVuSans-65" x="1070.417969"/>
     <use xlink:href="#DejaVuSans-64" x="1131.941406"/>
     <use xlink:href="#DejaVuSans-20" x="1195.417969"/>
     <use xlink:href="#DejaVuSans-69" x="1227.205078"/>
     <use xlink:href="#DejaVuSans-6e" x="1254.988281"/>
     <use xlink:href="#DejaVuSans-20" x="1318.367188"/>
     <use xlink:href="#DejaVuSans-74" x="1350.154297"/>
     <use xlink:href="#DejaVuSans-68" x="1389.363281"/>
     <use xlink:href="#DejaVuSans-65" x="1452.742188"/>
     <use xlink:href="#DejaVuSans-20" x="1514.265625"/>
     <use xlink:href="#DejaVuSans-68" x="1546.052734"/>
     <use xlink:href="#DejaVuSans-65" x="1609.431641"/>
     <use xlink:href="#DejaVuSans-61" x="1670.955078"/>
     <use xlink:href="#DejaVuSans-74" x="1732.234375"/>
     <use xlink:href="#DejaVuSans-2d" x="1771.443359"/>
     <use xlink:href="#DejaVuSans-6c" x="1807.527344"/>
     <use xlink:href="#DejaVuSans-6f" x="1835.310547"/>
     <use xlink:href="#DejaVuSans-73" x="1896.492188"/>
     <use xlink:href="#DejaVuSans-73" x="1948.591797"/>
     <use xlink:href="#DejaVuSans-20" x="2000.691406"/>
     <use xlink:href="#DejaVuSans-6d" x="2032.478516"/>
     <use xlink:href="#DejaVuSans-6f" x="2129.890625"/>
     <use xlink:href="#DejaVuSans-64" x="2191.072266"/>
     <use xlink:href="#DejaVuSans-65" x="2254.548828"/>
     <use xlink:href="#DejaVuSans-6c" x="2316.072266"/>
     <use xlink:href="#DejaVuSans-3a" x="2343.855469"/>
     <use xlink:href="#DejaVuSans-20" x="2377.546875"/>
     <use xlink:href="#DejaVuSans-73" x="2409.333984"/>
     <use xlink:href="#DejaVuSans-74" x="2461.433594"/>
     <use xlink:href="#DejaVuSans-61" x="2500.642578"/>
     <use xlink:href="#DejaVuSans-67" x="2561.921875"/>
     <use xlink:href="#DejaVuSans-6e" x="2625.398438"/>
     <use xlink:href="#DejaVuSans-61" x="2688.777344"/>
     <use xlink:href="#DejaVuSans-6e" x="2750.056641"/>
     <use xlink:href="#DejaVuSans-74" x="2813.435547"/>
     <use xlink:href="#DejaVuSans-20" x="2852.644531"/>
     <use xlink:href="#DejaVuSans-67" x="2884.431641"/>
     <use xlink:href="#DejaVuSans-72" x="2947.908203"/>
     <use xlink:href="#DejaVuSans-65" x="2986.771484"/>
     <use xlink:href="#DejaVuSans-65" x="3048.294922"/>
     <use xlink:href="#DejaVuSans-6e" x="3109.818359"/>
     <use xlink:href="#DejaVuSans-68" x="3173.197266"/>
     <use xlink:href="#DejaVuSans-6f" x="3236.576172"/>
     <use xlink:href="#DejaVuSans-75" x="3297.757812"/>
     <use xlink:href="#DejaVuSans-73" x="3361.136719"/>
     <use xlink:href="#DejaVuSans-65" x="3413.236328"/>
     <use xlink:href="#DejaVuSans-20" x="3474.759766"/>
     <use xlink:href="#DejaVuSans-61" x="3506.546875"/>
     <use xlink:href="#DejaVuSans-69" x="3567.826172"/>
     <use xlink:href="#DejaVuSans-72" x="3595.609375"/>
     <use xlink:href="#DejaVuSans-2c" x="3636.722656"/>
     <use xlink:href="#DejaVuSans-20" x="3668.509766"/>
     <use xlink:href="#DejaVuSans-64" x="3700.296875"/>
     <use xlink:href="#DejaVuSans-65" x="3763.773438"/>
     <use xlink:href="#DejaVuSans-73" x="3825.296875"/>
     <use xlink:href="#DejaVuSans-69" x="3877.396484"/>
     <use xlink:href="#DejaVuSans-67" x="3905.179688"/>
     <use xlink:href="#DejaVuSans-6e" x="3968.65625"/>
     <use xlink:href="#DejaVuSans-20" x="4032.035156"/>
     <use xlink:href="#DejaVuSans-74" x="4063.822266"/>
     <use xlink:href="#DejaVuSans-65" x="4103.03125"/>
     <use xlink:href="#DejaVuSans-6d" x="4164.554688"/>
     <use xlink:href="#DejaVuSans-70" x="4261.966797"/>
     <use xlink:href="#DejaVuSans-65" x="4325.443359"/>
     <use xlink:href="#DejaVuSans-72" x="4386.966797"/>
     <use xlink:href="#DejaVuSans-61" x="4428.080078"/>
     <use xlink:href="#DejaVuSans-74" x="4489.359375"/>
     <use xlink:href="#DejaVuSans-75" x="4528.568359"/>
     <use xlink:href="#DejaVuSans-72" x="4591.947266"/>
     <use xlink:href="#DejaVuSans-65" x="4630.810547"/>
     <use xlink:href="#DejaVuSans-20" x="4692.333984"/>
     <use xlink:href="#DejaVuSans-3d" x="4724.121094"/>
     <use xlink:href="#DejaVuSans-20" x="4807.910156"/>
     <use xlink:href="#DejaVuSans-2d" x="4839.697266"/>
     <use xlink:href="#DejaVuSans-31" x="4875.78125"/>
     <use xlink:href="#DejaVuSans-35" x="4939.404297"/>
     <use xlink:href="#DejaVuSans-20" x="5003.027344"/>
     <use xlink:href="#DejaVuSans-43" x="5034.814453"/>
    </g>
   </g>
   <g id="text_2">
    <!-- Vermicomposter bin -->
    <g style="fill: #374151" transform="translate(398.831063 287.350875) scale(0.18 -0.18)">
     <defs>
      <path id="DejaVuSans-56" d="M 1831 0 
L 50 4666 
L 709 4666 
L 2188 738 
L 3669 4666 
L 4325 4666 
L 2547 0 
L 1831 0 
z
" transform="scale(0.015625)"/>
      <path id="DejaVuSans-63" d="M 3122 3366 
L 3122 2828 
Q 2878 2963 2633 3030 
Q 2388 3097 2138 3097 
Q 1578 3097 1268 2742 
Q 959 2388 959 1747 
Q 959 1106 1268 751 
Q 1578 397 2138 397 
Q 2388 397 2633 464 
Q 2878 531 3122 666 
L 3122 134 
Q 2881 22 2623 -34 
Q 2366 -91 2075 -91 
Q 1284 -91 818 406 
Q 353 903 353 1747 
Q 353 2603 823 3093 
Q 1294 3584 2113 3584 
Q 2378 3584 2631 3529 
Q 2884 3475 3122 3366 
z
" transform="scale(0.015625)"/>
     </defs>
     <use xlink:href="#DejaVuSans-56"/>
     <use xlink:href="#DejaVuSans-65" x="60.658203"/>
     <use xlink:href="#DejaVuSans-72" x="122.181641"/>
     <use xlink:href="#DejaVuSans-6d" x="161.544922"/>
     <use xlink:href="#DejaVuSans-69" x="258.957031"/>
     <use xlink:href="#DejaVuSans-63" x="286.740234"/>
     <use xlink:href="#DejaVuSans-6f" x="341.720703"/>
     <use xlink:href="#DejaVuSans-6d" x="402.902344"/>
     <use xlink:href="#DejaVuSans-70" x="500.314453"/>
     <use xlink:href="#DejaVuSans-6f" x="563.791016"/>
     <use xlink:href="#DejaVuSans-73" x="624.972656"/>
     <use xlink:href="#DejaVuSans-74" x="677.072266"/>
     <use xlink:href="#DejaVuSans-65" x="716.28125"/>
     <use xlink:href="#DejaVuSans-72" x="777.804688"/>
     <use xlink:href="#DejaVuSans-20" x="818.917969"/>
     <use xlink:href="#DejaVuSans-62" x="850.705078"/>
     <use xlink:href="#DejaVuSans-69" x="914.181641"/>
     <use xlink:href="#DejaVuSans-6e" x="941.964844"/>
    </g>
   </g>
   <g id="text_3">
    <!-- Modeled internally as a bottom node and a top node with conductive coupling. -->
    <g style="fill: #374151" transform="translate(242.776844 310.781219) scale(0.125 -0.125)">
     <defs>
      <path id="DejaVuSans-4d" d="M 628 4666 
L 1569 4666 
L 2759 1491 
L 3956 4666 
L 4897 4666 
L 4897 0 
L 4281 0 
L 4281 4097 
L 3078 897 
L 2444 897 
L 1241 4097 
L 1241 0 
L 628 0 
L 628 4666 
z
" transform="scale(0.015625)"/>
      <path id="DejaVuSans-77" d="M 269 3500 
L 844 3500 
L 1563 769 
L 2278 3500 
L 2956 3500 
L 3675 769 
L 4391 3500 
L 4966 3500 
L 4050 0 
L 3372 0 
L 2619 2869 
L 1863 0 
L 1184 0 
L 269 3500 
z
" transform="scale(0.015625)"/>
      <path id="DejaVuSans-76" d="M 191 3500 
L 800 3500 
L 1894 563 
L 2988 3500 
L 3597 3500 
L 2284 0 
L 1503 0 
L 191 3500 
z
" transform="scale(0.015625)"/>
      <path id="DejaVuSans-2e" d="M 684 794 
L 1344 794 
L 1344 0 
L 684 0 
L 684 794 
z
" transform="scale(0.015625)"/>
     </defs>
     <use xlink:href="#DejaVuSans-4d"/>
     <use xlink:href="#DejaVuSans-6f" x="86.279297"/>
     <use xlink:href="#DejaVuSans-64" x="147.460938"/>
     <use xlink:href="#DejaVuSans-65" x="210.9375"/>
     <use xlink:href="#DejaVuSans-6c" x="272.460938"/>
     <use xlink:href="#DejaVuSans-65" x="300.244141"/>
     <use xlink:href="#DejaVuSans-64" x="361.767578"/>
     <use xlink:href="#DejaVuSans-20" x="425.244141"/>
     <use xlink:href="#DejaVuSans-69" x="457.03125"/>
     <use xlink:href="#DejaVuSans-6e" x="484.814453"/>
     <use xlink:href="#DejaVuSans-74" x="548.193359"/>
     <use xlink:href="#DejaVuSans-65" x="587.402344"/>
     <use xlink:href="#DejaVuSans-72" x="648.925781"/>
     <use xlink:href="#DejaVuSans-6e" x="688.289062"/>
     <use xlink:href="#DejaVuSans-61" x="751.667969"/>
     <use xlink:href="#DejaVuSans-6c" x="812.947266"/>
     <use xlink:href="#DejaVuSans-6c" x="840.730469"/>
     <use xlink:href="#DejaVuSans-79" x="868.513672"/>
     <use xlink:href="#DejaVuSans-20" x="927.693359"/>
     <use xlink:href="#DejaVuSans-61" x="959.480469"/>
     <use xlink:href="#DejaVuSans-73" x="1020.759766"/>
     <use xlink:href="#DejaVuSans-20" x="1072.859375"/>
     <use xlink:href="#DejaVuSans-61" x="1104.646484"/>
     <use xlink:href="#DejaVuSans-20" x="1165.925781"/>
     <use xlink:href="#DejaVuSans-62" x="1197.712891"/>
     <use xlink:href="#DejaVuSans-6f" x="1261.189453"/>
     <use xlink:href="#DejaVuSans-74" x="1322.371094"/>
     <use xlink:href="#DejaVuSans-74" x="1361.580078"/>
     <use xlink:href="#DejaVuSans-6f" x="1400.789062"/>
     <use xlink:href="#DejaVuSans-6d" x="1461.970703"/>
     <use xlink:href="#DejaVuSans-20" x="1559.382812"/>
     <use xlink:href="#DejaVuSans-6e" x="1591.169922"/>
     <use xlink:href="#DejaVuSans-6f" x="1654.548828"/>
     <use xlink:href="#DejaVuSans-64" x="1715.730469"/>
     <use xlink:href="#DejaVuSans-65" x="1779.207031"/>
     <use xlink:href="#DejaVuSans-20" x="1840.730469"/>
     <use xlink:href="#DejaVuSans-61" x="1872.517578"/>
     <use xlink:href="#DejaVuSans-6e" x="1933.796875"/>
     <use xlink:href="#DejaVuSans-64" x="1997.175781"/>
     <use xlink:href="#DejaVuSans-20" x="2060.652344"/>
     <use xlink:href="#DejaVuSans-61" x="2092.439453"/>
     <use xlink:href="#DejaVuSans-20" x="2153.71875"/>
     <use xlink:href="#DejaVuSans-74" x="2185.505859"/>
     <use xlink:href="#DejaVuSans-6f" x="2224.714844"/>
     <use xlink:href="#DejaVuSans-70" x="2285.896484"/>
     <use xlink:href="#DejaVuSans-20" x="2349.373047"/>
     <use xlink:href="#DejaVuSans-6e" x="2381.160156"/>
     <use xlink:href="#DejaVuSans-6f" x="2444.539062"/>
     <use xlink:href="#DejaVuSans-64" x="2505.720703"/>
     <use xlink:href="#DejaVuSans-65" x="2569.197266"/>
     <use xlink:href="#DejaVuSans-20" x="2630.720703"/>
     <use xlink:href="#DejaVuSans-77" x="2662.507812"/>
     <use xlink:href="#DejaVuSans-69" x="2744.294922"/>
     <use xlink:href="#DejaVuSans-74" x="2772.078125"/>
     <use xlink:href="#DejaVuSans-68" x="2811.287109"/>
     <use xlink:href="#DejaVuSans-20" x="2874.666016"/>
     <use xlink:href="#DejaVuSans-63" x="2906.453125"/>
     <use xlink:href="#DejaVuSans-6f" x="2961.433594"/>
     <use xlink:href="#DejaVuSans-6e" x="3022.615234"/>
     <use xlink:href="#DejaVuSans-64" x="3085.994141"/>
     <use xlink:href="#DejaVuSans-75" x="3149.470703"/>
     <use xlink:href="#DejaVuSans-63" x="3212.849609"/>
     <use xlink:href="#DejaVuSans-74" x="3267.830078"/>
     <use xlink:href="#DejaVuSans-69" x="3307.039062"/>
     <use xlink:href="#DejaVuSans-76" x="3334.822266"/>
     <use xlink:href="#DejaVuSans-65" x="3394.001953"/>
     <use xlink:href="#DejaVuSans-20" x="3455.525391"/>
     <use xlink:href="#DejaVuSans-63" x="3487.3125"/>
     <use xlink:href="#DejaVuSans-6f" x="3542.292969"/>
     <use xlink:href="#DejaVuSans-75" x="3603.474609"/>
     <use xlink:href="#DejaVuSans-70" x="3666.853516"/>
     <use xlink:href="#DejaVuSans-6c" x="3730.330078"/>
     <use xlink:href="#DejaVuSans-69" x="3758.113281"/>
     <use xlink:href="#DejaVuSans-6e" x="3785.896484"/>
     <use xlink:href="#DejaVuSans-67" x="3849.275391"/>
     <use xlink:href="#DejaVuSans-2e" x="3912.751953"/>
    </g>
   </g>
   <g id="text_4">
    <!-- Heater input enters through four parallel aeration branches. -->
    <g style="fill: #374151" transform="translate(300.941883 335.729219) scale(0.125 -0.125)">
     <defs>
      <path id="DejaVuSans-48" d="M 628 4666 
L 1259 4666 
L 1259 2753 
L 3553 2753 
L 3553 4666 
L 4184 4666 
L 4184 0 
L 3553 0 
L 3553 2222 
L 1259 2222 
L 1259 0 
L 628 0 
L 628 4666 
z
" transform="scale(0.015625)"/>
      <path id="DejaVuSans-66" d="M 2375 4863 
L 2375 4384 
L 1825 4384 
Q 1516 4384 1395 4259 
Q 1275 4134 1275 3809 
L 1275 3500 
L 2222 3500 
L 2222 3053 
L 1275 3053 
L 1275 0 
L 697 0 
L 697 3053 
L 147 3053 
L 147 3500 
L 697 3500 
L 697 3744 
Q 697 4328 969 4595 
Q 1241 4863 1831 4863 
L 2375 4863 
z
" transform="scale(0.015625)"/>
     </defs>
     <use xlink:href="#DejaVuSans-48"/>
     <use xlink:href="#DejaVuSans-65" x="75.195312"/>
     <use xlink:href="#DejaVuSans-61" x="136.71875"/>
     <use xlink:href="#DejaVuSans-74" x="197.998047"/>
     <use xlink:href="#DejaVuSans-65" x="237.207031"/>
     <use xlink:href="#DejaVuSans-72" x="298.730469"/>
     <use xlink:href="#DejaVuSans-20" x="339.84375"/>
     <use xlink:href="#DejaVuSans-69" x="371.630859"/>
     <use xlink:href="#DejaVuSans-6e" x="399.414062"/>
     <use xlink:href="#DejaVuSans-70" x="462.792969"/>
     <use xlink:href="#DejaVuSans-75" x="526.269531"/>
     <use xlink:href="#DejaVuSans-74" x="589.648438"/>
     <use xlink:href="#DejaVuSans-20" x="628.857422"/>
     <use xlink:href="#DejaVuSans-65" x="660.644531"/>
     <use xlink:href="#DejaVuSans-6e" x="722.167969"/>
     <use xlink:href="#DejaVuSans-74" x="785.546875"/>
     <use xlink:href="#DejaVuSans-65" x="824.755859"/>
     <use xlink:href="#DejaVuSans-72" x="886.279297"/>
     <use xlink:href="#DejaVuSans-73" x="927.392578"/>
     <use xlink:href="#DejaVuSans-20" x="979.492188"/>
     <use xlink:href="#DejaVuSans-74" x="1011.279297"/>
     <use xlink:href="#DejaVuSans-68" x="1050.488281"/>
     <use xlink:href="#DejaVuSans-72" x="1113.867188"/>
     <use xlink:href="#DejaVuSans-6f" x="1152.730469"/>
     <use xlink:href="#DejaVuSans-75" x="1213.912109"/>
     <use xlink:href="#DejaVuSans-67" x="1277.291016"/>
     <use xlink:href="#DejaVuSans-68" x="1340.767578"/>
     <use xlink:href="#DejaVuSans-20" x="1404.146484"/>
     <use xlink:href="#DejaVuSans-66" x="1435.933594"/>
     <use xlink:href="#DejaVuSans-6f" x="1471.138672"/>
     <use xlink:href="#DejaVuSans-75" x="1532.320312"/>
     <use xlink:href="#DejaVuSans-72" x="1595.699219"/>
     <use xlink:href="#DejaVuSans-20" x="1636.8125"/>
     <use xlink:href="#DejaVuSans-70" x="1668.599609"/>
     <use xlink:href="#DejaVuSans-61" x="1732.076172"/>
     <use xlink:href="#DejaVuSans-72" x="1793.355469"/>
     <use xlink:href="#DejaVuSans-61" x="1834.46875"/>
     <use xlink:href="#DejaVuSans-6c" x="1895.748047"/>
     <use xlink:href="#DejaVuSans-6c" x="1923.53125"/>
     <use xlink:href="#DejaVuSans-65" x="1951.314453"/>
     <use xlink:href="#DejaVuSans-6c" x="2012.837891"/>
     <use xlink:href="#DejaVuSans-20" x="2040.621094"/>
     <use xlink:href="#DejaVuSans-61" x="2072.408203"/>
     <use xlink:href="#DejaVuSans-65" x="2133.6875"/>
     <use xlink:href="#DejaVuSans-72" x="2195.210938"/>
     <use xlink:href="#DejaVuSans-61" x="2236.324219"/>
     <use xlink:href="#DejaVuSans-74" x="2297.603516"/>
     <use xlink:href="#DejaVuSans-69" x="2336.8125"/>
     <use xlink:href="#DejaVuSans-6f" x="2364.595703"/>
     <use xlink:href="#DejaVuSans-6e" x="2425.777344"/>
     <use xlink:href="#DejaVuSans-20" x="2489.15625"/>
     <use xlink:href="#DejaVuSans-62" x="2520.943359"/>
     <use xlink:href="#DejaVuSans-72" x="2584.419922"/>
     <use xlink:href="#DejaVuSans-61" x="2625.533203"/>
     <use xlink:href="#DejaVuSans-6e" x="2686.8125"/>
     <use xlink:href="#DejaVuSans-63" x="2750.191406"/>
     <use xlink:href="#DejaVuSans-68" x="2805.171875"/>
     <use xlink:href="#DejaVuSans-65" x="2868.550781"/>
     <use xlink:href="#DejaVuSans-73" x="2930.074219"/>
     <use xlink:href="#DejaVuSans-2e" x="2982.173828"/>
    </g>
   </g>
   <g id="text_5">
    <!-- Heat leaves through the insulated wall to greenhouse air. -->
    <g style="fill: #374151" transform="translate(309.690906 353.470019) scale(0.125 -0.125)">
     <use xlink:href="#DejaVuSans-48"/>
     <use xlink:href="#DejaVuSans-65" x="75.195312"/>
     <use xlink:href="#DejaVuSans-61" x="136.71875"/>
     <use xlink:href="#DejaVuSans-74" x="197.998047"/>
     <use xlink:href="#DejaVuSans-20" x="237.207031"/>
     <use xlink:href="#DejaVuSans-6c" x="268.994141"/>
     <use xlink:href="#DejaVuSans-65" x="296.777344"/>
     <use xlink:href="#DejaVuSans-61" x="358.300781"/>
     <use xlink:href="#DejaVuSans-76" x="419.580078"/>
     <use xlink:href="#DejaVuSans-65" x="478.759766"/>
     <use xlink:href="#DejaVuSans-73" x="540.283203"/>
     <use xlink:href="#DejaVuSans-20" x="592.382812"/>
     <use xlink:href="#DejaVuSans-74" x="624.169922"/>
     <use xlink:href="#DejaVuSans-68" x="663.378906"/>
     <use xlink:href="#DejaVuSans-72" x="726.757812"/>
     <use xlink:href="#DejaVuSans-6f" x="765.621094"/>
     <use xlink:href="#DejaVuSans-75" x="826.802734"/>
     <use xlink:href="#DejaVuSans-67" x="890.181641"/>
     <use xlink:href="#DejaVuSans-68" x="953.658203"/>
     <use xlink:href="#DejaVuSans-20" x="1017.037109"/>
     <use xlink:href="#DejaVuSans-74" x="1048.824219"/>
     <use xlink:href="#DejaVuSans-68" x="1088.033203"/>
     <use xlink:href="#DejaVuSans-65" x="1151.412109"/>
     <use xlink:href="#DejaVuSans-20" x="1212.935547"/>
     <use xlink:href="#DejaVuSans-69" x="1244.722656"/>
     <use xlink:href="#DejaVuSans-6e" x="1272.505859"/>
     <use xlink:href="#DejaVuSans-73" x="1335.884766"/>
     <use xlink:href="#DejaVuSans-75" x="1387.984375"/>
     <use xlink:href="#DejaVuSans-6c" x="1451.363281"/>
     <use xlink:href="#DejaVuSans-61" x="1479.146484"/>
     <use xlink:href="#DejaVuSans-74" x="1540.425781"/>
     <use xlink:href="#DejaVuSans-65" x="1579.634766"/>
     <use xlink:href="#DejaVuSans-64" x="1641.158203"/>
     <use xlink:href="#DejaVuSans-20" x="1704.634766"/>
     <use xlink:href="#DejaVuSans-77" x="1736.421875"/>
     <use xlink:href="#DejaVuSans-61" x="1818.208984"/>
     <use xlink:href="#DejaVuSans-6c" x="1879.488281"/>
     <use xlink:href="#DejaVuSans-6c" x="1907.271484"/>
     <use xlink:href="#DejaVuSans-20" x="1935.054688"/>
     <use xlink:href="#DejaVuSans-74" x="1966.841797"/>
     <use xlink:href="#DejaVuSans-6f" x="2006.050781"/>
     <use xlink:href="#DejaVuSans-20" x="2067.232422"/>
     <use xlink:href="#DejaVuSans-67" x="2099.019531"/>
     <use xlink:href="#DejaVuSans-72" x="2162.496094"/>
     <use xlink:href="#DejaVuSans-65" x="2201.359375"/>
     <use xlink:href="#DejaVuSans-65" x="2262.882812"/>
     <use xlink:href="#DejaVuSans-6e" x="2324.40625"/>
     <use xlink:href="#DejaVuSans-68" x="2387.785156"/>
     <use xlink:href="#DejaVuSans-6f" x="2451.164062"/>
     <use xlink:href="#DejaVuSans-75" x="2512.345703"/>
     <use xlink:href="#DejaVuSans-73" x="2575.724609"/>
     <use xlink:href="#DejaVuSans-65" x="2627.824219"/>
     <use xlink:href="#DejaVuSans-20" x="2689.347656"/>
     <use xlink:href="#DejaVuSans-61" x="2721.134766"/>
     <use xlink:href="#DejaVuSans-69" x="2782.414062"/>
     <use xlink:href="#DejaVuSans-72" x="2810.197266"/>
     <use xlink:href="#DejaVuSans-2e" x="2842.185547"/>
    </g>
   </g>
   <g id="text_6">
    <!-- Aeration tube 1 -->
    <g style="fill: #374151" transform="translate(700.236 507.179313) scale(0.11 -0.11)">
     <defs>
      <path id="DejaVuSans-41" d="M 2188 4044 
L 1331 1722 
L 3047 1722 
L 2188 4044 
z
M 1831 4666 
L 2547 4666 
L 4325 0 
L 3669 0 
L 3244 1197 
L 1141 1197 
L 716 0 
L 50 0 
L 1831 4666 
z
" transform="scale(0.015625)"/>
     </defs>
     <use xlink:href="#DejaVuSans-41"/>
     <use xlink:href="#DejaVuSans-65" x="66.658203"/>
     <use xlink:href="#DejaVuSans-72" x="128.181641"/>
     <use xlink:href="#DejaVuSans-61" x="169.294922"/>
     <use xlink:href="#DejaVuSans-74" x="230.574219"/>
     <use xlink:href="#DejaVuSans-69" x="269.783203"/>
     <use xlink:href="#DejaVuSans-6f" x="297.566406"/>
     <use xlink:href="#DejaVuSans-6e" x="358.748047"/>
     <use xlink:href="#DejaVuSans-20" x="422.126953"/>
     <use xlink:href="#DejaVuSans-74" x="453.914062"/>
     <use xlink:href="#DejaVuSans-75" x="493.123047"/>
     <use xlink:href="#DejaVuSans-62" x="556.501953"/>
     <use xlink:href="#DejaVuSans-65" x="619.978516"/>
     <use xlink:href="#DejaVuSans-20" x="681.501953"/>
     <use xlink:href="#DejaVuSans-31" x="713.289062"/>
    </g>
   </g>
   <g id="text_7">
    <!-- Aeration tube 2 -->
    <g style="fill: #374151" transform="translate(700.236 462.827312) scale(0.11 -0.11)">
     <defs>
      <path id="DejaVuSans-32" d="M 1228 531 
L 3431 531 
L 3431 0 
L 469 0 
L 469 531 
Q 828 903 1448 1529 
Q 2069 2156 2228 2338 
Q 2531 2678 2651 2914 
Q 2772 3150 2772 3378 
Q 2772 3750 2511 3984 
Q 2250 4219 1831 4219 
Q 1534 4219 1204 4116 
Q 875 4013 500 3803 
L 500 4441 
Q 881 4594 1212 4672 
Q 1544 4750 1819 4750 
Q 2544 4750 2975 4387 
Q 3406 4025 3406 3419 
Q 3406 3131 3298 2873 
Q 3191 2616 2906 2266 
Q 2828 2175 2409 1742 
Q 1991 1309 1228 531 
z
" transform="scale(0.015625)"/>
     </defs>
     <use xlink:href="#DejaVuSans-41"/>
     <use xlink:href="#DejaVuSans-65" x="66.658203"/>
     <use xlink:href="#DejaVuSans-72" x="128.181641"/>
     <use xlink:href="#DejaVuSans-61" x="169.294922"/>
     <use xlink:href="#DejaVuSans-74" x="230.574219"/>
     <use xlink:href="#DejaVuSans-69" x="269.783203"/>
     <use xlink:href="#DejaVuSans-6f" x="297.566406"/>
     <use xlink:href="#DejaVuSans-6e" x="358.748047"/>
     <use xlink:href="#DejaVuSans-20" x="422.126953"/>
     <use xlink:href="#DejaVuSans-74" x="453.914062"/>
     <use xlink:href="#DejaVuSans-75" x="493.123047"/>
     <use xlink:href="#DejaVuSans-62" x="556.501953"/>
     <use xlink:href="#DejaVuSans-65" x="619.978516"/>
     <use xlink:href="#DejaVuSans-20" x="681.501953"/>
     <use xlink:href="#DejaVuSans-32" x="713.289062"/>
    </g>
   </g>
   <g id="text_8">
    <!-- Aeration tube 3 -->
    <g style="fill: #374151" transform="translate(700.236 418.475312) scale(0.11 -0.11)">
     <defs>
      <path id="DejaVuSans-33" d="M 2597 2516 
Q 3050 2419 3304 2112 
Q 3559 1806 3559 1356 
Q 3559 666 3084 287 
Q 2609 -91 1734 -91 
Q 1441 -91 1130 -33 
Q 819 25 488 141 
L 488 750 
Q 750 597 1062 519 
Q 1375 441 1716 441 
Q 2309 441 2620 675 
Q 2931 909 2931 1356 
Q 2931 1769 2642 2001 
Q 2353 2234 1838 2234 
L 1294 2234 
L 1294 2753 
L 1863 2753 
Q 2328 2753 2575 2939 
Q 2822 3125 2822 3475 
Q 2822 3834 2567 4026 
Q 2313 4219 1838 4219 
Q 1578 4219 1281 4162 
Q 984 4106 628 3988 
L 628 4550 
Q 988 4650 1302 4700 
Q 1616 4750 1894 4750 
Q 2613 4750 3031 4423 
Q 3450 4097 3450 3541 
Q 3450 3153 3228 2886 
Q 3006 2619 2597 2516 
z
" transform="scale(0.015625)"/>
     </defs>
     <use xlink:href="#DejaVuSans-41"/>
     <use xlink:href="#DejaVuSans-65" x="66.658203"/>
     <use xlink:href="#DejaVuSans-72" x="128.181641"/>
     <use xlink:href="#DejaVuSans-61" x="169.294922"/>
     <use xlink:href="#DejaVuSans-74" x="230.574219"/>
     <use xlink:href="#DejaVuSans-69" x="269.783203"/>
     <use xlink:href="#DejaVuSans-6f" x="297.566406"/>
     <use xlink:href="#DejaVuSans-6e" x="358.748047"/>
     <use xlink:href="#DejaVuSans-20" x="422.126953"/>
     <use xlink:href="#DejaVuSans-74" x="453.914062"/>
     <use xlink:href="#DejaVuSans-75" x="493.123047"/>
     <use xlink:href="#DejaVuSans-62" x="556.501953"/>
     <use xlink:href="#DejaVuSans-65" x="619.978516"/>
     <use xlink:href="#DejaVuSans-20" x="681.501953"/>
     <use xlink:href="#DejaVuSans-33" x="713.289062"/>
    </g>
   </g>
   <g id="text_9">
    <!-- Aeration tube 4 -->
    <g style="fill: #374151" transform="translate(700.236 374.123312) scale(0.11 -0.11)">
     <defs>
      <path id="DejaVuSans-34" d="M 2419 4116 
L 825 1625 
L 2419 1625 
L 2419 4116 
z
M 2253 4666 
L 3047 4666 
L 3047 1625 
L 3713 1625 
L 3713 1100 
L 3047 1100 
L 3047 0 
L 2419 0 
L 2419 1100 
L 313 1100 
L 313 1709 
L 2253 4666 
z
" transform="scale(0.015625)"/>
     </defs>
     <use xlink:href="#DejaVuSans-41"/>
     <use xlink:href="#DejaVuSans-65" x="66.658203"/>
     <use xlink:href="#DejaVuSans-72" x="128.181641"/>
     <use xlink:href="#DejaVuSans-61" x="169.294922"/>
     <use xlink:href="#DejaVuSans-74" x="230.574219"/>
     <use xlink:href="#DejaVuSans-69" x="269.783203"/>
     <use xlink:href="#DejaVuSans-6f" x="297.566406"/>
     <use xlink:href="#DejaVuSans-6e" x="358.748047"/>
     <use xlink:href="#DejaVuSans-20" x="422.126953"/>
     <use xlink:href="#DejaVuSans-74" x="453.914062"/>
     <use xlink:href="#DejaVuSans-75" x="493.123047"/>
     <use xlink:href="#DejaVuSans-62" x="556.501953"/>
     <use xlink:href="#DejaVuSans-65" x="619.978516"/>
     <use xlink:href="#DejaVuSans-20" x="681.501953"/>
     <use xlink:href="#DejaVuSans-34" x="713.289062"/>
    </g>
   </g>
   <g id="text_10">
    <!-- Shared DC supply -->
    <g transform="translate(59.716188 213.899188) scale(0.13 -0.13)">
     <defs>
      <path id="DejaVuSans-53" d="M 3425 4513 
L 3425 3897 
Q 3066 4069 2747 4153 
Q 2428 4238 2131 4238 
Q 1616 4238 1336 4038 
Q 1056 3838 1056 3469 
Q 1056 3159 1242 3001 
Q 1428 2844 1947 2747 
L 2328 2669 
Q 3034 2534 3370 2195 
Q 3706 1856 3706 1288 
Q 3706 609 3251 259 
Q 2797 -91 1919 -91 
Q 1588 -91 1214 -16 
Q 841 59 441 206 
L 441 856 
Q 825 641 1194 531 
Q 1563 422 1919 422 
Q 2459 422 2753 634 
Q 3047 847 3047 1241 
Q 3047 1584 2836 1778 
Q 2625 1972 2144 2069 
L 1759 2144 
Q 1053 2284 737 2584 
Q 422 2884 422 3419 
Q 422 4038 858 4394 
Q 1294 4750 2059 4750 
Q 2388 4750 2728 4690 
Q 3069 4631 3425 4513 
z
" transform="scale(0.015625)"/>
      <path id="DejaVuSans-44" d="M 1259 4147 
L 1259 519 
L 2022 519 
Q 2988 519 3436 956 
Q 3884 1394 3884 2338 
Q 3884 3275 3436 3711 
Q 2988 4147 2022 4147 
L 1259 4147 
z
M 628 4666 
L 1925 4666 
Q 3281 4666 3915 4102 
Q 4550 3538 4550 2338 
Q 4550 1131 3912 565 
Q 3275 0 1925 0 
L 628 0 
L 628 4666 
z
" transform="scale(0.015625)"/>
     </defs>
     <use xlink:href="#DejaVuSans-53"/>
     <use xlink:href="#DejaVuSans-68" x="63.476562"/>
     <use xlink:href="#DejaVuSans-61" x="126.855469"/>
     <use xlink:href="#DejaVuSans-72" x="188.134766"/>
     <use xlink:href="#DejaVuSans-65" x="226.998047"/>
     <use xlink:href="#DejaVuSans-64" x="288.521484"/>
     <use xlink:href="#DejaVuSans-20" x="351.998047"/>
     <use xlink:href="#DejaVuSans-44" x="383.785156"/>
     <use xlink:href="#DejaVuSans-43" x="460.787109"/>
     <use xlink:href="#DejaVuSans-20" x="530.611328"/>
     <use xlink:href="#DejaVuSans-73" x="562.398438"/>
     <use xlink:href="#DejaVuSans-75" x="614.498047"/>
     <use xlink:href="#DejaVuSans-70" x="677.876953"/>
     <use xlink:href="#DejaVuSans-70" x="741.353516"/>
     <use xlink:href="#DejaVuSans-6c" x="804.830078"/>
     <use xlink:href="#DejaVuSans-79" x="832.613281"/>
    </g>
   </g>
   <g id="text_11">
    <!-- Four parallel -->
    <g transform="translate(67.120625 404.470031) scale(0.13 -0.13)">
     <defs>
      <path id="DejaVuSans-46" d="M 628 4666 
L 3309 4666 
L 3309 4134 
L 1259 4134 
L 1259 2759 
L 3109 2759 
L 3109 2228 
L 1259 2228 
L 1259 0 
L 628 0 
L 628 4666 
z
" transform="scale(0.015625)"/>
     </defs>
     <use xlink:href="#DejaVuSans-46"/>
     <use xlink:href="#DejaVuSans-6f" x="53.894531"/>
     <use xlink:href="#DejaVuSans-75" x="115.076172"/>
     <use xlink:href="#DejaVuSans-72" x="178.455078"/>
     <use xlink:href="#DejaVuSans-20" x="219.568359"/>
     <use xlink:href="#DejaVuSans-70" x="251.355469"/>
     <use xlink:href="#DejaVuSans-61" x="314.832031"/>
     <use xlink:href="#DejaVuSans-72" x="376.111328"/>
     <use xlink:href="#DejaVuSans-61" x="417.224609"/>
     <use xlink:href="#DejaVuSans-6c" x="478.503906"/>
     <use xlink:href="#DejaVuSans-6c" x="506.287109"/>
     <use xlink:href="#DejaVuSans-65" x="534.070312"/>
     <use xlink:href="#DejaVuSans-6c" x="595.59375"/>
    </g>
    <!-- heater branches -->
    <g transform="translate(54.271953 419.027187) scale(0.13 -0.13)">
     <use xlink:href="#DejaVuSans-68"/>
     <use xlink:href="#DejaVuSans-65" x="63.378906"/>
     <use xlink:href="#DejaVuSans-61" x="124.902344"/>
     <use xlink:href="#DejaVuSans-74" x="186.181641"/>
     <use xlink:href="#DejaVuSans-65" x="225.390625"/>
     <use xlink:href="#DejaVuSans-72" x="286.914062"/>
     <use xlink:href="#DejaVuSans-20" x="328.027344"/>
     <use xlink:href="#DejaVuSans-62" x="359.814453"/>
     <use xlink:href="#DejaVuSans-72" x="423.291016"/>
     <use xlink:href="#DejaVuSans-61" x="464.404297"/>
     <use xlink:href="#DejaVuSans-6e" x="525.683594"/>
     <use xlink:href="#DejaVuSans-63" x="589.0625"/>
     <use xlink:href="#DejaVuSans-68" x="644.042969"/>
     <use xlink:href="#DejaVuSans-65" x="707.421875"/>
     <use xlink:href="#DejaVuSans-73" x="768.945312"/>
    </g>
    <!-- (NiCr coil in each) -->
    <g transform="translate(49.727031 433.584344) scale(0.13 -0.13)">
     <defs>
      <path id="DejaVuSans-28" d="M 1984 4856 
Q 1566 4138 1362 3434 
Q 1159 2731 1159 2009 
Q 1159 1288 1364 580 
Q 1569 -128 1984 -844 
L 1484 -844 
Q 1016 -109 783 600 
Q 550 1309 550 2009 
Q 550 2706 781 3412 
Q 1013 4119 1484 4856 
L 1984 4856 
z
" transform="scale(0.015625)"/>
      <path id="DejaVuSans-4e" d="M 628 4666 
L 1478 4666 
L 3547 763 
L 3547 4666 
L 4159 4666 
L 4159 0 
L 3309 0 
L 1241 3903 
L 1241 0 
L 628 0 
L 628 4666 
z
" transform="scale(0.015625)"/>
      <path id="DejaVuSans-29" d="M 513 4856 
L 1013 4856 
Q 1481 4119 1714 3412 
Q 1947 2706 1947 2009 
Q 1947 1309 1714 600 
Q 1481 -109 1013 -844 
L 513 -844 
Q 928 -128 1133 580 
Q 1338 1288 1338 2009 
Q 1338 2731 1133 3434 
Q 928 4138 513 4856 
z
" transform="scale(0.015625)"/>
     </defs>
     <use xlink:href="#DejaVuSans-28"/>
     <use xlink:href="#DejaVuSans-4e" x="39.013672"/>
     <use xlink:href="#DejaVuSans-69" x="113.818359"/>
     <use xlink:href="#DejaVuSans-43" x="141.601562"/>
     <use xlink:href="#DejaVuSans-72" x="211.425781"/>
     <use xlink:href="#DejaVuSans-20" x="252.539062"/>
     <use xlink:href="#DejaVuSans-63" x="284.326172"/>
     <use xlink:href="#DejaVuSans-6f" x="339.306641"/>
     <use xlink:href="#DejaVuSans-69" x="400.488281"/>
     <use xlink:href="#DejaVuSans-6c" x="428.271484"/>
     <use xlink:href="#DejaVuSans-20" x="456.054688"/>
     <use xlink:href="#DejaVuSans-69" x="487.841797"/>
     <use xlink:href="#DejaVuSans-6e" x="515.625"/>
     <use xlink:href="#DejaVuSans-20" x="579.003906"/>
     <use xlink:href="#DejaVuSans-65" x="610.791016"/>
     <use xlink:href="#DejaVuSans-61" x="672.314453"/>
     <use xlink:href="#DejaVuSans-63" x="733.59375"/>
     <use xlink:href="#DejaVuSans-68" x="788.574219"/>
     <use xlink:href="#DejaVuSans-29" x="851.953125"/>
    </g>
   </g>
   <g id="text_12">
    <!-- branch flow -->
    <g style="fill: #b91c1c" transform="translate(160.820094 493.873713) scale(0.11 -0.11)">
     <use xlink:href="#DejaVuSans-62"/>
     <use xlink:href="#DejaVuSans-72" x="63.476562"/>
     <use xlink:href="#DejaVuSans-61" x="104.589844"/>
     <use xlink:href="#DejaVuSans-6e" x="165.869141"/>
     <use xlink:href="#DejaVuSans-63" x="229.248047"/>
     <use xlink:href="#DejaVuSans-68" x="284.228516"/>
     <use xlink:href="#DejaVuSans-20" x="347.607422"/>
     <use xlink:href="#DejaVuSans-66" x="379.394531"/>
     <use xlink:href="#DejaVuSans-6c" x="414.599609"/>
     <use xlink:href="#DejaVuSans-6f" x="442.382812"/>
     <use xlink:href="#DejaVuSans-77" x="503.564453"/>
    </g>
   </g>
   <g id="text_13">
    <!-- branch flow -->
    <g style="fill: #b91c1c" transform="translate(160.820094 449.521713) scale(0.11 -0.11)">
     <use xlink:href="#DejaVuSans-62"/>
     <use xlink:href="#DejaVuSans-72" x="63.476562"/>
     <use xlink:href="#DejaVuSans-61" x="104.589844"/>
     <use xlink:href="#DejaVuSans-6e" x="165.869141"/>
     <use xlink:href="#DejaVuSans-63" x="229.248047"/>
     <use xlink:href="#DejaVuSans-68" x="284.228516"/>
     <use xlink:href="#DejaVuSans-20" x="347.607422"/>
     <use xlink:href="#DejaVuSans-66" x="379.394531"/>
     <use xlink:href="#DejaVuSans-6c" x="414.599609"/>
     <use xlink:href="#DejaVuSans-6f" x="442.382812"/>
     <use xlink:href="#DejaVuSans-77" x="503.564453"/>
    </g>
   </g>
   <g id="text_14">
    <!-- branch flow -->
    <g style="fill: #b91c1c" transform="translate(160.820094 405.169713) scale(0.11 -0.11)">
     <use xlink:href="#DejaVuSans-62"/>
     <use xlink:href="#DejaVuSans-72" x="63.476562"/>
     <use xlink:href="#DejaVuSans-61" x="104.589844"/>
     <use xlink:href="#DejaVuSans-6e" x="165.869141"/>
     <use xlink:href="#DejaVuSans-63" x="229.248047"/>
     <use xlink:href="#DejaVuSans-68" x="284.228516"/>
     <use xlink:href="#DejaVuSans-20" x="347.607422"/>
     <use xlink:href="#DejaVuSans-66" x="379.394531"/>
     <use xlink:href="#DejaVuSans-6c" x="414.599609"/>
     <use xlink:href="#DejaVuSans-6f" x="442.382812"/>
     <use xlink:href="#DejaVuSans-77" x="503.564453"/>
    </g>
   </g>
   <g id="text_15">
    <!-- branch flow -->
    <g style="fill: #b91c1c" transform="translate(160.820094 360.817712) scale(0.11 -0.11)">
     <use xlink:href="#DejaVuSans-62"/>
     <use xlink:href="#DejaVuSans-72" x="63.476562"/>
     <use xlink:href="#DejaVuSans-61" x="104.589844"/>
     <use xlink:href="#DejaVuSans-6e" x="165.869141"/>
     <use xlink:href="#DejaVuSans-63" x="229.248047"/>
     <use xlink:href="#DejaVuSans-68" x="284.228516"/>
     <use xlink:href="#DejaVuSans-20" x="347.607422"/>
     <use xlink:href="#DejaVuSans-66" x="379.394531"/>
     <use xlink:href="#DejaVuSans-6c" x="414.599609"/>
     <use xlink:href="#DejaVuSans-6f" x="442.382812"/>
     <use xlink:href="#DejaVuSans-77" x="503.564453"/>
    </g>
   </g>
   <g id="text_16">
    <!-- PID / sensors -->
    <g transform="translate(835.700813 395.787719) scale(0.14 -0.14)">
     <defs>
      <path id="DejaVuSans-50" d="M 1259 4147 
L 1259 2394 
L 2053 2394 
Q 2494 2394 2734 2622 
Q 2975 2850 2975 3272 
Q 2975 3691 2734 3919 
Q 2494 4147 2053 4147 
L 1259 4147 
z
M 628 4666 
L 2053 4666 
Q 2838 4666 3239 4311 
Q 3641 3956 3641 3272 
Q 3641 2581 3239 2228 
Q 2838 1875 2053 1875 
L 1259 1875 
L 1259 0 
L 628 0 
L 628 4666 
z
" transform="scale(0.015625)"/>
      <path id="DejaVuSans-49" d="M 628 4666 
L 1259 4666 
L 1259 0 
L 628 0 
L 628 4666 
z
" transform="scale(0.015625)"/>
      <path id="DejaVuSans-2f" d="M 1625 4666 
L 2156 4666 
L 531 -594 
L 0 -594 
L 1625 4666 
z
" transform="scale(0.015625)"/>
     </defs>
     <use xlink:href="#DejaVuSans-50"/>
     <use xlink:href="#DejaVuSans-49" x="60.302734"/>
     <use xlink:href="#DejaVuSans-44" x="89.794922"/>
     <use xlink:href="#DejaVuSans-20" x="166.796875"/>
     <use xlink:href="#DejaVuSans-2f" x="198.583984"/>
     <use xlink:href="#DejaVuSans-20" x="232.275391"/>
     <use xlink:href="#DejaVuSans-73" x="264.0625"/>
     <use xlink:href="#DejaVuSans-65" x="316.162109"/>
     <use xlink:href="#DejaVuSans-6e" x="377.685547"/>
     <use xlink:href="#DejaVuSans-73" x="441.064453"/>
     <use xlink:href="#DejaVuSans-6f" x="493.164062"/>
     <use xlink:href="#DejaVuSans-72" x="554.345703"/>
     <use xlink:href="#DejaVuSans-73" x="595.458984"/>
    </g>
    <!-- bottom thermistor -->
    <g transform="translate(816.928781 411.464656) scale(0.14 -0.14)">
     <use xlink:href="#DejaVuSans-62"/>
     <use xlink:href="#DejaVuSans-6f" x="63.476562"/>
     <use xlink:href="#DejaVuSans-74" x="124.658203"/>
     <use xlink:href="#DejaVuSans-74" x="163.867188"/>
     <use xlink:href="#DejaVuSans-6f" x="203.076172"/>
     <use xlink:href="#DejaVuSans-6d" x="264.257812"/>
     <use xlink:href="#DejaVuSans-20" x="361.669922"/>
     <use xlink:href="#DejaVuSans-74" x="393.457031"/>
     <use xlink:href="#DejaVuSans-68" x="432.666016"/>
     <use xlink:href="#DejaVuSans-65" x="496.044922"/>
     <use xlink:href="#DejaVuSans-72" x="557.568359"/>
     <use xlink:href="#DejaVuSans-6d" x="596.931641"/>
     <use xlink:href="#DejaVuSans-69" x="694.34375"/>
     <use xlink:href="#DejaVuSans-73" x="722.126953"/>
     <use xlink:href="#DejaVuSans-74" x="774.226562"/>
     <use xlink:href="#DejaVuSans-6f" x="813.435547"/>
     <use xlink:href="#DejaVuSans-72" x="874.617188"/>
    </g>
    <!-- top thermistor -->
    <g transform="translate(830.774563 427.141594) scale(0.14 -0.14)">
     <use xlink:href="#DejaVuSans-74"/>
     <use xlink:href="#DejaVuSans-6f" x="39.208984"/>
     <use xlink:href="#DejaVuSans-70" x="100.390625"/>
     <use xlink:href="#DejaVuSans-20" x="163.867188"/>
     <use xlink:href="#DejaVuSans-74" x="195.654297"/>
     <use xlink:href="#DejaVuSans-68" x="234.863281"/>
     <use xlink:href="#DejaVuSans-65" x="298.242188"/>
     <use xlink:href="#DejaVuSans-72" x="359.765625"/>
     <use xlink:href="#DejaVuSans-6d" x="399.128906"/>
     <use xlink:href="#DejaVuSans-69" x="496.541016"/>
     <use xlink:href="#DejaVuSans-73" x="524.324219"/>
     <use xlink:href="#DejaVuSans-74" x="576.423828"/>
     <use xlink:href="#DejaVuSans-6f" x="615.632812"/>
     <use xlink:href="#DejaVuSans-72" x="676.814453"/>
    </g>
    <!-- voltage command -->
    <g transform="translate(817.708625 442.818531) scale(0.14 -0.14)">
     <use xlink:href="#DejaVuSans-76"/>
     <use xlink:href="#DejaVuSans-6f" x="59.179688"/>
     <use xlink:href="#DejaVuSans-6c" x="120.361328"/>
     <use xlink:href="#DejaVuSans-74" x="148.144531"/>
     <use xlink:href="#DejaVuSans-61" x="187.353516"/>
     <use xlink:href="#DejaVuSans-67" x="248.632812"/>
     <use xlink:href="#DejaVuSans-65" x="312.109375"/>
     <use xlink:href="#DejaVuSans-20" x="373.632812"/>
     <use xlink:href="#DejaVuSans-63" x="405.419922"/>
     <use xlink:href="#DejaVuSans-6f" x="460.400391"/>
     <use xlink:href="#DejaVuSans-6d" x="521.582031"/>
     <use xlink:href="#DejaVuSans-6d" x="618.994141"/>
     <use xlink:href="#DejaVuSans-61" x="716.40625"/>
     <use xlink:href="#DejaVuSans-6e" x="777.685547"/>
     <use xlink:href="#DejaVuSans-64" x="841.064453"/>
    </g>
   </g>
   <g id="text_17">
    <!-- T_bottom -->
    <g style="fill: #4f46e5" transform="translate(759.60875 448.814344) scale(0.11 -0.11)">
     <defs>
      <path id="DejaVuSans-54" d="M -19 4666 
L 3928 4666 
L 3928 4134 
L 2272 4134 
L 2272 0 
L 1638 0 
L 1638 4134 
L -19 4134 
L -19 4666 
z
" transform="scale(0.015625)"/>
      <path id="DejaVuSans-5f" d="M 3263 -1063 
L 3263 -1509 
L -63 -1509 
L -63 -1063 
L 3263 -1063 
z
" transform="scale(0.015625)"/>
     </defs>
     <use xlink:href="#DejaVuSans-54"/>
     <use xlink:href="#DejaVuSans-5f" x="61.083984"/>
     <use xlink:href="#DejaVuSans-62" x="111.083984"/>
     <use xlink:href="#DejaVuSans-6f" x="174.560547"/>
     <use xlink:href="#DejaVuSans-74" x="235.742188"/>
     <use xlink:href="#DejaVuSans-74" x="274.951172"/>
     <use xlink:href="#DejaVuSans-6f" x="314.160156"/>
     <use xlink:href="#DejaVuSans-6d" x="375.341797"/>
    </g>
   </g>
   <g id="text_18">
    <!-- T_top -->
    <g style="fill: #4f46e5" transform="translate(770.487578 371.045375) scale(0.11 -0.11)">
     <use xlink:href="#DejaVuSans-54"/>
     <use xlink:href="#DejaVuSans-5f" x="61.083984"/>
     <use xlink:href="#DejaVuSans-74" x="111.083984"/>
     <use xlink:href="#DejaVuSans-6f" x="150.292969"/>
     <use xlink:href="#DejaVuSans-70" x="211.474609"/>
    </g>
   </g>
   <g id="text_19">
    <!-- voltage command -->
    <g style="fill: #4f46e5" transform="translate(515.39025 202.53525) scale(0.12 -0.12)">
     <use xlink:href="#DejaVuSans-76"/>
     <use xlink:href="#DejaVuSans-6f" x="59.179688"/>
     <use xlink:href="#DejaVuSans-6c" x="120.361328"/>
     <use xlink:href="#DejaVuSans-74" x="148.144531"/>
     <use xlink:href="#DejaVuSans-61" x="187.353516"/>
     <use xlink:href="#DejaVuSans-67" x="248.632812"/>
     <use xlink:href="#DejaVuSans-65" x="312.109375"/>
     <use xlink:href="#DejaVuSans-20" x="373.632812"/>
     <use xlink:href="#DejaVuSans-63" x="405.419922"/>
     <use xlink:href="#DejaVuSans-6f" x="460.400391"/>
     <use xlink:href="#DejaVuSans-6d" x="521.582031"/>
     <use xlink:href="#DejaVuSans-6d" x="618.994141"/>
     <use xlink:href="#DejaVuSans-61" x="716.40625"/>
     <use xlink:href="#DejaVuSans-6e" x="777.685547"/>
     <use xlink:href="#DejaVuSans-64" x="841.064453"/>
    </g>
   </g>
   <g id="text_20">
    <!-- Total system flow is split across four equal branches in the current model. -->
    <g style="fill: #374151" transform="translate(269.434219 574.259187) scale(0.13 -0.13)">
     <defs>
      <path id="DejaVuSans-71" d="M 947 1747 
Q 947 1113 1208 752 
Q 1469 391 1925 391 
Q 2381 391 2643 752 
Q 2906 1113 2906 1747 
Q 2906 2381 2643 2742 
Q 2381 3103 1925 3103 
Q 1469 3103 1208 2742 
Q 947 2381 947 1747 
z
M 2906 525 
Q 2725 213 2448 61 
Q 2172 -91 1784 -91 
Q 1150 -91 751 415 
Q 353 922 353 1747 
Q 353 2572 751 3078 
Q 1150 3584 1784 3584 
Q 2172 3584 2448 3432 
Q 2725 3281 2906 2969 
L 2906 3500 
L 3481 3500 
L 3481 -1331 
L 2906 -1331 
L 2906 525 
z
" transform="scale(0.015625)"/>
     </defs>
     <use xlink:href="#DejaVuSans-54"/>
     <use xlink:href="#DejaVuSans-6f" x="44.083984"/>
     <use xlink:href="#DejaVuSans-74" x="105.265625"/>
     <use xlink:href="#DejaVuSans-61" x="144.474609"/>
     <use xlink:href="#DejaVuSans-6c" x="205.753906"/>
     <use xlink:href="#DejaVuSans-20" x="233.537109"/>
     <use xlink:href="#DejaVuSans-73" x="265.324219"/>
     <use xlink:href="#DejaVuSans-79" x="317.423828"/>
     <use xlink:href="#DejaVuSans-73" x="376.603516"/>
     <use xlink:href="#DejaVuSans-74" x="428.703125"/>
     <use xlink:href="#DejaVuSans-65" x="467.912109"/>
     <use xlink:href="#DejaVuSans-6d" x="529.435547"/>
     <use xlink:href="#DejaVuSans-20" x="626.847656"/>
     <use xlink:href="#DejaVuSans-66" x="658.634766"/>
     <use xlink:href="#DejaVuSans-6c" x="693.839844"/>
     <use xlink:href="#DejaVuSans-6f" x="721.623047"/>
     <use xlink:href="#DejaVuSans-77" x="782.804688"/>
     <use xlink:href="#DejaVuSans-20" x="864.591797"/>
     <use xlink:href="#DejaVuSans-69" x="896.378906"/>
     <use xlink:href="#DejaVuSans-73" x="924.162109"/>
     <use xlink:href="#DejaVuSans-20" x="976.261719"/>
     <use xlink:href="#DejaVuSans-73" x="1008.048828"/>
     <use xlink:href="#DejaVuSans-70" x="1060.148438"/>
     <use xlink:href="#DejaVuSans-6c" x="1123.625"/>
     <use xlink:href="#DejaVuSans-69" x="1151.408203"/>
     <use xlink:href="#DejaVuSans-74" x="1179.191406"/>
     <use xlink:href="#DejaVuSans-20" x="1218.400391"/>
     <use xlink:href="#DejaVuSans-61" x="1250.1875"/>
     <use xlink:href="#DejaVuSans-63" x="1311.466797"/>
     <use xlink:href="#DejaVuSans-72" x="1366.447266"/>
     <use xlink:href="#DejaVuSans-6f" x="1405.310547"/>
     <use xlink:href="#DejaVuSans-73" x="1466.492188"/>
     <use xlink:href="#DejaVuSans-73" x="1518.591797"/>
     <use xlink:href="#DejaVuSans-20" x="1570.691406"/>
     <use xlink:href="#DejaVuSans-66" x="1602.478516"/>
     <use xlink:href="#DejaVuSans-6f" x="1637.683594"/>
     <use xlink:href="#DejaVuSans-75" x="1698.865234"/>
     <use xlink:href="#DejaVuSans-72" x="1762.244141"/>
     <use xlink:href="#DejaVuSans-20" x="1803.357422"/>
     <use xlink:href="#DejaVuSans-65" x="1835.144531"/>
     <use xlink:href="#DejaVuSans-71" x="1896.667969"/>
     <use xlink:href="#DejaVuSans-75" x="1960.144531"/>
     <use xlink:href="#DejaVuSans-61" x="2023.523438"/>
     <use xlink:href="#DejaVuSans-6c" x="2084.802734"/>
     <use xlink:href="#DejaVuSans-20" x="2112.585938"/>
     <use xlink:href="#DejaVuSans-62" x="2144.373047"/>
     <use xlink:href="#DejaVuSans-72" x="2207.849609"/>
     <use xlink:href="#DejaVuSans-61" x="2248.962891"/>
     <use xlink:href="#DejaVuSans-6e" x="2310.242188"/>
     <use xlink:href="#DejaVuSans-63" x="2373.621094"/>
     <use xlink:href="#DejaVuSans-68" x="2428.601562"/>
     <use xlink:href="#DejaVuSans-65" x="2491.980469"/>
     <use xlink:href="#DejaVuSans-73" x="2553.503906"/>
     <use xlink:href="#DejaVuSans-20" x="2605.603516"/>
     <use xlink:href="#DejaVuSans-69" x="2637.390625"/>
     <use xlink:href="#DejaVuSans-6e" x="2665.173828"/>
     <use xlink:href="#DejaVuSans-20" x="2728.552734"/>
     <use xlink:href="#DejaVuSans-74" x="2760.339844"/>
     <use xlink:href="#DejaVuSans-68" x="2799.548828"/>
     <use xlink:href="#DejaVuSans-65" x="2862.927734"/>
     <use xlink:href="#DejaVuSans-20" x="2924.451172"/>
     <use xlink:href="#DejaVuSans-63" x="2956.238281"/>
     <use xlink:href="#DejaVuSans-75" x="3011.21875"/>
     <use xlink:href="#DejaVuSans-72" x="3074.597656"/>
     <use xlink:href="#DejaVuSans-72" x="3113.960938"/>
     <use xlink:href="#DejaVuSans-65" x="3152.824219"/>
     <use xlink:href="#DejaVuSans-6e" x="3214.347656"/>
     <use xlink:href="#DejaVuSans-74" x="3277.726562"/>
     <use xlink:href="#DejaVuSans-20" x="3316.935547"/>
     <use xlink:href="#DejaVuSans-6d" x="3348.722656"/>
     <use xlink:href="#DejaVuSans-6f" x="3446.134766"/>
     <use xlink:href="#DejaVuSans-64" x="3507.316406"/>
     <use xlink:href="#DejaVuSans-65" x="3570.792969"/>
     <use xlink:href="#DejaVuSans-6c" x="3632.316406"/>
     <use xlink:href="#DejaVuSans-2e" x="3660.099609"/>
    </g>
   </g>
  </g>
  <g id="text_21">
   <!-- 01. Report Diagram: System Overview -->
   <g transform="translate(255.651563 23.916562) scale(0.22 -0.22)">
    <defs>
     <path id="DejaVuSans-Bold-30" d="M 2944 2338 
Q 2944 3213 2780 3570 
Q 2616 3928 2228 3928 
Q 1841 3928 1675 3570 
Q 1509 3213 1509 2338 
Q 1509 1453 1675 1090 
Q 1841 728 2228 728 
Q 2613 728 2778 1090 
Q 2944 1453 2944 2338 
z
M 4147 2328 
Q 4147 1169 3647 539 
Q 3147 -91 2228 -91 
Q 1306 -91 806 539 
Q 306 1169 306 2328 
Q 306 3491 806 4120 
Q 1306 4750 2228 4750 
Q 3147 4750 3647 4120 
Q 4147 3491 4147 2328 
z
" transform="scale(0.015625)"/>
     <path id="DejaVuSans-Bold-31" d="M 750 831 
L 1813 831 
L 1813 3847 
L 722 3622 
L 722 4441 
L 1806 4666 
L 2950 4666 
L 2950 831 
L 4013 831 
L 4013 0 
L 750 0 
L 750 831 
z
" transform="scale(0.015625)"/>
     <path id="DejaVuSans-Bold-2e" d="M 653 1209 
L 1778 1209 
L 1778 0 
L 653 0 
L 653 1209 
z
" transform="scale(0.015625)"/>
     <path id="DejaVuSans-Bold-20" transform="scale(0.015625)"/>
     <path id="DejaVuSans-Bold-52" d="M 2297 2597 
Q 2675 2597 2839 2737 
Q 3003 2878 3003 3200 
Q 3003 3519 2839 3656 
Q 2675 3794 2297 3794 
L 1791 3794 
L 1791 2597 
L 2297 2597 
z
M 1791 1766 
L 1791 0 
L 588 0 
L 588 4666 
L 2425 4666 
Q 3347 4666 3776 4356 
Q 4206 4047 4206 3378 
Q 4206 2916 3982 2619 
Q 3759 2322 3309 2181 
Q 3556 2125 3751 1926 
Q 3947 1728 4147 1325 
L 4800 0 
L 3519 0 
L 2950 1159 
Q 2778 1509 2601 1637 
Q 2425 1766 2131 1766 
L 1791 1766 
z
" transform="scale(0.015625)"/>
     <path id="DejaVuSans-Bold-65" d="M 4031 1759 
L 4031 1441 
L 1416 1441 
Q 1456 1047 1700 850 
Q 1944 653 2381 653 
Q 2734 653 3104 758 
Q 3475 863 3866 1075 
L 3866 213 
Q 3469 63 3072 -14 
Q 2675 -91 2278 -91 
Q 1328 -91 801 392 
Q 275 875 275 1747 
Q 275 2603 792 3093 
Q 1309 3584 2216 3584 
Q 3041 3584 3536 3087 
Q 4031 2591 4031 1759 
z
M 2881 2131 
Q 2881 2450 2695 2645 
Q 2509 2841 2209 2841 
Q 1884 2841 1681 2658 
Q 1478 2475 1428 2131 
L 2881 2131 
z
" transform="scale(0.015625)"/>
     <path id="DejaVuSans-Bold-70" d="M 1656 506 
L 1656 -1331 
L 538 -1331 
L 538 3500 
L 1656 3500 
L 1656 2988 
Q 1888 3294 2169 3439 
Q 2450 3584 2816 3584 
Q 3463 3584 3878 3070 
Q 4294 2556 4294 1747 
Q 4294 938 3878 423 
Q 3463 -91 2816 -91 
Q 2450 -91 2169 54 
Q 1888 200 1656 506 
z
M 2400 2772 
Q 2041 2772 1848 2508 
Q 1656 2244 1656 1747 
Q 1656 1250 1848 986 
Q 2041 722 2400 722 
Q 2759 722 2948 984 
Q 3138 1247 3138 1747 
Q 3138 2247 2948 2509 
Q 2759 2772 2400 2772 
z
" transform="scale(0.015625)"/>
     <path id="DejaVuSans-Bold-6f" d="M 2203 2784 
Q 1831 2784 1636 2517 
Q 1441 2250 1441 1747 
Q 1441 1244 1636 976 
Q 1831 709 2203 709 
Q 2569 709 2762 976 
Q 2956 1244 2956 1747 
Q 2956 2250 2762 2517 
Q 2569 2784 2203 2784 
z
M 2203 3584 
Q 3106 3584 3614 3096 
Q 4122 2609 4122 1747 
Q 4122 884 3614 396 
Q 3106 -91 2203 -91 
Q 1297 -91 786 396 
Q 275 884 275 1747 
Q 275 2609 786 3096 
Q 1297 3584 2203 3584 
z
" transform="scale(0.015625)"/>
     <path id="DejaVuSans-Bold-72" d="M 3138 2547 
Q 2991 2616 2845 2648 
Q 2700 2681 2553 2681 
Q 2122 2681 1889 2404 
Q 1656 2128 1656 1613 
L 1656 0 
L 538 0 
L 538 3500 
L 1656 3500 
L 1656 2925 
Q 1872 3269 2151 3426 
Q 2431 3584 2822 3584 
Q 2878 3584 2943 3579 
Q 3009 3575 3134 3559 
L 3138 2547 
z
" transform="scale(0.015625)"/>
     <path id="DejaVuSans-Bold-74" d="M 1759 4494 
L 1759 3500 
L 2913 3500 
L 2913 2700 
L 1759 2700 
L 1759 1216 
Q 1759 972 1856 886 
Q 1953 800 2241 800 
L 2816 800 
L 2816 0 
L 1856 0 
Q 1194 0 917 276 
Q 641 553 641 1216 
L 641 2700 
L 84 2700 
L 84 3500 
L 641 3500 
L 641 4494 
L 1759 4494 
z
" transform="scale(0.015625)"/>
     <path id="DejaVuSans-Bold-44" d="M 1791 3756 
L 1791 909 
L 2222 909 
Q 2959 909 3348 1275 
Q 3738 1641 3738 2338 
Q 3738 3031 3350 3393 
Q 2963 3756 2222 3756 
L 1791 3756 
z
M 588 4666 
L 1856 4666 
Q 2919 4666 3439 4514 
Q 3959 4363 4331 4000 
Q 4659 3684 4818 3271 
Q 4978 2859 4978 2338 
Q 4978 1809 4818 1395 
Q 4659 981 4331 666 
Q 3956 303 3431 151 
Q 2906 0 1856 0 
L 588 0 
L 588 4666 
z
" transform="scale(0.015625)"/>
     <path id="DejaVuSans-Bold-69" d="M 538 3500 
L 1656 3500 
L 1656 0 
L 538 0 
L 538 3500 
z
M 538 4863 
L 1656 4863 
L 1656 3950 
L 538 3950 
L 538 4863 
z
" transform="scale(0.015625)"/>
     <path id="DejaVuSans-Bold-61" d="M 2106 1575 
Q 1756 1575 1579 1456 
Q 1403 1338 1403 1106 
Q 1403 894 1545 773 
Q 1688 653 1941 653 
Q 2256 653 2472 879 
Q 2688 1106 2688 1447 
L 2688 1575 
L 2106 1575 
z
M 3816 1997 
L 3816 0 
L 2688 0 
L 2688 519 
Q 2463 200 2181 54 
Q 1900 -91 1497 -91 
Q 953 -91 614 226 
Q 275 544 275 1050 
Q 275 1666 698 1953 
Q 1122 2241 2028 2241 
L 2688 2241 
L 2688 2328 
Q 2688 2594 2478 2717 
Q 2269 2841 1825 2841 
Q 1466 2841 1156 2769 
Q 847 2697 581 2553 
L 581 3406 
Q 941 3494 1303 3539 
Q 1666 3584 2028 3584 
Q 2975 3584 3395 3211 
Q 3816 2838 3816 1997 
z
" transform="scale(0.015625)"/>
     <path id="DejaVuSans-Bold-67" d="M 2919 594 
Q 2688 288 2409 144 
Q 2131 0 1766 0 
Q 1125 0 706 504 
Q 288 1009 288 1791 
Q 288 2575 706 3076 
Q 1125 3578 1766 3578 
Q 2131 3578 2409 3434 
Q 2688 3291 2919 2981 
L 2919 3500 
L 4044 3500 
L 4044 353 
Q 4044 -491 3511 -936 
Q 2978 -1381 1966 -1381 
Q 1638 -1381 1331 -1331 
Q 1025 -1281 716 -1178 
L 716 -306 
Q 1009 -475 1290 -558 
Q 1572 -641 1856 -641 
Q 2406 -641 2662 -400 
Q 2919 -159 2919 353 
L 2919 594 
z
M 2181 2772 
Q 1834 2772 1640 2515 
Q 1447 2259 1447 1791 
Q 1447 1309 1634 1061 
Q 1822 813 2181 813 
Q 2531 813 2725 1069 
Q 2919 1325 2919 1791 
Q 2919 2259 2725 2515 
Q 2531 2772 2181 2772 
z
" transform="scale(0.015625)"/>
     <path id="DejaVuSans-Bold-6d" d="M 3781 2919 
Q 3994 3244 4286 3414 
Q 4578 3584 4928 3584 
Q 5531 3584 5847 3212 
Q 6163 2841 6163 2131 
L 6163 0 
L 5038 0 
L 5038 1825 
Q 5041 1866 5042 1909 
Q 5044 1953 5044 2034 
Q 5044 2406 4934 2573 
Q 4825 2741 4581 2741 
Q 4263 2741 4089 2478 
Q 3916 2216 3909 1719 
L 3909 0 
L 2784 0 
L 2784 1825 
Q 2784 2406 2684 2573 
Q 2584 2741 2328 2741 
Q 2006 2741 1831 2477 
Q 1656 2213 1656 1722 
L 1656 0 
L 531 0 
L 531 3500 
L 1656 3500 
L 1656 2988 
Q 1863 3284 2130 3434 
Q 2397 3584 2719 3584 
Q 3081 3584 3359 3409 
Q 3638 3234 3781 2919 
z
" transform="scale(0.015625)"/>
     <path id="DejaVuSans-Bold-3a" d="M 716 3500 
L 1844 3500 
L 1844 2291 
L 716 2291 
L 716 3500 
z
M 716 1209 
L 1844 1209 
L 1844 0 
L 716 0 
L 716 1209 
z
" transform="scale(0.015625)"/>
     <path id="DejaVuSans-Bold-53" d="M 3834 4519 
L 3834 3531 
Q 3450 3703 3084 3790 
Q 2719 3878 2394 3878 
Q 1963 3878 1756 3759 
Q 1550 3641 1550 3391 
Q 1550 3203 1689 3098 
Q 1828 2994 2194 2919 
L 2706 2816 
Q 3484 2659 3812 2340 
Q 4141 2022 4141 1434 
Q 4141 663 3683 286 
Q 3225 -91 2284 -91 
Q 1841 -91 1394 -6 
Q 947 78 500 244 
L 500 1259 
Q 947 1022 1364 901 
Q 1781 781 2169 781 
Q 2563 781 2772 912 
Q 2981 1044 2981 1288 
Q 2981 1506 2839 1625 
Q 2697 1744 2272 1838 
L 1806 1941 
Q 1106 2091 782 2419 
Q 459 2747 459 3303 
Q 459 4000 909 4375 
Q 1359 4750 2203 4750 
Q 2588 4750 2994 4692 
Q 3400 4634 3834 4519 
z
" transform="scale(0.015625)"/>
     <path id="DejaVuSans-Bold-79" d="M 78 3500 
L 1197 3500 
L 2138 1125 
L 2938 3500 
L 4056 3500 
L 2584 -331 
Q 2363 -916 2067 -1148 
Q 1772 -1381 1288 -1381 
L 641 -1381 
L 641 -647 
L 991 -647 
Q 1275 -647 1404 -556 
Q 1534 -466 1606 -231 
L 1638 -134 
L 78 3500 
z
" transform="scale(0.015625)"/>
     <path id="DejaVuSans-Bold-73" d="M 3272 3391 
L 3272 2541 
Q 2913 2691 2578 2766 
Q 2244 2841 1947 2841 
Q 1628 2841 1473 2761 
Q 1319 2681 1319 2516 
Q 1319 2381 1436 2309 
Q 1553 2238 1856 2203 
L 2053 2175 
Q 2913 2066 3209 1816 
Q 3506 1566 3506 1031 
Q 3506 472 3093 190 
Q 2681 -91 1863 -91 
Q 1516 -91 1145 -36 
Q 775 19 384 128 
L 384 978 
Q 719 816 1070 734 
Q 1422 653 1784 653 
Q 2113 653 2278 743 
Q 2444 834 2444 1013 
Q 2444 1163 2330 1236 
Q 2216 1309 1875 1350 
L 1678 1375 
Q 931 1469 631 1722 
Q 331 1975 331 2491 
Q 331 3047 712 3315 
Q 1094 3584 1881 3584 
Q 2191 3584 2531 3537 
Q 2872 3491 3272 3391 
z
" transform="scale(0.015625)"/>
     <path id="DejaVuSans-Bold-4f" d="M 2719 3878 
Q 2169 3878 1866 3472 
Q 1563 3066 1563 2328 
Q 1563 1594 1866 1187 
Q 2169 781 2719 781 
Q 3272 781 3575 1187 
Q 3878 1594 3878 2328 
Q 3878 3066 3575 3472 
Q 3272 3878 2719 3878 
z
M 2719 4750 
Q 3844 4750 4481 4106 
Q 5119 3463 5119 2328 
Q 5119 1197 4481 553 
Q 3844 -91 2719 -91 
Q 1597 -91 958 553 
Q 319 1197 319 2328 
Q 319 3463 958 4106 
Q 1597 4750 2719 4750 
z
" transform="scale(0.015625)"/>
     <path id="DejaVuSans-Bold-76" d="M 97 3500 
L 1216 3500 
L 2088 1081 
L 2956 3500 
L 4078 3500 
L 2700 0 
L 1472 0 
L 97 3500 
z
" transform="scale(0.015625)"/>
     <path id="DejaVuSans-Bold-77" d="M 225 3500 
L 1313 3500 
L 1900 1088 
L 2491 3500 
L 3425 3500 
L 4013 1113 
L 4603 3500 
L 5691 3500 
L 4769 0 
L 3547 0 
L 2956 2406 
L 2369 0 
L 1147 0 
L 225 3500 
z
" transform="scale(0.015625)"/>
    </defs>
    <use xlink:href="#DejaVuSans-Bold-30"/>
    <use xlink:href="#DejaVuSans-Bold-31" x="69.580078"/>
    <use xlink:href="#DejaVuSans-Bold-2e" x="139.160156"/>
    <use xlink:href="#DejaVuSans-Bold-20" x="177.148438"/>
    <use xlink:href="#DejaVuSans-Bold-52" x="211.962891"/>
    <use xlink:href="#DejaVuSans-Bold-65" x="288.964844"/>
    <use xlink:href="#DejaVuSans-Bold-70" x="356.787109"/>
    <use xlink:href="#DejaVuSans-Bold-6f" x="428.369141"/>
    <use xlink:href="#DejaVuSans-Bold-72" x="497.070312"/>
    <use xlink:href="#DejaVuSans-Bold-74" x="546.386719"/>
    <use xlink:href="#DejaVuSans-Bold-20" x="594.189453"/>
    <use xlink:href="#DejaVuSans-Bold-44" x="629.003906"/>
    <use xlink:href="#DejaVuSans-Bold-69" x="712.011719"/>
    <use xlink:href="#DejaVuSans-Bold-61" x="746.289062"/>
    <use xlink:href="#DejaVuSans-Bold-67" x="813.769531"/>
    <use xlink:href="#DejaVuSans-Bold-72" x="885.351562"/>
    <use xlink:href="#DejaVuSans-Bold-61" x="934.667969"/>
    <use xlink:href="#DejaVuSans-Bold-6d" x="1002.148438"/>
    <use xlink:href="#DejaVuSans-Bold-3a" x="1106.347656"/>
    <use xlink:href="#DejaVuSans-Bold-20" x="1146.337891"/>
    <use xlink:href="#DejaVuSans-Bold-53" x="1181.152344"/>
    <use xlink:href="#DejaVuSans-Bold-79" x="1253.173828"/>
    <use xlink:href="#DejaVuSans-Bold-73" x="1318.359375"/>
    <use xlink:href="#DejaVuSans-Bold-74" x="1377.880859"/>
    <use xlink:href="#DejaVuSans-Bold-65" x="1425.683594"/>
    <use xlink:href="#DejaVuSans-Bold-6d" x="1493.505859"/>
    <use xlink:href="#DejaVuSans-Bold-20" x="1597.705078"/>
    <use xlink:href="#DejaVuSans-Bold-4f" x="1632.519531"/>
    <use xlink:href="#DejaVuSans-Bold-76" x="1717.529297"/>
    <use xlink:href="#DejaVuSans-Bold-65" x="1782.714844"/>
    <use xlink:href="#DejaVuSans-Bold-72" x="1850.537109"/>
    <use xlink:href="#DejaVuSans-Bold-76" x="1899.853516"/>
    <use xlink:href="#DejaVuSans-Bold-69" x="1965.039062"/>
    <use xlink:href="#DejaVuSans-Bold-65" x="1999.316406"/>
    <use xlink:href="#DejaVuSans-Bold-77" x="2067.138672"/>
   </g>
  </g>
 </g>
 <defs>
  <clipPath id="p7bfbf2bfe2">
   <rect x="7.2" y="82.8" width="1004.4" height="554.4"/>
  </clipPath>
 </defs>
</svg>
