<?xml version="1.0" encoding="utf-8" standalone="no"?>
<!DOCTYPE svg PUBLIC "-//W3C//DTD SVG 1.1//EN"
  "http://www.w3.org/Graphics/SVG/1.1/DTD/svg11.dtd">
<svg xmlns:xlink="http://www.w3.org/1999/xlink" width="1018.8pt" height="644.4pt" viewBox="0 0 1018.8 644.4" xmlns="http://www.w3.org/2000/svg" version="1.1">
 <metadata>
  <rdf:RDF xmlns:dc="http://purl.org/dc/elements/1.1/" xmlns:cc="http://creativecommons.org/ns#" xmlns:rdf="http://www.w3.org/1999/02/22-rdf-syntax-ns#">
   <cc:Work>
    <dc:type rdf:resource="http://purl.org/dc/dcmitype/StillImage"/>
    <dc:date>2026-03-08T20:38:33.977656</dc:date>
    <dc:format>image/svg+xml</dc:format>
    <dc:creator>
     <cc:Agent>
      <dc:title>Matplotlib v3.9.4, https://matplotlib.org/</dc:title>
     </cc:Agent>
    </dc:creator>
   </cc:Work>
  </rdf:RDF>
 </metadata>
 <defs>
  <style type="text/css">*{stroke-linejoin: round; stroke-linecap: butt}</style>
 </defs>
 <g id="figure_1">
  <g id="patch_1">
   <path d="M 0 644.4 
L 1018.8 644.4 
L 1018.8 0 
L 0 0 
z
" style="fill: #ffffff"/>
  </g>
  <g id="axes_1">
   <g id="patch_2">
    <path d="M 57.42 407.124 
L 198.036 407.124 
Q 213.102 407.124 213.102 398.808 
L 213.102 343.368 
Q 213.102 335.052 198.036 335.052 
L 57.42 335.052 
Q 42.354 335.052 42.354 343.368 
L 42.354 398.808 
Q 42.354 407.124 57.42 407.124 
z
" clip-path="url(#p9285bf6c06)" style="fill: #dcfce7; stroke: #1f2937; stroke-width: 2.2; stroke-linejoin: miter"/>
   </g>
   <g id="patch_3">
    <path d="M 258.3 451.476 
L 800.676 451.476 
Q 815.742 451.476 815.742 443.16 
L 815.742 365.544 
Q 815.742 357.228 800.676 357.228 
L 258.3 357.228 
Q 243.234 357.228 243.234 365.544 
L 243.234 443.16 
Q 243.234 451.476 258.3 451.476 
z
" clip-path="url(#p9285bf6c06)" style="fill: #d1fae5; stroke: #1f2937; stroke-width: 2.2; stroke-linejoin: miter"/>
   </g>
   <g id="patch_4">
    <path d="M 210.076049 371.088 
Q 228.166317 371.088 243.573304 371.088 
" clip-path="url(#p9285bf6c06)" style="fill: none; stroke: #059669; stroke-width: 2.4; stroke-linecap: round"/>
    <path d="M 236.373304 367.488 
L 243.573304 371.088 
L 236.373304 374.688 
z
" clip-path="url(#p9285bf6c06)" style="fill: #059669; stroke: #059669; stroke-width: 2.4; stroke-linecap: round"/>
   </g>
   <g id="patch_5">
    <path d="M 348.696 406.45872 
C 349.708206 406.45872 350.679091 406.236743 351.394829 405.841676 
C 352.110566 405.446609 352.51272 404.910709 352.51272 404.352 
C 352.51272 403.793291 352.110566 403.257391 351.394829 402.862324 
C 350.679091 402.467257 349.708206 402.24528 348.696 402.24528 
C 347.683794 402.24528 346.712909 402.467257 345.997171 402.862324 
C 345.281434 403.257391 344.87928 403.793291 344.87928 404.352 
C 344.87928 404.910709 345.281434 405.446609 345.997171 405.841676 
C 346.712909 406.236743 347.683794 406.45872 348.696 406.45872 
z
" clip-path="url(#p9285bf6c06)" style="fill: #047857; stroke: #065f46; stroke-linejoin: miter"/>
   </g>
   <g id="patch_6">
    <path d="M 348.696 406.35385 
Q 348.696 437.61855 348.696 467.094395 
" clip-path="url(#p9285bf6c06)" style="fill: none; stroke: #10b981; stroke-width: 1.6; stroke-linecap: round"/>
    <path d="M 350.696 463.094395 
L 348.696 467.094395 
L 346.696 463.094395 
z
" clip-path="url(#p9285bf6c06)" style="fill: #10b981; stroke: #10b981; stroke-width: 1.6; stroke-linecap: round"/>
   </g>
   <g id="patch_7">
    <path d="M 429.048 406.45872 
C 430.060206 406.45872 431.031091 406.236743 431.746829 405.841676 
C 432.462566 405.446609 432.86472 404.910709 432.86472 404.352 
C 432.86472 403.793291 432.462566 403.257391 431.746829 402.862324 
C 431.031091 402.467257 430.060206 402.24528 429.048 402.24528 
C 428.035794 402.24528 427.064909 402.467257 426.349171 402.862324 
C 425.633434 403.257391 425.23128 403.793291 425.23128 404.352 
C 425.23128 404.910709 425.633434 405.446609 426.349171 405.841676 
C 427.064909 406.236743 428.035794 406.45872 429.048 406.45872 
z
" clip-path="url(#p9285bf6c06)" style="fill: #047857; stroke: #065f46; stroke-linejoin: miter"/>
   </g>
   <g id="patch_8">
    <path d="M 429.048 406.35385 
Q 429.048 437.61855 429.048 467.094395 
" clip-path="url(#p9285bf6c06)" style="fill: none; stroke: #10b981; stroke-width: 1.6; stroke-linecap: round"/>
    <path d="M 431.048 463.094395 
L 429.048 467.094395 
L 427.048 463.094395 
z
" clip-path="url(#p9285bf6c06)" style="fill: #10b981; stroke: #10b981; stroke-width: 1.6; stroke-linecap: round"/>
   </g>
   <g id="patch_9">
    <path d="M 509.4 406.45872 
C 510.412206 406.45872 511.383091 406.236743 512.098829 405.841676 
C 512.814566 405.446609 513.21672 404.910709 513.21672 404.352 
C 513.21672 403.793291 512.814566 403.257391 512.098829 402.862324 
C 511.383091 402.467257 510.412206 402.24528 509.4 402.24528 
C 508.387794 402.24528 507.416909 402.467257 506.701171 402.862324 
C 505.985434 403.257391 505.58328 403.793291 505.58328 404.352 
C 505.58328 404.910709 505.985434 405.446609 506.701171 405.841676 
C 507.416909 406.236743 508.387794 406.45872 509.4 406.45872 
z
" clip-path="url(#p9285bf6c06)" style="fill: #047857; stroke: #065f46; stroke-linejoin: miter"/>
   </g>
   <g id="patch_10">
    <path d="M 509.4 406.35385 
Q 509.4 437.61855 509.4 467.094395 
" clip-path="url(#p9285bf6c06)" style="fill: none; stroke: #10b981; stroke-width: 1.6; stroke-linecap: round"/>
    <path d="M 511.4 463.094395 
L 509.4 467.094395 
L 507.4 463.094395 
z
" clip-path="url(#p9285bf6c06)" style="fill: #10b981; stroke: #10b981; stroke-width: 1.6; stroke-linecap: round"/>
   </g>
   <g id="patch_11">
    <path d="M 589.752 406.45872 
C 590.764206 406.45872 591.735091 406.236743 592.450829 405.841676 
C 593.166566 405.446609 593.56872 404.910709 593.56872 404.352 
C 593.56872 403.793291 593.166566 403.257391 592.450829 402.862324 
C 591.735091 402.467257 590.764206 402.24528 589.752 402.24528 
C 588.739794 402.24528 587.768909 402.467257 587.053171 402.862324 
C 586.337434 403.257391 585.93528 403.793291 585.93528 404.352 
C 585.93528 404.910709 586.337434 405.446609 587.053171 405.841676 
C 587.768909 406.236743 588.739794 406.45872 589.752 406.45872 
z
" clip-path="url(#p9285bf6c06)" style="fill: #047857; stroke: #065f46; stroke-linejoin: miter"/>
   </g>
   <g id="patch_12">
    <path d="M 589.752 406.35385 
Q 589.752 437.61855 589.752 467.094395 
" clip-path="url(#p9285bf6c06)" style="fill: none; stroke: #10b981; stroke-width: 1.6; stroke-linecap: round"/>
    <path d="M 591.752 463.094395 
L 589.752 467.094395 
L 587.752 463.094395 
z
" clip-path="url(#p9285bf6c06)" style="fill: #10b981; stroke: #10b981; stroke-width: 1.6; stroke-linecap: round"/>
   </g>
   <g id="patch_13">
    <path d="M 670.104 406.45872 
C 671.116206 406.45872 672.087091 406.236743 672.802829 405.841676 
C 673.518566 405.446609 673.92072 404.910709 673.92072 404.352 
C 673.92072 403.793291 673.518566 403.257391 672.802829 402.862324 
C 672.087091 402.467257 671.116206 402.24528 670.104 402.24528 
C 669.091794 402.24528 668.120909 402.467257 667.405171 402.862324 
C 666.689434 403.257391 666.28728 403.793291 666.28728 404.352 
C 666.28728 404.910709 666.689434 405.446609 667.405171 405.841676 
C 668.120909 406.236743 669.091794 406.45872 670.104 406.45872 
z
" clip-path="url(#p9285bf6c06)" style="fill: #047857; stroke: #065f46; stroke-linejoin: miter"/>
   </g>
   <g id="patch_14">
    <path d="M 670.104 406.35385 
Q 670.104 437.61855 670.104 467.094395 
" clip-path="url(#p9285bf6c06)" style="fill: none; stroke: #10b981; stroke-width: 1.6; stroke-linecap: round"/>
    <path d="M 672.104 463.094395 
L 670.104 467.094395 
L 668.104 463.094395 
z
" clip-path="url(#p9285bf6c06)" style="fill: #10b981; stroke: #10b981; stroke-width: 1.6; stroke-linecap: round"/>
   </g>
   <g id="patch_15">
    <path d="M 750.456 406.45872 
C 751.468206 406.45872 752.439091 406.236743 753.154829 405.841676 
C 753.870566 405.446609 754.27272 404.910709 754.27272 404.352 
C 754.27272 403.793291 753.870566 403.257391 753.154829 402.862324 
C 752.439091 402.467257 751.468206 402.24528 750.456 402.24528 
C 749.443794 402.24528 748.472909 402.467257 747.757171 402.862324 
C 747.041434 403.257391 746.63928 403.793291 746.63928 404.352 
C 746.63928 404.910709 747.041434 405.446609 747.757171 405.841676 
C 748.472909 406.236743 749.443794 406.45872 750.456 406.45872 
z
" clip-path="url(#p9285bf6c06)" style="fill: #047857; stroke: #065f46; stroke-linejoin: miter"/>
   </g>
   <g id="patch_16">
    <path d="M 750.456 406.35385 
Q 750.456 437.61855 750.456 467.094395 
" clip-path="url(#p9285bf6c06)" style="fill: none; stroke: #10b981; stroke-width: 1.6; stroke-linecap: round"/>
    <path d="M 752.456 463.094395 
L 750.456 467.094395 
L 748.456 463.094395 
z
" clip-path="url(#p9285bf6c06)" style="fill: #10b981; stroke: #10b981; stroke-width: 1.6; stroke-linecap: round"/>
   </g>
   <g id="patch_17">
    <path d="M 117.684 274.068 
L 338.652 274.068 
Q 353.718 274.068 353.718 265.752 
L 353.718 177.048 
Q 353.718 168.732 338.652 168.732 
L 117.684 168.732 
Q 102.618 168.732 102.618 177.048 
L 102.618 265.752 
Q 102.618 274.068 117.684 274.068 
z
" clip-path="url(#p9285bf6c06)" style="fill: #e0f2fe; stroke: #1f2937; stroke-width: 2.2; stroke-linejoin: miter"/>
   </g>
   <g id="patch_18">
    <path d="M 398.916 274.068 
L 619.884 274.068 
Q 634.95 274.068 634.95 265.752 
L 634.95 177.048 
Q 634.95 168.732 619.884 168.732 
L 398.916 168.732 
Q 383.85 168.732 383.85 177.048 
L 383.85 265.752 
Q 383.85 274.068 398.916 274.068 
z
" clip-path="url(#p9285bf6c06)" style="fill: #fef3c7; stroke: #1f2937; stroke-width: 2.2; stroke-linejoin: miter"/>
   </g>
   <g id="patch_19">
    <path d="M 680.148 274.068 
L 901.116 274.068 
Q 916.182 274.068 916.182 265.752 
L 916.182 177.048 
Q 916.182 168.732 901.116 168.732 
L 680.148 168.732 
Q 665.082 168.732 665.082 177.048 
L 665.082 265.752 
Q 665.082 274.068 680.148 274.068 
z
" clip-path="url(#p9285bf6c06)" style="fill: #fee2e2; stroke: #1f2937; stroke-width: 2.2; stroke-linejoin: miter"/>
   </g>
   <g id="patch_20">
    <path d="M 229.922512 272.26444 
Q 288.433896 304.561047 344.596104 335.560975 
" clip-path="url(#p9285bf6c06)" style="fill: none; stroke: #0284c7; stroke-width: 2.4; stroke-linecap: round"/>
    <path d="M 340.03228 328.929874 
L 344.596104 335.560975 
L 336.552928 335.233374 
z
" clip-path="url(#p9285bf6c06)" style="fill: #0284c7; stroke: #0284c7; stroke-width: 2.4; stroke-linecap: round"/>
   </g>
   <g id="patch_21">
    <path d="M 509.4 273.29785 
Q 509.4 304.56255 509.4 333.143968 
" clip-path="url(#p9285bf6c06)" style="fill: none; stroke: #a16207; stroke-width: 2.4; stroke-linecap: round"/>
    <path d="M 513 325.943968 
L 509.4 333.143968 
L 505.8 325.943968 
z
" clip-path="url(#p9285bf6c06)" style="fill: #a16207; stroke: #a16207; stroke-width: 2.4; stroke-linecap: round"/>
   </g>
   <g id="patch_22">
    <path d="M 788.877488 272.26444 
Q 730.366104 304.561047 674.203896 335.560975 
" clip-path="url(#p9285bf6c06)" style="fill: none; stroke: #b91c1c; stroke-width: 2.4; stroke-linecap: round"/>
    <path d="M 682.247072 335.233374 
L 674.203896 335.560975 
L 678.76772 328.929874 
z
" clip-path="url(#p9285bf6c06)" style="fill: #b91c1c; stroke: #b91c1c; stroke-width: 2.4; stroke-linecap: round"/>
   </g>
   <g id="patch_23">
    <path d="M 218.124 584.532 
L 800.676 584.532 
Q 815.742 584.532 815.742 576.216 
L 815.742 509.688 
Q 815.742 501.372 800.676 501.372 
L 218.124 501.372 
Q 203.058 501.372 203.058 509.688 
L 203.058 576.216 
Q 203.058 584.532 218.124 584.532 
z
" clip-path="url(#p9285bf6c06)" style="fill: #ecfccb; stroke: #1f2937; stroke-width: 2.2; stroke-linejoin: miter"/>
   </g>
   <g id="patch_24">
    <path d="M 528.807529 450.582003 
Q 519.44432 476.423117 510.99521 499.741449 
" clip-path="url(#p9285bf6c06)" style="fill: none; stroke: #166534; stroke-width: 2.4; stroke-linecap: round"/>
    <path d="M 516.83266 494.198509 
L 510.99521 499.741449 
L 510.063328 491.745726 
z
" clip-path="url(#p9285bf6c06)" style="fill: #166534; stroke: #166534; stroke-width: 2.4; stroke-linecap: round"/>
   </g>
   <g id="text_1">
    <!-- Input from heater -->
    <g transform="translate(65.904875 358.884813) scale(0.14 -0.14)">
     <defs>
      <path id="DejaVuSans-49" d="M 628 4666 
L 1259 4666 
L 1259 0 
L 628 0 
L 628 4666 
z
" transform="scale(0.015625)"/>
      <path id="DejaVuSans-6e" d="M 3513 2113 
L 3513 0 
L 2938 0 
L 2938 2094 
Q 2938 2591 2744 2837 
Q 2550 3084 2163 3084 
Q 1697 3084 1428 2787 
Q 1159 2491 1159 1978 
L 1159 0 
L 581 0 
L 581 3500 
L 1159 3500 
L 1159 2956 
Q 1366 3272 1645 3428 
Q 1925 3584 2291 3584 
Q 2894 3584 3203 3211 
Q 3513 2838 3513 2113 
z
" transform="scale(0.015625)"/>
      <path id="DejaVuSans-70" d="M 1159 525 
L 1159 -1331 
L 581 -1331 
L 581 3500 
L 1159 3500 
L 1159 2969 
Q 1341 3281 1617 3432 
Q 1894 3584 2278 3584 
Q 2916 3584 3314 3078 
Q 3713 2572 3713 1747 
Q 3713 922 3314 415 
Q 2916 -91 2278 -91 
Q 1894 -91 1617 61 
Q 1341 213 1159 525 
z
M 3116 1747 
Q 3116 2381 2855 2742 
Q 2594 3103 2138 3103 
Q 1681 3103 1420 2742 
Q 1159 2381 1159 1747 
Q 1159 1113 1420 752 
Q 1681 391 2138 391 
Q 2594 391 2855 752 
Q 3116 1113 3116 1747 
z
" transform="scale(0.015625)"/>
      <path id="DejaVuSans-75" d="M 544 1381 
L 544 3500 
L 1119 3500 
L 1119 1403 
Q 1119 906 1312 657 
Q 1506 409 1894 409 
Q 2359 409 2629 706 
Q 2900 1003 2900 1516 
L 2900 3500 
L 3475 3500 
L 3475 0 
L 2900 0 
L 2900 538 
Q 2691 219 2414 64 
Q 2138 -91 1772 -91 
Q 1169 -91 856 284 
Q 544 659 544 1381 
z
M 1991 3584 
L 1991 3584 
z
" transform="scale(0.015625)"/>
      <path id="DejaVuSans-74" d="M 1172 4494 
L 1172 3500 
L 2356 3500 
L 2356 3053 
L 1172 3053 
L 1172 1153 
Q 1172 725 1289 603 
Q 1406 481 1766 481 
L 2356 481 
L 2356 0 
L 1766 0 
Q 1100 0 847 248 
Q 594 497 594 1153 
L 594 3053 
L 172 3053 
L 172 3500 
L 594 3500 
L 594 4494 
L 1172 4494 
z
" transform="scale(0.015625)"/>
      <path id="DejaVuSans-20" transform="scale(0.015625)"/>
      <path id="DejaVuSans-66" d="M 2375 4863 
L 2375 4384 
L 1825 4384 
Q 1516 4384 1395 4259 
Q 1275 4134 1275 3809 
L 1275 3500 
L 2222 3500 
L 2222 3053 
L 1275 3053 
L 1275 0 
L 697 0 
L 697 3053 
L 147 3053 
L 147 3500 
L 697 3500 
L 697 3744 
Q 697 4328 969 4595 
Q 1241 4863 1831 4863 
L 2375 4863 
z
" transform="scale(0.015625)"/>
      <path id="DejaVuSans-72" d="M 2631 2963 
Q 2534 3019 2420 3045 
Q 2306 3072 2169 3072 
Q 1681 3072 1420 2755 
Q 1159 2438 1159 1844 
L 1159 0 
L 581 0 
L 581 3500 
L 1159 3500 
L 1159 2956 
Q 1341 3275 1631 3429 
Q 1922 3584 2338 3584 
Q 2397 3584 2469 3576 
Q 2541 3569 2628 3553 
L 2631 2963 
z
" transform="scale(0.015625)"/>
      <path id="DejaVuSans-6f" d="M 1959 3097 
Q 1497 3097 1228 2736 
Q 959 2375 959 1747 
Q 959 1119 1226 758 
Q 1494 397 1959 397 
Q 2419 397 2687 759 
Q 2956 1122 2956 1747 
Q 2956 2369 2687 2733 
Q 2419 3097 1959 3097 
z
M 1959 3584 
Q 2709 3584 3137 3096 
Q 3566 2609 3566 1747 
Q 3566 888 3137 398 
Q 2709 -91 1959 -91 
Q 1206 -91 779 398 
Q 353 888 353 1747 
Q 353 2609 779 3096 
Q 1206 3584 1959 3584 
z
" transform="scale(0.015625)"/>
      <path id="DejaVuSans-6d" d="M 3328 2828 
Q 3544 3216 3844 3400 
Q 4144 3584 4550 3584 
Q 5097 3584 5394 3201 
Q 5691 2819 5691 2113 
L 5691 0 
L 5113 0 
L 5113 2094 
Q 5113 2597 4934 2840 
Q 4756 3084 4391 3084 
Q 3944 3084 3684 2787 
Q 3425 2491 3425 1978 
L 3425 0 
L 2847 0 
L 2847 2094 
Q 2847 2600 2669 2842 
Q 2491 3084 2119 3084 
Q 1678 3084 1418 2786 
Q 1159 2488 1159 1978 
L 1159 0 
L 581 0 
L 581 3500 
L 1159 3500 
L 1159 2956 
Q 1356 3278 1631 3431 
Q 1906 3584 2284 3584 
Q 2666 3584 2933 3390 
Q 3200 3197 3328 2828 
z
" transform="scale(0.015625)"/>
      <path id="DejaVuSans-68" d="M 3513 2113 
L 3513 0 
L 2938 0 
L 2938 2094 
Q 2938 2591 2744 2837 
Q 2550 3084 2163 3084 
Q 1697 3084 1428 2787 
Q 1159 2491 1159 1978 
L 1159 0 
L 581 0 
L 581 4863 
L 1159 4863 
L 1159 2956 
Q 1366 3272 1645 3428 
Q 1925 3584 2291 3584 
Q 2894 3584 3203 3211 
Q 3513 2838 3513 2113 
z
" transform="scale(0.015625)"/>
      <path id="DejaVuSans-65" d="M 3597 1894 
L 3597 1613 
L 953 1613 
Q 991 1019 1311 708 
Q 1631 397 2203 397 
Q 2534 397 2845 478 
Q 3156 559 3463 722 
L 3463 178 
Q 3153 47 2828 -22 
Q 2503 -91 2169 -91 
Q 1331 -91 842 396 
Q 353 884 353 1716 
Q 353 2575 817 3079 
Q 1281 3584 2069 3584 
Q 2775 3584 3186 3129 
Q 3597 2675 3597 1894 
z
M 3022 2063 
Q 3016 2534 2758 2815 
Q 2500 3097 2075 3097 
Q 1594 3097 1305 2825 
Q 1016 2553 972 2059 
L 3022 2063 
z
" transform="scale(0.015625)"/>
      <path id="DejaVuSans-61" d="M 2194 1759 
Q 1497 1759 1228 1600 
Q 959 1441 959 1056 
Q 959 750 1161 570 
Q 1363 391 1709 391 
Q 2188 391 2477 730 
Q 2766 1069 2766 1631 
L 2766 1759 
L 2194 1759 
z
M 3341 1997 
L 3341 0 
L 2766 0 
L 2766 531 
Q 2569 213 2275 61 
Q 1981 -91 1556 -91 
Q 1019 -91 701 211 
Q 384 513 384 1019 
Q 384 1609 779 1909 
Q 1175 2209 1959 2209 
L 2766 2209 
L 2766 2266 
Q 2766 2663 2505 2880 
Q 2244 3097 1772 3097 
Q 1472 3097 1187 3025 
Q 903 2953 641 2809 
L 641 3341 
Q 956 3463 1253 3523 
Q 1550 3584 1831 3584 
Q 2591 3584 2966 3190 
Q 3341 2797 3341 1997 
z
" transform="scale(0.015625)"/>
     </defs>
     <use xlink:href="#DejaVuSans-49"/>
     <use xlink:href="#DejaVuSans-6e" x="29.492188"/>
     <use xlink:href="#DejaVuSans-70" x="92.871094"/>
     <use xlink:href="#DejaVuSans-75" x="156.347656"/>
     <use xlink:href="#DejaVuSans-74" x="219.726562"/>
     <use xlink:href="#DejaVuSans-20" x="258.935547"/>
     <use xlink:href="#DejaVuSans-66" x="290.722656"/>
     <use xlink:href="#DejaVuSans-72" x="325.927734"/>
     <use xlink:href="#DejaVuSans-6f" x="364.791016"/>
     <use xlink:href="#DejaVuSans-6d" x="425.972656"/>
     <use xlink:href="#DejaVuSans-20" x="523.384766"/>
     <use xlink:href="#DejaVuSans-68" x="555.171875"/>
     <use xlink:href="#DejaVuSans-65" x="618.550781"/>
     <use xlink:href="#DejaVuSans-61" x="680.074219"/>
     <use xlink:href="#DejaVuSans-74" x="741.353516"/>
     <use xlink:href="#DejaVuSans-65" x="780.5625"/>
     <use xlink:href="#DejaVuSans-72" x="842.085938"/>
    </g>
    <!-- T_air,in,branch -->
    <g transform="translate(75.677531 374.56175) scale(0.14 -0.14)">
     <defs>
      <path id="DejaVuSans-54" d="M -19 4666 
L 3928 4666 
L 3928 4134 
L 2272 4134 
L 2272 0 
L 1638 0 
L 1638 4134 
L -19 4134 
L -19 4666 
z
" transform="scale(0.015625)"/>
      <path id="DejaVuSans-5f" d="M 3263 -1063 
L 3263 -1509 
L -63 -1509 
L -63 -1063 
L 3263 -1063 
z
" transform="scale(0.015625)"/>
      <path id="DejaVuSans-69" d="M 603 3500 
L 1178 3500 
L 1178 0 
L 603 0 
L 603 3500 
z
M 603 4863 
L 1178 4863 
L 1178 4134 
L 603 4134 
L 603 4863 
z
" transform="scale(0.015625)"/>
      <path id="DejaVuSans-2c" d="M 750 794 
L 1409 794 
L 1409 256 
L 897 -744 
L 494 -744 
L 750 256 
L 750 794 
z
" transform="scale(0.015625)"/>
      <path id="DejaVuSans-62" d="M 3116 1747 
Q 3116 2381 2855 2742 
Q 2594 3103 2138 3103 
Q 1681 3103 1420 2742 
Q 1159 2381 1159 1747 
Q 1159 1113 1420 752 
Q 1681 391 2138 391 
Q 2594 391 2855 752 
Q 3116 1113 3116 1747 
z
M 1159 2969 
Q 1341 3281 1617 3432 
Q 1894 3584 2278 3584 
Q 2916 3584 3314 3078 
Q 3713 2572 3713 1747 
Q 3713 922 3314 415 
Q 2916 -91 2278 -91 
Q 1894 -91 1617 61 
Q 1341 213 1159 525 
L 1159 0 
L 581 0 
L 581 4863 
L 1159 4863 
L 1159 2969 
z
" transform="scale(0.015625)"/>
      <path id="DejaVuSans-63" d="M 3122 3366 
L 3122 2828 
Q 2878 2963 2633 3030 
Q 2388 3097 2138 3097 
Q 1578 3097 1268 2742 
Q 959 2388 959 1747 
Q 959 1106 1268 751 
Q 1578 397 2138 397 
Q 2388 397 2633 464 
Q 2878 531 3122 666 
L 3122 134 
Q 2881 22 2623 -34 
Q 2366 -91 2075 -91 
Q 1284 -91 818 406 
Q 353 903 353 1747 
Q 353 2603 823 3093 
Q 1294 3584 2113 3584 
Q 2378 3584 2631 3529 
Q 2884 3475 3122 3366 
z
" transform="scale(0.015625)"/>
     </defs>
     <use xlink:href="#DejaVuSans-54"/>
     <use xlink:href="#DejaVuSans-5f" x="61.083984"/>
     <use xlink:href="#DejaVuSans-61" x="111.083984"/>
     <use xlink:href="#DejaVuSans-69" x="172.363281"/>
     <use xlink:href="#DejaVuSans-72" x="200.146484"/>
     <use xlink:href="#DejaVuSans-2c" x="241.259766"/>
     <use xlink:href="#DejaVuSans-69" x="273.046875"/>
     <use xlink:href="#DejaVuSans-6e" x="300.830078"/>
     <use xlink:href="#DejaVuSans-2c" x="364.208984"/>
     <use xlink:href="#DejaVuSans-62" x="395.996094"/>
     <use xlink:href="#DejaVuSans-72" x="459.472656"/>
     <use xlink:href="#DejaVuSans-61" x="500.585938"/>
     <use xlink:href="#DejaVuSans-6e" x="561.865234"/>
     <use xlink:href="#DejaVuSans-63" x="625.244141"/>
     <use xlink:href="#DejaVuSans-68" x="680.224609"/>
    </g>
    <!-- m_dot,branch -->
    <g transform="translate(79.380969 390.628063) scale(0.14 -0.14)">
     <defs>
      <path id="DejaVuSans-64" d="M 2906 2969 
L 2906 4863 
L 3481 4863 
L 3481 0 
L 2906 0 
L 2906 525 
Q 2725 213 2448 61 
Q 2172 -91 1784 -91 
Q 1150 -91 751 415 
Q 353 922 353 1747 
Q 353 2572 751 3078 
Q 1150 3584 1784 3584 
Q 2172 3584 2448 3432 
Q 2725 3281 2906 2969 
z
M 947 1747 
Q 947 1113 1208 752 
Q 1469 391 1925 391 
Q 2381 391 2643 752 
Q 2906 1113 2906 1747 
Q 2906 2381 2643 2742 
Q 2381 3103 1925 3103 
Q 1469 3103 1208 2742 
Q 947 2381 947 1747 
z
" transform="scale(0.015625)"/>
     </defs>
     <use xlink:href="#DejaVuSans-6d"/>
     <use xlink:href="#DejaVuSans-5f" x="97.412109"/>
     <use xlink:href="#DejaVuSans-64" x="147.412109"/>
     <use xlink:href="#DejaVuSans-6f" x="210.888672"/>
     <use xlink:href="#DejaVuSans-74" x="272.070312"/>
     <use xlink:href="#DejaVuSans-2c" x="311.279297"/>
     <use xlink:href="#DejaVuSans-62" x="343.066406"/>
     <use xlink:href="#DejaVuSans-72" x="406.542969"/>
     <use xlink:href="#DejaVuSans-61" x="447.65625"/>
     <use xlink:href="#DejaVuSans-6e" x="508.935547"/>
     <use xlink:href="#DejaVuSans-63" x="572.314453"/>
     <use xlink:href="#DejaVuSans-68" x="627.294922"/>
    </g>
   </g>
   <g id="text_2">
    <!-- Perforated aeration tube in the bed -->
    <g transform="translate(370.248469 409.318875) scale(0.18 -0.18)">
     <defs>
      <path id="DejaVuSans-50" d="M 1259 4147 
L 1259 2394 
L 2053 2394 
Q 2494 2394 2734 2622 
Q 2975 2850 2975 3272 
Q 2975 3691 2734 3919 
Q 2494 4147 2053 4147 
L 1259 4147 
z
M 628 4666 
L 2053 4666 
Q 2838 4666 3239 4311 
Q 3641 3956 3641 3272 
Q 3641 2581 3239 2228 
Q 2838 1875 2053 1875 
L 1259 1875 
L 1259 0 
L 628 0 
L 628 4666 
z
" transform="scale(0.015625)"/>
     </defs>
     <use xlink:href="#DejaVuSans-50"/>
     <use xlink:href="#DejaVuSans-65" x="56.677734"/>
     <use xlink:href="#DejaVuSans-72" x="118.201172"/>
     <use xlink:href="#DejaVuSans-66" x="159.314453"/>
     <use xlink:href="#DejaVuSans-6f" x="194.519531"/>
     <use xlink:href="#DejaVuSans-72" x="255.701172"/>
     <use xlink:href="#DejaVuSans-61" x="296.814453"/>
     <use xlink:href="#DejaVuSans-74" x="358.09375"/>
     <use xlink:href="#DejaVuSans-65" x="397.302734"/>
     <use xlink:href="#DejaVuSans-64" x="458.826172"/>
     <use xlink:href="#DejaVuSans-20" x="522.302734"/>
     <use xlink:href="#DejaVuSans-61" x="554.089844"/>
     <use xlink:href="#DejaVuSans-65" x="615.369141"/>
     <use xlink:href="#DejaVuSans-72" x="676.892578"/>
     <use xlink:href="#DejaVuSans-61" x="718.005859"/>
     <use xlink:href="#DejaVuSans-74" x="779.285156"/>
     <use xlink:href="#DejaVuSans-69" x="818.494141"/>
     <use xlink:href="#DejaVuSans-6f" x="846.277344"/>
     <use xlink:href="#DejaVuSans-6e" x="907.458984"/>
     <use xlink:href="#DejaVuSans-20" x="970.837891"/>
     <use xlink:href="#DejaVuSans-74" x="1002.625"/>
     <use xlink:href="#DejaVuSans-75" x="1041.833984"/>
     <use xlink:href="#DejaVuSans-62" x="1105.212891"/>
     <use xlink:href="#DejaVuSans-65" x="1168.689453"/>
     <use xlink:href="#DejaVuSans-20" x="1230.212891"/>
     <use xlink:href="#DejaVuSans-69" x="1262"/>
     <use xlink:href="#DejaVuSans-6e" x="1289.783203"/>
     <use xlink:href="#DejaVuSans-20" x="1353.162109"/>
     <use xlink:href="#DejaVuSans-74" x="1384.949219"/>
     <use xlink:href="#DejaVuSans-68" x="1424.158203"/>
     <use xlink:href="#DejaVuSans-65" x="1487.537109"/>
     <use xlink:href="#DejaVuSans-20" x="1549.060547"/>
     <use xlink:href="#DejaVuSans-62" x="1580.847656"/>
     <use xlink:href="#DejaVuSans-65" x="1644.324219"/>
     <use xlink:href="#DejaVuSans-64" x="1705.847656"/>
    </g>
   </g>
   <g id="text_3">
    <!-- abrupt expansion -->
    <g style="fill: #059669" transform="translate(180.028391 351.947313) scale(0.11 -0.11)">
     <defs>
      <path id="DejaVuSans-78" d="M 3513 3500 
L 2247 1797 
L 3578 0 
L 2900 0 
L 1881 1375 
L 863 0 
L 184 0 
L 1544 1831 
L 300 3500 
L 978 3500 
L 1906 2253 
L 2834 3500 
L 3513 3500 
z
" transform="scale(0.015625)"/>
      <path id="DejaVuSans-73" d="M 2834 3397 
L 2834 2853 
Q 2591 2978 2328 3040 
Q 2066 3103 1784 3103 
Q 1356 3103 1142 2972 
Q 928 2841 928 2578 
Q 928 2378 1081 2264 
Q 1234 2150 1697 2047 
L 1894 2003 
Q 2506 1872 2764 1633 
Q 3022 1394 3022 966 
Q 3022 478 2636 193 
Q 2250 -91 1575 -91 
Q 1294 -91 989 -36 
Q 684 19 347 128 
L 347 722 
Q 666 556 975 473 
Q 1284 391 1588 391 
Q 1994 391 2212 530 
Q 2431 669 2431 922 
Q 2431 1156 2273 1281 
Q 2116 1406 1581 1522 
L 1381 1569 
Q 847 1681 609 1914 
Q 372 2147 372 2553 
Q 372 3047 722 3315 
Q 1072 3584 1716 3584 
Q 2034 3584 2315 3537 
Q 2597 3491 2834 3397 
z
" transform="scale(0.015625)"/>
     </defs>
     <use xlink:href="#DejaVuSans-61"/>
     <use xlink:href="#DejaVuSans-62" x="61.279297"/>
     <use xlink:href="#DejaVuSans-72" x="124.755859"/>
     <use xlink:href="#DejaVuSans-75" x="165.869141"/>
     <use xlink:href="#DejaVuSans-70" x="229.248047"/>
     <use xlink:href="#DejaVuSans-74" x="292.724609"/>
     <use xlink:href="#DejaVuSans-20" x="331.933594"/>
     <use xlink:href="#DejaVuSans-65" x="363.720703"/>
     <use xlink:href="#DejaVuSans-78" x="423.494141"/>
     <use xlink:href="#DejaVuSans-70" x="482.673828"/>
     <use xlink:href="#DejaVuSans-61" x="546.150391"/>
     <use xlink:href="#DejaVuSans-6e" x="607.429688"/>
     <use xlink:href="#DejaVuSans-73" x="670.808594"/>
     <use xlink:href="#DejaVuSans-69" x="722.908203"/>
     <use xlink:href="#DejaVuSans-6f" x="750.691406"/>
     <use xlink:href="#DejaVuSans-6e" x="811.873047"/>
    </g>
   </g>
   <g id="text_4">
    <!-- Internal tube convection -->
    <g transform="translate(148.649641 195.330531) scale(0.13 -0.13)">
     <defs>
      <path id="DejaVuSans-6c" d="M 603 4863 
L 1178 4863 
L 1178 0 
L 603 0 
L 603 4863 
z
" transform="scale(0.015625)"/>
      <path id="DejaVuSans-76" d="M 191 3500 
L 800 3500 
L 1894 563 
L 2988 3500 
L 3597 3500 
L 2284 0 
L 1503 0 
L 191 3500 
z
" transform="scale(0.015625)"/>
     </defs>
     <use xlink:href="#DejaVuSans-49"/>
     <use xlink:href="#DejaVuSans-6e" x="29.492188"/>
     <use xlink:href="#DejaVuSans-74" x="92.871094"/>
     <use xlink:href="#DejaVuSans-65" x="132.080078"/>
     <use xlink:href="#DejaVuSans-72" x="193.603516"/>
     <use xlink:href="#DejaVuSans-6e" x="232.966797"/>
     <use xlink:href="#DejaVuSans-61" x="296.345703"/>
     <use xlink:href="#DejaVuSans-6c" x="357.625"/>
     <use xlink:href="#DejaVuSans-20" x="385.408203"/>
     <use xlink:href="#DejaVuSans-74" x="417.195312"/>
     <use xlink:href="#DejaVuSans-75" x="456.404297"/>
     <use xlink:href="#DejaVuSans-62" x="519.783203"/>
     <use xlink:href="#DejaVuSans-65" x="583.259766"/>
     <use xlink:href="#DejaVuSans-20" x="644.783203"/>
     <use xlink:href="#DejaVuSans-63" x="676.570312"/>
     <use xlink:href="#DejaVuSans-6f" x="731.550781"/>
     <use xlink:href="#DejaVuSans-6e" x="792.732422"/>
     <use xlink:href="#DejaVuSans-76" x="856.111328"/>
     <use xlink:href="#DejaVuSans-65" x="915.291016"/>
     <use xlink:href="#DejaVuSans-63" x="976.814453"/>
     <use xlink:href="#DejaVuSans-74" x="1031.794922"/>
     <use xlink:href="#DejaVuSans-69" x="1071.003906"/>
     <use xlink:href="#DejaVuSans-6f" x="1098.787109"/>
     <use xlink:href="#DejaVuSans-6e" x="1159.96875"/>
    </g>
    <!--  -->
    <g transform="translate(228.168 209.887688) scale(0.13 -0.13)"/>
    <!-- Re_tube -->
    <g transform="translate(201.900891 224.444844) scale(0.13 -0.13)">
     <defs>
      <path id="DejaVuSans-52" d="M 2841 2188 
Q 3044 2119 3236 1894 
Q 3428 1669 3622 1275 
L 4263 0 
L 3584 0 
L 2988 1197 
Q 2756 1666 2539 1819 
Q 2322 1972 1947 1972 
L 1259 1972 
L 1259 0 
L 628 0 
L 628 4666 
L 2053 4666 
Q 2853 4666 3247 4331 
Q 3641 3997 3641 3322 
Q 3641 2881 3436 2590 
Q 3231 2300 2841 2188 
z
M 1259 4147 
L 1259 2491 
L 2053 2491 
Q 2509 2491 2742 2702 
Q 2975 2913 2975 3322 
Q 2975 3731 2742 3939 
Q 2509 4147 2053 4147 
L 1259 4147 
z
" transform="scale(0.015625)"/>
     </defs>
     <use xlink:href="#DejaVuSans-52"/>
     <use xlink:href="#DejaVuSans-65" x="64.982422"/>
     <use xlink:href="#DejaVuSans-5f" x="126.505859"/>
     <use xlink:href="#DejaVuSans-74" x="176.505859"/>
     <use xlink:href="#DejaVuSans-75" x="215.714844"/>
     <use xlink:href="#DejaVuSans-62" x="279.09375"/>
     <use xlink:href="#DejaVuSans-65" x="342.570312"/>
    </g>
    <!-- Nu_tube -->
    <g transform="translate(201.142219 239.363563) scale(0.13 -0.13)">
     <defs>
      <path id="DejaVuSans-4e" d="M 628 4666 
L 1478 4666 
L 3547 763 
L 3547 4666 
L 4159 4666 
L 4159 0 
L 3309 0 
L 1241 3903 
L 1241 0 
L 628 0 
L 628 4666 
z
" transform="scale(0.015625)"/>
     </defs>
     <use xlink:href="#DejaVuSans-4e"/>
     <use xlink:href="#DejaVuSans-75" x="74.804688"/>
     <use xlink:href="#DejaVuSans-5f" x="138.183594"/>
     <use xlink:href="#DejaVuSans-74" x="188.183594"/>
     <use xlink:href="#DejaVuSans-75" x="227.392578"/>
     <use xlink:href="#DejaVuSans-62" x="290.771484"/>
     <use xlink:href="#DejaVuSans-65" x="354.248047"/>
    </g>
    <!-- h_inside = Nu k / D -->
    <g transform="translate(165.839094 254.282281) scale(0.13 -0.13)">
     <defs>
      <path id="DejaVuSans-3d" d="M 678 2906 
L 4684 2906 
L 4684 2381 
L 678 2381 
L 678 2906 
z
M 678 1631 
L 4684 1631 
L 4684 1100 
L 678 1100 
L 678 1631 
z
" transform="scale(0.015625)"/>
      <path id="DejaVuSans-6b" d="M 581 4863 
L 1159 4863 
L 1159 1991 
L 2875 3500 
L 3609 3500 
L 1753 1863 
L 3688 0 
L 2938 0 
L 1159 1709 
L 1159 0 
L 581 0 
L 581 4863 
z
" transform="scale(0.015625)"/>
      <path id="DejaVuSans-2f" d="M 1625 4666 
L 2156 4666 
L 531 -594 
L 0 -594 
L 1625 4666 
z
" transform="scale(0.015625)"/>
      <path id="DejaVuSans-44" d="M 1259 4147 
L 1259 519 
L 2022 519 
Q 2988 519 3436 956 
Q 3884 1394 3884 2338 
Q 3884 3275 3436 3711 
Q 2988 4147 2022 4147 
L 1259 4147 
z
M 628 4666 
L 1925 4666 
Q 3281 4666 3915 4102 
Q 4550 3538 4550 2338 
Q 4550 1131 3912 565 
Q 3275 0 1925 0 
L 628 0 
L 628 4666 
z
" transform="scale(0.015625)"/>
     </defs>
     <use xlink:href="#DejaVuSans-68"/>
     <use xlink:href="#DejaVuSans-5f" x="63.378906"/>
     <use xlink:href="#DejaVuSans-69" x="113.378906"/>
     <use xlink:href="#DejaVuSans-6e" x="141.162109"/>
     <use xlink:href="#DejaVuSans-73" x="204.541016"/>
     <use xlink:href="#DejaVuSans-69" x="256.640625"/>
     <use xlink:href="#DejaVuSans-64" x="284.423828"/>
     <use xlink:href="#DejaVuSans-65" x="347.900391"/>
     <use xlink:href="#DejaVuSans-20" x="409.423828"/>
     <use xlink:href="#DejaVuSans-3d" x="441.210938"/>
     <use xlink:href="#DejaVuSans-20" x="525"/>
     <use xlink:href="#DejaVuSans-4e" x="556.787109"/>
     <use xlink:href="#DejaVuSans-75" x="631.591797"/>
     <use xlink:href="#DejaVuSans-20" x="694.970703"/>
     <use xlink:href="#DejaVuSans-6b" x="726.757812"/>
     <use xlink:href="#DejaVuSans-20" x="784.667969"/>
     <use xlink:href="#DejaVuSans-2f" x="816.455078"/>
     <use xlink:href="#DejaVuSans-20" x="850.146484"/>
     <use xlink:href="#DejaVuSans-44" x="881.933594"/>
    </g>
   </g>
   <g id="text_5">
    <!-- Wall transfer to bed -->
    <g transform="translate(445.148516 195.511313) scale(0.13 -0.13)">
     <defs>
      <path id="DejaVuSans-57" d="M 213 4666 
L 850 4666 
L 1831 722 
L 2809 4666 
L 3519 4666 
L 4500 722 
L 5478 4666 
L 6119 4666 
L 4947 0 
L 4153 0 
L 3169 4050 
L 2175 0 
L 1381 0 
L 213 4666 
z
" transform="scale(0.015625)"/>
     </defs>
     <use xlink:href="#DejaVuSans-57"/>
     <use xlink:href="#DejaVuSans-61" x="92.501953"/>
     <use xlink:href="#DejaVuSans-6c" x="153.78125"/>
     <use xlink:href="#DejaVuSans-6c" x="181.564453"/>
     <use xlink:href="#DejaVuSans-20" x="209.347656"/>
     <use xlink:href="#DejaVuSans-74" x="241.134766"/>
     <use xlink:href="#DejaVuSans-72" x="280.34375"/>
     <use xlink:href="#DejaVuSans-61" x="321.457031"/>
     <use xlink:href="#DejaVuSans-6e" x="382.736328"/>
     <use xlink:href="#DejaVuSans-73" x="446.115234"/>
     <use xlink:href="#DejaVuSans-66" x="498.214844"/>
     <use xlink:href="#DejaVuSans-65" x="533.419922"/>
     <use xlink:href="#DejaVuSans-72" x="594.943359"/>
     <use xlink:href="#DejaVuSans-20" x="636.056641"/>
     <use xlink:href="#DejaVuSans-74" x="667.84375"/>
     <use xlink:href="#DejaVuSans-6f" x="707.052734"/>
     <use xlink:href="#DejaVuSans-20" x="768.234375"/>
     <use xlink:href="#DejaVuSans-62" x="800.021484"/>
     <use xlink:href="#DejaVuSans-65" x="863.498047"/>
     <use xlink:href="#DejaVuSans-64" x="925.021484"/>
    </g>
    <!--  -->
    <g transform="translate(509.4 210.068469) scale(0.13 -0.13)"/>
    <!-- U from inside h, wall k, -->
    <g transform="translate(435.022734 224.625625) scale(0.13 -0.13)">
     <defs>
      <path id="DejaVuSans-55" d="M 556 4666 
L 1191 4666 
L 1191 1831 
Q 1191 1081 1462 751 
Q 1734 422 2344 422 
Q 2950 422 3222 751 
Q 3494 1081 3494 1831 
L 3494 4666 
L 4128 4666 
L 4128 1753 
Q 4128 841 3676 375 
Q 3225 -91 2344 -91 
Q 1459 -91 1007 375 
Q 556 841 556 1753 
L 556 4666 
z
" transform="scale(0.015625)"/>
      <path id="DejaVuSans-77" d="M 269 3500 
L 844 3500 
L 1563 769 
L 2278 3500 
L 2956 3500 
L 3675 769 
L 4391 3500 
L 4966 3500 
L 4050 0 
L 3372 0 
L 2619 2869 
L 1863 0 
L 1184 0 
L 269 3500 
z
" transform="scale(0.015625)"/>
     </defs>
     <use xlink:href="#DejaVuSans-55"/>
     <use xlink:href="#DejaVuSans-20" x="73.193359"/>
     <use xlink:href="#DejaVuSans-66" x="104.980469"/>
     <use xlink:href="#DejaVuSans-72" x="140.185547"/>
     <use xlink:href="#DejaVuSans-6f" x="179.048828"/>
     <use xlink:href="#DejaVuSans-6d" x="240.230469"/>
     <use xlink:href="#DejaVuSans-20" x="337.642578"/>
     <use xlink:href="#DejaVuSans-69" x="369.429688"/>
     <use xlink:href="#DejaVuSans-6e" x="397.212891"/>
     <use xlink:href="#DejaVuSans-73" x="460.591797"/>
     <use xlink:href="#DejaVuSans-69" x="512.691406"/>
     <use xlink:href="#DejaVuSans-64" x="540.474609"/>
     <use xlink:href="#DejaVuSans-65" x="603.951172"/>
     <use xlink:href="#DejaVuSans-20" x="665.474609"/>
     <use xlink:href="#DejaVuSans-68" x="697.261719"/>
     <use xlink:href="#DejaVuSans-2c" x="760.640625"/>
     <use xlink:href="#DejaVuSans-20" x="792.427734"/>
     <use xlink:href="#DejaVuSans-77" x="824.214844"/>
     <use xlink:href="#DejaVuSans-61" x="906.001953"/>
     <use xlink:href="#DejaVuSans-6c" x="967.28125"/>
     <use xlink:href="#DejaVuSans-6c" x="995.064453"/>
     <use xlink:href="#DejaVuSans-20" x="1022.847656"/>
     <use xlink:href="#DejaVuSans-6b" x="1054.634766"/>
     <use xlink:href="#DejaVuSans-2c" x="1112.544922"/>
    </g>
    <!-- outside h_bed -->
    <g transform="translate(463.749688 239.182781) scale(0.13 -0.13)">
     <use xlink:href="#DejaVuSans-6f"/>
     <use xlink:href="#DejaVuSans-75" x="61.181641"/>
     <use xlink:href="#DejaVuSans-74" x="124.560547"/>
     <use xlink:href="#DejaVuSans-73" x="163.769531"/>
     <use xlink:href="#DejaVuSans-69" x="215.869141"/>
     <use xlink:href="#DejaVuSans-64" x="243.652344"/>
     <use xlink:href="#DejaVuSans-65" x="307.128906"/>
     <use xlink:href="#DejaVuSans-20" x="368.652344"/>
     <use xlink:href="#DejaVuSans-68" x="400.439453"/>
     <use xlink:href="#DejaVuSans-5f" x="463.818359"/>
     <use xlink:href="#DejaVuSans-62" x="513.818359"/>
     <use xlink:href="#DejaVuSans-65" x="577.294922"/>
     <use xlink:href="#DejaVuSans-64" x="638.818359"/>
    </g>
    <!-- q_wall = U P dx (T_air - T_bed) -->
    <g transform="translate(409.984531 254.1015) scale(0.13 -0.13)">
     <defs>
      <path id="DejaVuSans-71" d="M 947 1747 
Q 947 1113 1208 752 
Q 1469 391 1925 391 
Q 2381 391 2643 752 
Q 2906 1113 2906 1747 
Q 2906 2381 2643 2742 
Q 2381 3103 1925 3103 
Q 1469 3103 1208 2742 
Q 947 2381 947 1747 
z
M 2906 525 
Q 2725 213 2448 61 
Q 2172 -91 1784 -91 
Q 1150 -91 751 415 
Q 353 922 353 1747 
Q 353 2572 751 3078 
Q 1150 3584 1784 3584 
Q 2172 3584 2448 3432 
Q 2725 3281 2906 2969 
L 2906 3500 
L 3481 3500 
L 3481 -1331 
L 2906 -1331 
L 2906 525 
z
" transform="scale(0.015625)"/>
      <path id="DejaVuSans-28" d="M 1984 4856 
Q 1566 4138 1362 3434 
Q 1159 2731 1159 2009 
Q 1159 1288 1364 580 
Q 1569 -128 1984 -844 
L 1484 -844 
Q 1016 -109 783 600 
Q 550 1309 550 2009 
Q 550 2706 781 3412 
Q 1013 4119 1484 4856 
L 1984 4856 
z
" transform="scale(0.015625)"/>
      <path id="DejaVuSans-2d" d="M 313 2009 
L 1997 2009 
L 1997 1497 
L 313 1497 
L 313 2009 
z
" transform="scale(0.015625)"/>
      <path id="DejaVuSans-29" d="M 513 4856 
L 1013 4856 
Q 1481 4119 1714 3412 
Q 1947 2706 1947 2009 
Q 1947 1309 1714 600 
Q 1481 -109 1013 -844 
L 513 -844 
Q 928 -128 1133 580 
Q 1338 1288 1338 2009 
Q 1338 2731 1133 3434 
Q 928 4138 513 4856 
z
" transform="scale(0.015625)"/>
     </defs>
     <use xlink:href="#DejaVuSans-71"/>
     <use xlink:href="#DejaVuSans-5f" x="63.476562"/>
     <use xlink:href="#DejaVuSans-77" x="113.476562"/>
     <use xlink:href="#DejaVuSans-61" x="195.263672"/>
     <use xlink:href="#DejaVuSans-6c" x="256.542969"/>
     <use xlink:href="#DejaVuSans-6c" x="284.326172"/>
     <use xlink:href="#DejaVuSans-20" x="312.109375"/>
     <use xlink:href="#DejaVuSans-3d" x="343.896484"/>
     <use xlink:href="#DejaVuSans-20" x="427.685547"/>
     <use xlink:href="#DejaVuSans-55" x="459.472656"/>
     <use xlink:href="#DejaVuSans-20" x="532.666016"/>
     <use xlink:href="#DejaVuSans-50" x="564.453125"/>
     <use xlink:href="#DejaVuSans-20" x="624.755859"/>
     <use xlink:href="#DejaVuSans-64" x="656.542969"/>
     <use xlink:href="#DejaVuSans-78" x="720.019531"/>
     <use xlink:href="#DejaVuSans-20" x="779.199219"/>
     <use xlink:href="#DejaVuSans-28" x="810.986328"/>
     <use xlink:href="#DejaVuSans-54" x="850"/>
     <use xlink:href="#DejaVuSans-5f" x="911.083984"/>
     <use xlink:href="#DejaVuSans-61" x="961.083984"/>
     <use xlink:href="#DejaVuSans-69" x="1022.363281"/>
     <use xlink:href="#DejaVuSans-72" x="1050.146484"/>
     <use xlink:href="#DejaVuSans-20" x="1091.259766"/>
     <use xlink:href="#DejaVuSans-2d" x="1123.046875"/>
     <use xlink:href="#DejaVuSans-20" x="1159.130859"/>
     <use xlink:href="#DejaVuSans-54" x="1190.917969"/>
     <use xlink:href="#DejaVuSans-5f" x="1252.001953"/>
     <use xlink:href="#DejaVuSans-62" x="1302.001953"/>
     <use xlink:href="#DejaVuSans-65" x="1365.478516"/>
     <use xlink:href="#DejaVuSans-64" x="1427.001953"/>
     <use xlink:href="#DejaVuSans-29" x="1490.478516"/>
    </g>
   </g>
   <g id="text_6">
    <!-- Released jet enthalpy -->
    <g transform="translate(720.073484 202.789891) scale(0.13 -0.13)">
     <defs>
      <path id="DejaVuSans-6a" d="M 603 3500 
L 1178 3500 
L 1178 -63 
Q 1178 -731 923 -1031 
Q 669 -1331 103 -1331 
L -116 -1331 
L -116 -844 
L 38 -844 
Q 366 -844 484 -692 
Q 603 -541 603 -63 
L 603 3500 
z
M 603 4863 
L 1178 4863 
L 1178 4134 
L 603 4134 
L 603 4863 
z
" transform="scale(0.015625)"/>
      <path id="DejaVuSans-79" d="M 2059 -325 
Q 1816 -950 1584 -1140 
Q 1353 -1331 966 -1331 
L 506 -1331 
L 506 -850 
L 844 -850 
Q 1081 -850 1212 -737 
Q 1344 -625 1503 -206 
L 1606 56 
L 191 3500 
L 800 3500 
L 1894 763 
L 2988 3500 
L 3597 3500 
L 2059 -325 
z
" transform="scale(0.015625)"/>
     </defs>
     <use xlink:href="#DejaVuSans-52"/>
     <use xlink:href="#DejaVuSans-65" x="64.982422"/>
     <use xlink:href="#DejaVuSans-6c" x="126.505859"/>
     <use xlink:href="#DejaVuSans-65" x="154.289062"/>
     <use xlink:href="#DejaVuSans-61" x="215.8125"/>
     <use xlink:href="#DejaVuSans-73" x="277.091797"/>
     <use xlink:href="#DejaVuSans-65" x="329.191406"/>
     <use xlink:href="#DejaVuSans-64" x="390.714844"/>
     <use xlink:href="#DejaVuSans-20" x="454.191406"/>
     <use xlink:href="#DejaVuSans-6a" x="485.978516"/>
     <use xlink:href="#DejaVuSans-65" x="513.761719"/>
     <use xlink:href="#DejaVuSans-74" x="575.285156"/>
     <use xlink:href="#DejaVuSans-20" x="614.494141"/>
     <use xlink:href="#DejaVuSans-65" x="646.28125"/>
     <use xlink:href="#DejaVuSans-6e" x="707.804688"/>
     <use xlink:href="#DejaVuSans-74" x="771.183594"/>
     <use xlink:href="#DejaVuSans-68" x="810.392578"/>
     <use xlink:href="#DejaVuSans-61" x="873.771484"/>
     <use xlink:href="#DejaVuSans-6c" x="935.050781"/>
     <use xlink:href="#DejaVuSans-70" x="962.833984"/>
     <use xlink:href="#DejaVuSans-79" x="1026.310547"/>
    </g>
    <!--  -->
    <g transform="translate(790.632 217.347047) scale(0.13 -0.13)"/>
    <!-- q_jet = m_dot_release c_p -->
    <g transform="translate(705.1245 231.904203) scale(0.13 -0.13)">
     <use xlink:href="#DejaVuSans-71"/>
     <use xlink:href="#DejaVuSans-5f" x="63.476562"/>
     <use xlink:href="#DejaVuSans-6a" x="113.476562"/>
     <use xlink:href="#DejaVuSans-65" x="141.259766"/>
     <use xlink:href="#DejaVuSans-74" x="202.783203"/>
     <use xlink:href="#DejaVuSans-20" x="241.992188"/>
     <use xlink:href="#DejaVuSans-3d" x="273.779297"/>
     <use xlink:href="#DejaVuSans-20" x="357.568359"/>
     <use xlink:href="#DejaVuSans-6d" x="389.355469"/>
     <use xlink:href="#DejaVuSans-5f" x="486.767578"/>
     <use xlink:href="#DejaVuSans-64" x="536.767578"/>
     <use xlink:href="#DejaVuSans-6f" x="600.244141"/>
     <use xlink:href="#DejaVuSans-74" x="661.425781"/>
     <use xlink:href="#DejaVuSans-5f" x="700.634766"/>
     <use xlink:href="#DejaVuSans-72" x="750.634766"/>
     <use xlink:href="#DejaVuSans-65" x="789.498047"/>
     <use xlink:href="#DejaVuSans-6c" x="851.021484"/>
     <use xlink:href="#DejaVuSans-65" x="878.804688"/>
     <use xlink:href="#DejaVuSans-61" x="940.328125"/>
     <use xlink:href="#DejaVuSans-73" x="1001.607422"/>
     <use xlink:href="#DejaVuSans-65" x="1053.707031"/>
     <use xlink:href="#DejaVuSans-20" x="1115.230469"/>
     <use xlink:href="#DejaVuSans-63" x="1147.017578"/>
     <use xlink:href="#DejaVuSans-5f" x="1201.998047"/>
     <use xlink:href="#DejaVuSans-70" x="1251.998047"/>
    </g>
    <!-- (T_air - T_bed) -->
    <g transform="translate(743.9295 246.822922) scale(0.13 -0.13)">
     <use xlink:href="#DejaVuSans-28"/>
     <use xlink:href="#DejaVuSans-54" x="39.013672"/>
     <use xlink:href="#DejaVuSans-5f" x="100.097656"/>
     <use xlink:href="#DejaVuSans-61" x="150.097656"/>
     <use xlink:href="#DejaVuSans-69" x="211.376953"/>
     <use xlink:href="#DejaVuSans-72" x="239.160156"/>
     <use xlink:href="#DejaVuSans-20" x="280.273438"/>
     <use xlink:href="#DejaVuSans-2d" x="312.060547"/>
     <use xlink:href="#DejaVuSans-20" x="348.144531"/>
     <use xlink:href="#DejaVuSans-54" x="379.931641"/>
     <use xlink:href="#DejaVuSans-5f" x="441.015625"/>
     <use xlink:href="#DejaVuSans-62" x="491.015625"/>
     <use xlink:href="#DejaVuSans-65" x="554.492188"/>
     <use xlink:href="#DejaVuSans-64" x="616.015625"/>
     <use xlink:href="#DejaVuSans-29" x="679.492188"/>
    </g>
   </g>
   <g id="text_7">
    <!-- Branch outputs -->
    <g transform="translate(455.749375 522.910344) scale(0.14 -0.14)">
     <defs>
      <path id="DejaVuSans-42" d="M 1259 2228 
L 1259 519 
L 2272 519 
Q 2781 519 3026 730 
Q 3272 941 3272 1375 
Q 3272 1813 3026 2020 
Q 2781 2228 2272 2228 
L 1259 2228 
z
M 1259 4147 
L 1259 2741 
L 2194 2741 
Q 2656 2741 2882 2914 
Q 3109 3088 3109 3444 
Q 3109 3797 2882 3972 
Q 2656 4147 2194 4147 
L 1259 4147 
z
M 628 4666 
L 2241 4666 
Q 2963 4666 3353 4366 
Q 3744 4066 3744 3513 
Q 3744 3084 3544 2831 
Q 3344 2578 2956 2516 
Q 3422 2416 3680 2098 
Q 3938 1781 3938 1306 
Q 3938 681 3513 340 
Q 3088 0 2303 0 
L 628 0 
L 628 4666 
z
" transform="scale(0.015625)"/>
     </defs>
     <use xlink:href="#DejaVuSans-42"/>
     <use xlink:href="#DejaVuSans-72" x="68.603516"/>
     <use xlink:href="#DejaVuSans-61" x="109.716797"/>
     <use xlink:href="#DejaVuSans-6e" x="170.996094"/>
     <use xlink:href="#DejaVuSans-63" x="234.375"/>
     <use xlink:href="#DejaVuSans-68" x="289.355469"/>
     <use xlink:href="#DejaVuSans-20" x="352.734375"/>
     <use xlink:href="#DejaVuSans-6f" x="384.521484"/>
     <use xlink:href="#DejaVuSans-75" x="445.703125"/>
     <use xlink:href="#DejaVuSans-74" x="509.082031"/>
     <use xlink:href="#DejaVuSans-70" x="548.291016"/>
     <use xlink:href="#DejaVuSans-75" x="611.767578"/>
     <use xlink:href="#DejaVuSans-74" x="675.146484"/>
     <use xlink:href="#DejaVuSans-73" x="714.355469"/>
    </g>
    <!--  -->
    <g transform="translate(509.4 538.587281) scale(0.14 -0.14)"/>
    <!-- Q_to_bed,branch = sum(q_wall + q_jet) -->
    <g transform="translate(370.328594 554.264219) scale(0.14 -0.14)">
     <defs>
      <path id="DejaVuSans-51" d="M 2522 4238 
Q 1834 4238 1429 3725 
Q 1025 3213 1025 2328 
Q 1025 1447 1429 934 
Q 1834 422 2522 422 
Q 3209 422 3611 934 
Q 4013 1447 4013 2328 
Q 4013 3213 3611 3725 
Q 3209 4238 2522 4238 
z
M 3406 84 
L 4238 -825 
L 3475 -825 
L 2784 -78 
Q 2681 -84 2626 -87 
Q 2572 -91 2522 -91 
Q 1538 -91 948 567 
Q 359 1225 359 2328 
Q 359 3434 948 4092 
Q 1538 4750 2522 4750 
Q 3503 4750 4090 4092 
Q 4678 3434 4678 2328 
Q 4678 1516 4351 937 
Q 4025 359 3406 84 
z
" transform="scale(0.015625)"/>
      <path id="DejaVuSans-2b" d="M 2944 4013 
L 2944 2272 
L 4684 2272 
L 4684 1741 
L 2944 1741 
L 2944 0 
L 2419 0 
L 2419 1741 
L 678 1741 
L 678 2272 
L 2419 2272 
L 2419 4013 
L 2944 4013 
z
" transform="scale(0.015625)"/>
     </defs>
     <use xlink:href="#DejaVuSans-51"/>
     <use xlink:href="#DejaVuSans-5f" x="78.710938"/>
     <use xlink:href="#DejaVuSans-74" x="128.710938"/>
     <use xlink:href="#DejaVuSans-6f" x="167.919922"/>
     <use xlink:href="#DejaVuSans-5f" x="229.101562"/>
     <use xlink:href="#DejaVuSans-62" x="279.101562"/>
     <use xlink:href="#DejaVuSans-65" x="342.578125"/>
     <use xlink:href="#DejaVuSans-64" x="404.101562"/>
     <use xlink:href="#DejaVuSans-2c" x="467.578125"/>
     <use xlink:href="#DejaVuSans-62" x="499.365234"/>
     <use xlink:href="#DejaVuSans-72" x="562.841797"/>
     <use xlink:href="#DejaVuSans-61" x="603.955078"/>
     <use xlink:href="#DejaVuSans-6e" x="665.234375"/>
     <use xlink:href="#DejaVuSans-63" x="728.613281"/>
     <use xlink:href="#DejaVuSans-68" x="783.59375"/>
     <use xlink:href="#DejaVuSans-20" x="846.972656"/>
     <use xlink:href="#DejaVuSans-3d" x="878.759766"/>
     <use xlink:href="#DejaVuSans-20" x="962.548828"/>
     <use xlink:href="#DejaVuSans-73" x="994.335938"/>
     <use xlink:href="#DejaVuSans-75" x="1046.435547"/>
     <use xlink:href="#DejaVuSans-6d" x="1109.814453"/>
     <use xlink:href="#DejaVuSans-28" x="1207.226562"/>
     <use xlink:href="#DejaVuSans-71" x="1246.240234"/>
     <use xlink:href="#DejaVuSans-5f" x="1309.716797"/>
     <use xlink:href="#DejaVuSans-77" x="1359.716797"/>
     <use xlink:href="#DejaVuSans-61" x="1441.503906"/>
     <use xlink:href="#DejaVuSans-6c" x="1502.783203"/>
     <use xlink:href="#DejaVuSans-6c" x="1530.566406"/>
     <use xlink:href="#DejaVuSans-20" x="1558.349609"/>
     <use xlink:href="#DejaVuSans-2b" x="1590.136719"/>
     <use xlink:href="#DejaVuSans-20" x="1673.925781"/>
     <use xlink:href="#DejaVuSans-71" x="1705.712891"/>
     <use xlink:href="#DejaVuSans-5f" x="1769.189453"/>
     <use xlink:href="#DejaVuSans-6a" x="1819.189453"/>
     <use xlink:href="#DejaVuSans-65" x="1846.972656"/>
     <use xlink:href="#DejaVuSans-74" x="1908.496094"/>
     <use xlink:href="#DejaVuSans-29" x="1947.705078"/>
    </g>
    <!-- DeltaP_branch = DeltaP_heater + DeltaP_expansion + DeltaP_aeration -->
    <g transform="translate(260.592656 570.330531) scale(0.14 -0.14)">
     <use xlink:href="#DejaVuSans-44"/>
     <use xlink:href="#DejaVuSans-65" x="77.001953"/>
     <use xlink:href="#DejaVuSans-6c" x="138.525391"/>
     <use xlink:href="#DejaVuSans-74" x="166.308594"/>
     <use xlink:href="#DejaVuSans-61" x="205.517578"/>
     <use xlink:href="#DejaVuSans-50" x="266.796875"/>
     <use xlink:href="#DejaVuSans-5f" x="327.099609"/>
     <use xlink:href="#DejaVuSans-62" x="377.099609"/>
     <use xlink:href="#DejaVuSans-72" x="440.576172"/>
     <use xlink:href="#DejaVuSans-61" x="481.689453"/>
     <use xlink:href="#DejaVuSans-6e" x="542.96875"/>
     <use xlink:href="#DejaVuSans-63" x="606.347656"/>
     <use xlink:href="#DejaVuSans-68" x="661.328125"/>
     <use xlink:href="#DejaVuSans-20" x="724.707031"/>
     <use xlink:href="#DejaVuSans-3d" x="756.494141"/>
     <use xlink:href="#DejaVuSans-20" x="840.283203"/>
     <use xlink:href="#DejaVuSans-44" x="872.070312"/>
     <use xlink:href="#DejaVuSans-65" x="949.072266"/>
     <use xlink:href="#DejaVuSans-6c" x="1010.595703"/>
     <use xlink:href="#DejaVuSans-74" x="1038.378906"/>
     <use xlink:href="#DejaVuSans-61" x="1077.587891"/>
     <use xlink:href="#DejaVuSans-50" x="1138.867188"/>
     <use xlink:href="#DejaVuSans-5f" x="1199.169922"/>
     <use xlink:href="#DejaVuSans-68" x="1249.169922"/>
     <use xlink:href="#DejaVuSans-65" x="1312.548828"/>
     <use xlink:href="#DejaVuSans-61" x="1374.072266"/>
     <use xlink:href="#DejaVuSans-74" x="1435.351562"/>
     <use xlink:href="#DejaVuSans-65" x="1474.560547"/>
     <use xlink:href="#DejaVuSans-72" x="1536.083984"/>
     <use xlink:href="#DejaVuSans-20" x="1577.197266"/>
     <use xlink:href="#DejaVuSans-2b" x="1608.984375"/>
     <use xlink:href="#DejaVuSans-20" x="1692.773438"/>
     <use xlink:href="#DejaVuSans-44" x="1724.560547"/>
     <use xlink:href="#DejaVuSans-65" x="1801.5625"/>
     <use xlink:href="#DejaVuSans-6c" x="1863.085938"/>
     <use xlink:href="#DejaVuSans-74" x="1890.869141"/>
     <use xlink:href="#DejaVuSans-61" x="1930.078125"/>
     <use xlink:href="#DejaVuSans-50" x="1991.357422"/>
     <use xlink:href="#DejaVuSans-5f" x="2051.660156"/>
     <use xlink:href="#DejaVuSans-65" x="2101.660156"/>
     <use xlink:href="#DejaVuSans-78" x="2161.433594"/>
     <use xlink:href="#DejaVuSans-70" x="2220.613281"/>
     <use xlink:href="#DejaVuSans-61" x="2284.089844"/>
     <use xlink:href="#DejaVuSans-6e" x="2345.369141"/>
     <use xlink:href="#DejaVuSans-73" x="2408.748047"/>
     <use xlink:href="#DejaVuSans-69" x="2460.847656"/>
     <use xlink:href="#DejaVuSans-6f" x="2488.630859"/>
     <use xlink:href="#DejaVuSans-6e" x="2549.8125"/>
     <use xlink:href="#DejaVuSans-20" x="2613.191406"/>
     <use xlink:href="#DejaVuSans-2b" x="2644.978516"/>
     <use xlink:href="#DejaVuSans-20" x="2728.767578"/>
     <use xlink:href="#DejaVuSans-44" x="2760.554688"/>
     <use xlink:href="#DejaVuSans-65" x="2837.556641"/>
     <use xlink:href="#DejaVuSans-6c" x="2899.080078"/>
     <use xlink:href="#DejaVuSans-74" x="2926.863281"/>
     <use xlink:href="#DejaVuSans-61" x="2966.072266"/>
     <use xlink:href="#DejaVuSans-50" x="3027.351562"/>
     <use xlink:href="#DejaVuSans-5f" x="3087.654297"/>
     <use xlink:href="#DejaVuSans-61" x="3137.654297"/>
     <use xlink:href="#DejaVuSans-65" x="3198.933594"/>
     <use xlink:href="#DejaVuSans-72" x="3260.457031"/>
     <use xlink:href="#DejaVuSans-61" x="3301.570312"/>
     <use xlink:href="#DejaVuSans-74" x="3362.849609"/>
     <use xlink:href="#DejaVuSans-69" x="3402.058594"/>
     <use xlink:href="#DejaVuSans-6f" x="3429.841797"/>
     <use xlink:href="#DejaVuSans-6e" x="3491.023438"/>
    </g>
   </g>
   <g id="text_8">
    <!-- Total bed heating in the system is the branch value multiplied by the number of parallel branches. -->
    <g style="fill: #374151" transform="translate(213.587813 618.33525) scale(0.12 -0.12)">
     <defs>
      <path id="DejaVuSans-67" d="M 2906 1791 
Q 2906 2416 2648 2759 
Q 2391 3103 1925 3103 
Q 1463 3103 1205 2759 
Q 947 2416 947 1791 
Q 947 1169 1205 825 
Q 1463 481 1925 481 
Q 2391 481 2648 825 
Q 2906 1169 2906 1791 
z
M 3481 434 
Q 3481 -459 3084 -895 
Q 2688 -1331 1869 -1331 
Q 1566 -1331 1297 -1286 
Q 1028 -1241 775 -1147 
L 775 -588 
Q 1028 -725 1275 -790 
Q 1522 -856 1778 -856 
Q 2344 -856 2625 -561 
Q 2906 -266 2906 331 
L 2906 616 
Q 2728 306 2450 153 
Q 2172 0 1784 0 
Q 1141 0 747 490 
Q 353 981 353 1791 
Q 353 2603 747 3093 
Q 1141 3584 1784 3584 
Q 2172 3584 2450 3431 
Q 2728 3278 2906 2969 
L 2906 3500 
L 3481 3500 
L 3481 434 
z
" transform="scale(0.015625)"/>
      <path id="DejaVuSans-2e" d="M 684 794 
L 1344 794 
L 1344 0 
L 684 0 
L 684 794 
z
" transform="scale(0.015625)"/>
     </defs>
     <use xlink:href="#DejaVuSans-54"/>
     <use xlink:href="#DejaVuSans-6f" x="44.083984"/>
     <use xlink:href="#DejaVuSans-74" x="105.265625"/>
     <use xlink:href="#DejaVuSans-61" x="144.474609"/>
     <use xlink:href="#DejaVuSans-6c" x="205.753906"/>
     <use xlink:href="#DejaVuSans-20" x="233.537109"/>
     <use xlink:href="#DejaVuSans-62" x="265.324219"/>
     <use xlink:href="#DejaVuSans-65" x="328.800781"/>
     <use xlink:href="#DejaVuSans-64" x="390.324219"/>
     <use xlink:href="#DejaVuSans-20" x="453.800781"/>
     <use xlink:href="#DejaVuSans-68" x="485.587891"/>
     <use xlink:href="#DejaVuSans-65" x="548.966797"/>
     <use xlink:href="#DejaVuSans-61" x="610.490234"/>
     <use xlink:href="#DejaVuSans-74" x="671.769531"/>
     <use xlink:href="#DejaVuSans-69" x="710.978516"/>
     <use xlink:href="#DejaVuSans-6e" x="738.761719"/>
     <use xlink:href="#DejaVuSans-67" x="802.140625"/>
     <use xlink:href="#DejaVuSans-20" x="865.617188"/>
     <use xlink:href="#DejaVuSans-69" x="897.404297"/>
     <use xlink:href="#DejaVuSans-6e" x="925.1875"/>
     <use xlink:href="#DejaVuSans-20" x="988.566406"/>
     <use xlink:href="#DejaVuSans-74" x="1020.353516"/>
     <use xlink:href="#DejaVuSans-68" x="1059.5625"/>
     <use xlink:href="#DejaVuSans-65" x="1122.941406"/>
     <use xlink:href="#DejaVuSans-20" x="1184.464844"/>
     <use xlink:href="#DejaVuSans-73" x="1216.251953"/>
     <use xlink:href="#DejaVuSans-79" x="1268.351562"/>
     <use xlink:href="#DejaVuSans-73" x="1327.53125"/>
     <use xlink:href="#DejaVuSans-74" x="1379.630859"/>
     <use xlink:href="#DejaVuSans-65" x="1418.839844"/>
     <use xlink:href="#DejaVuSans-6d" x="1480.363281"/>
     <use xlink:href="#DejaVuSans-20" x="1577.775391"/>
     <use xlink:href="#DejaVuSans-69" x="1609.5625"/>
     <use xlink:href="#DejaVuSans-73" x="1637.345703"/>
     <use xlink:href="#DejaVuSans-20" x="1689.445312"/>
     <use xlink:href="#DejaVuSans-74" x="1721.232422"/>
     <use xlink:href="#DejaVuSans-68" x="1760.441406"/>
     <use xlink:href="#DejaVuSans-65" x="1823.820312"/>
     <use xlink:href="#DejaVuSans-20" x="1885.34375"/>
     <use xlink:href="#DejaVuSans-62" x="1917.130859"/>
     <use xlink:href="#DejaVuSans-72" x="1980.607422"/>
     <use xlink:href="#DejaVuSans-61" x="2021.720703"/>
     <use xlink:href="#DejaVuSans-6e" x="2083"/>
     <use xlink:href="#DejaVuSans-63" x="2146.378906"/>
     <use xlink:href="#DejaVuSans-68" x="2201.359375"/>
     <use xlink:href="#DejaVuSans-20" x="2264.738281"/>
     <use xlink:href="#DejaVuSans-76" x="2296.525391"/>
     <use xlink:href="#DejaVuSans-61" x="2355.705078"/>
     <use xlink:href="#DejaVuSans-6c" x="2416.984375"/>
     <use xlink:href="#DejaVuSans-75" x="2444.767578"/>
     <use xlink:href="#DejaVuSans-65" x="2508.146484"/>
     <use xlink:href="#DejaVuSans-20" x="2569.669922"/>
     <use xlink:href="#DejaVuSans-6d" x="2601.457031"/>
     <use xlink:href="#DejaVuSans-75" x="2698.869141"/>
     <use xlink:href="#DejaVuSans-6c" x="2762.248047"/>
     <use xlink:href="#DejaVuSans-74" x="2790.03125"/>
     <use xlink:href="#DejaVuSans-69" x="2829.240234"/>
     <use xlink:href="#DejaVuSans-70" x="2857.023438"/>
     <use xlink:href="#DejaVuSans-6c" x="2920.5"/>
     <use xlink:href="#DejaVuSans-69" x="2948.283203"/>
     <use xlink:href="#DejaVuSans-65" x="2976.066406"/>
     <use xlink:href="#DejaVuSans-64" x="3037.589844"/>
     <use xlink:href="#DejaVuSans-20" x="3101.066406"/>
     <use xlink:href="#DejaVuSans-62" x="3132.853516"/>
     <use xlink:href="#DejaVuSans-79" x="3196.330078"/>
     <use xlink:href="#DejaVuSans-20" x="3255.509766"/>
     <use xlink:href="#DejaVuSans-74" x="3287.296875"/>
     <use xlink:href="#DejaVuSans-68" x="3326.505859"/>
     <use xlink:href="#DejaVuSans-65" x="3389.884766"/>
     <use xlink:href="#DejaVuSans-20" x="3451.408203"/>
     <use xlink:href="#DejaVuSans-6e" x="3483.195312"/>
     <use xlink:href="#DejaVuSans-75" x="3546.574219"/>
     <use xlink:href="#DejaVuSans-6d" x="3609.953125"/>
     <use xlink:href="#DejaVuSans-62" x="3707.365234"/>
     <use xlink:href="#DejaVuSans-65" x="3770.841797"/>
     <use xlink:href="#DejaVuSans-72" x="3832.365234"/>
     <use xlink:href="#DejaVuSans-20" x="3873.478516"/>
     <use xlink:href="#DejaVuSans-6f" x="3905.265625"/>
     <use xlink:href="#DejaVuSans-66" x="3966.447266"/>
     <use xlink:href="#DejaVuSans-20" x="4001.652344"/>
     <use xlink:href="#DejaVuSans-70" x="4033.439453"/>
     <use xlink:href="#DejaVuSans-61" x="4096.916016"/>
     <use xlink:href="#DejaVuSans-72" x="4158.195312"/>
     <use xlink:href="#DejaVuSans-61" x="4199.308594"/>
     <use xlink:href="#DejaVuSans-6c" x="4260.587891"/>
     <use xlink:href="#DejaVuSans-6c" x="4288.371094"/>
     <use xlink:href="#DejaVuSans-65" x="4316.154297"/>
     <use xlink:href="#DejaVuSans-6c" x="4377.677734"/>
     <use xlink:href="#DejaVuSans-20" x="4405.460938"/>
     <use xlink:href="#DejaVuSans-62" x="4437.248047"/>
     <use xlink:href="#DejaVuSans-72" x="4500.724609"/>
     <use xlink:href="#DejaVuSans-61" x="4541.837891"/>
     <use xlink:href="#DejaVuSans-6e" x="4603.117188"/>
     <use xlink:href="#DejaVuSans-63" x="4666.496094"/>
     <use xlink:href="#DejaVuSans-68" x="4721.476562"/>
     <use xlink:href="#DejaVuSans-65" x="4784.855469"/>
     <use xlink:href="#DejaVuSans-73" x="4846.378906"/>
     <use xlink:href="#DejaVuSans-2e" x="4898.478516"/>
    </g>
   </g>
  </g>
  <g id="text_9">
   <!-- 03. Report Diagram: One Aeration Branch -->
   <g transform="translate(234.320156 23.916562) scale(0.22 -0.22)">
    <defs>
     <path id="DejaVuSans-Bold-30" d="M 2944 2338 
Q 2944 3213 2780 3570 
Q 2616 3928 2228 3928 
Q 1841 3928 1675 3570 
Q 1509 3213 1509 2338 
Q 1509 1453 1675 1090 
Q 1841 728 2228 728 
Q 2613 728 2778 1090 
Q 2944 1453 2944 2338 
z
M 4147 2328 
Q 4147 1169 3647 539 
Q 3147 -91 2228 -91 
Q 1306 -91 806 539 
Q 306 1169 306 2328 
Q 306 3491 806 4120 
Q 1306 4750 2228 4750 
Q 3147 4750 3647 4120 
Q 4147 3491 4147 2328 
z
" transform="scale(0.015625)"/>
     <path id="DejaVuSans-Bold-33" d="M 2981 2516 
Q 3453 2394 3698 2092 
Q 3944 1791 3944 1325 
Q 3944 631 3412 270 
Q 2881 -91 1863 -91 
Q 1503 -91 1142 -33 
Q 781 25 428 141 
L 428 1069 
Q 766 900 1098 814 
Q 1431 728 1753 728 
Q 2231 728 2486 893 
Q 2741 1059 2741 1369 
Q 2741 1688 2480 1852 
Q 2219 2016 1709 2016 
L 1228 2016 
L 1228 2791 
L 1734 2791 
Q 2188 2791 2409 2933 
Q 2631 3075 2631 3366 
Q 2631 3634 2415 3781 
Q 2200 3928 1806 3928 
Q 1516 3928 1219 3862 
Q 922 3797 628 3669 
L 628 4550 
Q 984 4650 1334 4700 
Q 1684 4750 2022 4750 
Q 2931 4750 3382 4451 
Q 3834 4153 3834 3553 
Q 3834 3144 3618 2883 
Q 3403 2622 2981 2516 
z
" transform="scale(0.015625)"/>
     <path id="DejaVuSans-Bold-2e" d="M 653 1209 
L 1778 1209 
L 1778 0 
L 653 0 
L 653 1209 
z
" transform="scale(0.015625)"/>
     <path id="DejaVuSans-Bold-20" transform="scale(0.015625)"/>
     <path id="DejaVuSans-Bold-52" d="M 2297 2597 
Q 2675 2597 2839 2737 
Q 3003 2878 3003 3200 
Q 3003 3519 2839 3656 
Q 2675 3794 2297 3794 
L 1791 3794 
L 1791 2597 
L 2297 2597 
z
M 1791 1766 
L 1791 0 
L 588 0 
L 588 4666 
L 2425 4666 
Q 3347 4666 3776 4356 
Q 4206 4047 4206 3378 
Q 4206 2916 3982 2619 
Q 3759 2322 3309 2181 
Q 3556 2125 3751 1926 
Q 3947 1728 4147 1325 
L 4800 0 
L 3519 0 
L 2950 1159 
Q 2778 1509 2601 1637 
Q 2425 1766 2131 1766 
L 1791 1766 
z
" transform="scale(0.015625)"/>
     <path id="DejaVuSans-Bold-65" d="M 4031 1759 
L 4031 1441 
L 1416 1441 
Q 1456 1047 1700 850 
Q 1944 653 2381 653 
Q 2734 653 3104 758 
Q 3475 863 3866 1075 
L 3866 213 
Q 3469 63 3072 -14 
Q 2675 -91 2278 -91 
Q 1328 -91 801 392 
Q 275 875 275 1747 
Q 275 2603 792 3093 
Q 1309 3584 2216 3584 
Q 3041 3584 3536 3087 
Q 4031 2591 4031 1759 
z
M 2881 2131 
Q 2881 2450 2695 2645 
Q 2509 2841 2209 2841 
Q 1884 2841 1681 2658 
Q 1478 2475 1428 2131 
L 2881 2131 
z
" transform="scale(0.015625)"/>
     <path id="DejaVuSans-Bold-70" d="M 1656 506 
L 1656 -1331 
L 538 -1331 
L 538 3500 
L 1656 3500 
L 1656 2988 
Q 1888 3294 2169 3439 
Q 2450 3584 2816 3584 
Q 3463 3584 3878 3070 
Q 4294 2556 4294 1747 
Q 4294 938 3878 423 
Q 3463 -91 2816 -91 
Q 2450 -91 2169 54 
Q 1888 200 1656 506 
z
M 2400 2772 
Q 2041 2772 1848 2508 
Q 1656 2244 1656 1747 
Q 1656 1250 1848 986 
Q 2041 722 2400 722 
Q 2759 722 2948 984 
Q 3138 1247 3138 1747 
Q 3138 2247 2948 2509 
Q 2759 2772 2400 2772 
z
" transform="scale(0.015625)"/>
     <path id="DejaVuSans-Bold-6f" d="M 2203 2784 
Q 1831 2784 1636 2517 
Q 1441 2250 1441 1747 
Q 1441 1244 1636 976 
Q 1831 709 2203 709 
Q 2569 709 2762 976 
Q 2956 1244 2956 1747 
Q 2956 2250 2762 2517 
Q 2569 2784 2203 2784 
z
M 2203 3584 
Q 3106 3584 3614 3096 
Q 4122 2609 4122 1747 
Q 4122 884 3614 396 
Q 3106 -91 2203 -91 
Q 1297 -91 786 396 
Q 275 884 275 1747 
Q 275 2609 786 3096 
Q 1297 3584 2203 3584 
z
" transform="scale(0.015625)"/>
     <path id="DejaVuSans-Bold-72" d="M 3138 2547 
Q 2991 2616 2845 2648 
Q 2700 2681 2553 2681 
Q 2122 2681 1889 2404 
Q 1656 2128 1656 1613 
L 1656 0 
L 538 0 
L 538 3500 
L 1656 3500 
L 1656 2925 
Q 1872 3269 2151 3426 
Q 2431 3584 2822 3584 
Q 2878 3584 2943 3579 
Q 3009 3575 3134 3559 
L 3138 2547 
z
" transform="scale(0.015625)"/>
     <path id="DejaVuSans-Bold-74" d="M 1759 4494 
L 1759 3500 
L 2913 3500 
L 2913 2700 
L 1759 2700 
L 1759 1216 
Q 1759 972 1856 886 
Q 1953 800 2241 800 
L 2816 800 
L 2816 0 
L 1856 0 
Q 1194 0 917 276 
Q 641 553 641 1216 
L 641 2700 
L 84 2700 
L 84 3500 
L 641 3500 
L 641 4494 
L 1759 4494 
z
" transform="scale(0.015625)"/>
     <path id="DejaVuSans-Bold-44" d="M 1791 3756 
L 1791 909 
L 2222 909 
Q 2959 909 3348 1275 
Q 3738 1641 3738 2338 
Q 3738 3031 3350 3393 
Q 2963 3756 2222 3756 
L 1791 3756 
z
M 588 4666 
L 1856 4666 
Q 2919 4666 3439 4514 
Q 3959 4363 4331 4000 
Q 4659 3684 4818 3271 
Q 4978 2859 4978 2338 
Q 4978 1809 4818 1395 
Q 4659 981 4331 666 
Q 3956 303 3431 151 
Q 2906 0 1856 0 
L 588 0 
L 588 4666 
z
" transform="scale(0.015625)"/>
     <path id="DejaVuSans-Bold-69" d="M 538 3500 
L 1656 3500 
L 1656 0 
L 538 0 
L 538 3500 
z
M 538 4863 
L 1656 4863 
L 1656 3950 
L 538 3950 
L 538 4863 
z
" transform="scale(0.015625)"/>
     <path id="DejaVuSans-Bold-61" d="M 2106 1575 
Q 1756 1575 1579 1456 
Q 1403 1338 1403 1106 
Q 1403 894 1545 773 
Q 1688 653 1941 653 
Q 2256 653 2472 879 
Q 2688 1106 2688 1447 
L 2688 1575 
L 2106 1575 
z
M 3816 1997 
L 3816 0 
L 2688 0 
L 2688 519 
Q 2463 200 2181 54 
Q 1900 -91 1497 -91 
Q 953 -91 614 226 
Q 275 544 275 1050 
Q 275 1666 698 1953 
Q 1122 2241 2028 2241 
L 2688 2241 
L 2688 2328 
Q 2688 2594 2478 2717 
Q 2269 2841 1825 2841 
Q 1466 2841 1156 2769 
Q 847 2697 581 2553 
L 581 3406 
Q 941 3494 1303 3539 
Q 1666 3584 2028 3584 
Q 2975 3584 3395 3211 
Q 3816 2838 3816 1997 
z
" transform="scale(0.015625)"/>
     <path id="DejaVuSans-Bold-67" d="M 2919 594 
Q 2688 288 2409 144 
Q 2131 0 1766 0 
Q 1125 0 706 504 
Q 288 1009 288 1791 
Q 288 2575 706 3076 
Q 1125 3578 1766 3578 
Q 2131 3578 2409 3434 
Q 2688 3291 2919 2981 
L 2919 3500 
L 4044 3500 
L 4044 353 
Q 4044 -491 3511 -936 
Q 2978 -1381 1966 -1381 
Q 1638 -1381 1331 -1331 
Q 1025 -1281 716 -1178 
L 716 -306 
Q 1009 -475 1290 -558 
Q 1572 -641 1856 -641 
Q 2406 -641 2662 -400 
Q 2919 -159 2919 353 
L 2919 594 
z
M 2181 2772 
Q 1834 2772 1640 2515 
Q 1447 2259 1447 1791 
Q 1447 1309 1634 1061 
Q 1822 813 2181 813 
Q 2531 813 2725 1069 
Q 2919 1325 2919 1791 
Q 2919 2259 2725 2515 
Q 2531 2772 2181 2772 
z
" transform="scale(0.015625)"/>
     <path id="DejaVuSans-Bold-6d" d="M 3781 2919 
Q 3994 3244 4286 3414 
Q 4578 3584 4928 3584 
Q 5531 3584 5847 3212 
Q 6163 2841 6163 2131 
L 6163 0 
L 5038 0 
L 5038 1825 
Q 5041 1866 5042 1909 
Q 5044 1953 5044 2034 
Q 5044 2406 4934 2573 
Q 4825 2741 4581 2741 
Q 4263 2741 4089 2478 
Q 3916 2216 3909 1719 
L 3909 0 
L 2784 0 
L 2784 1825 
Q 2784 2406 2684 2573 
Q 2584 2741 2328 2741 
Q 2006 2741 1831 2477 
Q 1656 2213 1656 1722 
L 1656 0 
L 531 0 
L 531 3500 
L 1656 3500 
L 1656 2988 
Q 1863 3284 2130 3434 
Q 2397 3584 2719 3584 
Q 3081 3584 3359 3409 
Q 3638 3234 3781 2919 
z
" transform="scale(0.015625)"/>
     <path id="DejaVuSans-Bold-3a" d="M 716 3500 
L 1844 3500 
L 1844 2291 
L 716 2291 
L 716 3500 
z
M 716 1209 
L 1844 1209 
L 1844 0 
L 716 0 
L 716 1209 
z
" transform="scale(0.015625)"/>
     <path id="DejaVuSans-Bold-4f" d="M 2719 3878 
Q 2169 3878 1866 3472 
Q 1563 3066 1563 2328 
Q 1563 1594 1866 1187 
Q 2169 781 2719 781 
Q 3272 781 3575 1187 
Q 3878 1594 3878 2328 
Q 3878 3066 3575 3472 
Q 3272 3878 2719 3878 
z
M 2719 4750 
Q 3844 4750 4481 4106 
Q 5119 3463 5119 2328 
Q 5119 1197 4481 553 
Q 3844 -91 2719 -91 
Q 1597 -91 958 553 
Q 319 1197 319 2328 
Q 319 3463 958 4106 
Q 1597 4750 2719 4750 
z
" transform="scale(0.015625)"/>
     <path id="DejaVuSans-Bold-6e" d="M 4056 2131 
L 4056 0 
L 2931 0 
L 2931 347 
L 2931 1631 
Q 2931 2084 2911 2256 
Q 2891 2428 2841 2509 
Q 2775 2619 2662 2680 
Q 2550 2741 2406 2741 
Q 2056 2741 1856 2470 
Q 1656 2200 1656 1722 
L 1656 0 
L 538 0 
L 538 3500 
L 1656 3500 
L 1656 2988 
Q 1909 3294 2193 3439 
Q 2478 3584 2822 3584 
Q 3428 3584 3742 3212 
Q 4056 2841 4056 2131 
z
" transform="scale(0.015625)"/>
     <path id="DejaVuSans-Bold-41" d="M 3419 850 
L 1538 850 
L 1241 0 
L 31 0 
L 1759 4666 
L 3194 4666 
L 4922 0 
L 3713 0 
L 3419 850 
z
M 1838 1716 
L 3116 1716 
L 2478 3572 
L 1838 1716 
z
" transform="scale(0.015625)"/>
     <path id="DejaVuSans-Bold-42" d="M 2456 2859 
Q 2741 2859 2887 2984 
Q 3034 3109 3034 3353 
Q 3034 3594 2887 3720 
Q 2741 3847 2456 3847 
L 1791 3847 
L 1791 2859 
L 2456 2859 
z
M 2497 819 
Q 2859 819 3042 972 
Q 3225 1125 3225 1434 
Q 3225 1738 3044 1889 
Q 2863 2041 2497 2041 
L 1791 2041 
L 1791 819 
L 2497 819 
z
M 3616 2497 
Q 4003 2384 4215 2081 
Q 4428 1778 4428 1338 
Q 4428 663 3972 331 
Q 3516 0 2584 0 
L 588 0 
L 588 4666 
L 2394 4666 
Q 3366 4666 3802 4372 
Q 4238 4078 4238 3431 
Q 4238 3091 4078 2852 
Q 3919 2613 3616 2497 
z
" transform="scale(0.015625)"/>
     <path id="DejaVuSans-Bold-63" d="M 3366 3391 
L 3366 2478 
Q 3138 2634 2908 2709 
Q 2678 2784 2431 2784 
Q 1963 2784 1702 2511 
Q 1441 2238 1441 1747 
Q 1441 1256 1702 982 
Q 1963 709 2431 709 
Q 2694 709 2930 787 
Q 3166 866 3366 1019 
L 3366 103 
Q 3103 6 2833 -42 
Q 2563 -91 2291 -91 
Q 1344 -91 809 395 
Q 275 881 275 1747 
Q 275 2613 809 3098 
Q 1344 3584 2291 3584 
Q 2566 3584 2833 3536 
Q 3100 3488 3366 3391 
z
" transform="scale(0.015625)"/>
     <path id="DejaVuSans-Bold-68" d="M 4056 2131 
L 4056 0 
L 2931 0 
L 2931 347 
L 2931 1625 
Q 2931 2084 2911 2256 
Q 2891 2428 2841 2509 
Q 2775 2619 2662 2680 
Q 2550 2741 2406 2741 
Q 2056 2741 1856 2470 
Q 1656 2200 1656 1722 
L 1656 0 
L 538 0 
L 538 4863 
L 1656 4863 
L 1656 2988 
Q 1909 3294 2193 3439 
Q 2478 3584 2822 3584 
Q 3428 3584 3742 3212 
Q 4056 2841 4056 2131 
z
" transform="scale(0.015625)"/>
    </defs>
    <use xlink:href="#DejaVuSans-Bold-30"/>
    <use xlink:href="#DejaVuSans-Bold-33" x="69.580078"/>
    <use xlink:href="#DejaVuSans-Bold-2e" x="139.160156"/>
    <use xlink:href="#DejaVuSans-Bold-20" x="177.148438"/>
    <use xlink:href="#DejaVuSans-Bold-52" x="211.962891"/>
    <use xlink:href="#DejaVuSans-Bold-65" x="288.964844"/>
    <use xlink:href="#DejaVuSans-Bold-70" x="356.787109"/>
    <use xlink:href="#DejaVuSans-Bold-6f" x="428.369141"/>
    <use xlink:href="#DejaVuSans-Bold-72" x="497.070312"/>
    <use xlink:href="#DejaVuSans-Bold-74" x="546.386719"/>
    <use xlink:href="#DejaVuSans-Bold-20" x="594.189453"/>
    <use xlink:href="#DejaVuSans-Bold-44" x="629.003906"/>
    <use xlink:href="#DejaVuSans-Bold-69" x="712.011719"/>
    <use xlink:href="#DejaVuSans-Bold-61" x="746.289062"/>
    <use xlink:href="#DejaVuSans-Bold-67" x="813.769531"/>
    <use xlink:href="#DejaVuSans-Bold-72" x="885.351562"/>
    <use xlink:href="#DejaVuSans-Bold-61" x="934.667969"/>
    <use xlink:href="#DejaVuSans-Bold-6d" x="1002.148438"/>
    <use xlink:href="#DejaVuSans-Bold-3a" x="1106.347656"/>
    <use xlink:href="#DejaVuSans-Bold-20" x="1146.337891"/>
    <use xlink:href="#DejaVuSans-Bold-4f" x="1181.152344"/>
    <use xlink:href="#DejaVuSans-Bold-6e" x="1266.162109"/>
    <use xlink:href="#DejaVuSans-Bold-65" x="1337.353516"/>
    <use xlink:href="#DejaVuSans-Bold-20" x="1405.175781"/>
    <use xlink:href="#DejaVuSans-Bold-41" x="1439.990234"/>
    <use xlink:href="#DejaVuSans-Bold-65" x="1517.382812"/>
    <use xlink:href="#DejaVuSans-Bold-72" x="1585.205078"/>
    <use xlink:href="#DejaVuSans-Bold-61" x="1634.521484"/>
    <use xlink:href="#DejaVuSans-Bold-74" x="1702.001953"/>
    <use xlink:href="#DejaVuSans-Bold-69" x="1749.804688"/>
    <use xlink:href="#DejaVuSans-Bold-6f" x="1784.082031"/>
    <use xlink:href="#DejaVuSans-Bold-6e" x="1852.783203"/>
    <use xlink:href="#DejaVuSans-Bold-20" x="1923.974609"/>
    <use xlink:href="#DejaVuSans-Bold-42" x="1958.789062"/>
    <use xlink:href="#DejaVuSans-Bold-72" x="2035.009766"/>
    <use xlink:href="#DejaVuSans-Bold-61" x="2084.326172"/>
    <use xlink:href="#DejaVuSans-Bold-6e" x="2151.806641"/>
    <use xlink:href="#DejaVuSans-Bold-63" x="2222.998047"/>
    <use xlink:href="#DejaVuSans-Bold-68" x="2282.275391"/>
   </g>
  </g>
 </g>
 <defs>
  <clipPath id="p9285bf6c06">
   <rect x="7.2" y="82.8" width="1004.4" height="554.4"/>
  </clipPath>
 </defs>
</svg>
