<?xml version="1.0" encoding="utf-8" standalone="no"?>
<!DOCTYPE svg PUBLIC "-//W3C//DTD SVG 1.1//EN"
  "http://www.w3.org/Graphics/SVG/1.1/DTD/svg11.dtd">
<svg xmlns:xlink="http://www.w3.org/1999/xlink" width="1129.836875pt" height="644.4pt" viewBox="0 0 1129.836875 644.4" xmlns="http://www.w3.org/2000/svg" version="1.1">
 <metadata>
  <rdf:RDF xmlns:dc="http://purl.org/dc/elements/1.1/" xmlns:cc="http://creativecommons.org/ns#" xmlns:rdf="http://www.w3.org/1999/02/22-rdf-syntax-ns#">
   <cc:Work>
    <dc:type rdf:resource="http://purl.org/dc/dcmitype/StillImage"/>
    <dc:date>2026-03-08T20:38:35.318487</dc:date>
    <dc:format>image/svg+xml</dc:format>
    <dc:creator>
     <cc:Agent>
      <dc:title>Matplotlib v3.9.4, https://matplotlib.org/</dc:title>
     </cc:Agent>
    </dc:creator>
   </cc:Work>
  </rdf:RDF>
 </metadata>
 <defs>
  <style type="text/css">*{stroke-linejoin: round; stroke-linecap: butt}</style>
 </defs>
 <g id="figure_1">
  <g id="patch_1">
   <path d="M 0 644.4 
L 1129.836875 644.4 
L 1129.836875 0 
L 0 0 
z
" style="fill: #ffffff"/>
  </g>
  <g id="axes_1">
   <g id="patch_2">
    <path d="M 133.026438 484.74 
L 353.994438 484.74 
Q 369.060438 484.74 369.060438 476.424 
L 369.060438 321.192 
Q 369.060438 312.876 353.994438 312.876 
L 133.026438 312.876 
Q 117.960438 312.876 117.960438 321.192 
L 117.960438 476.424 
Q 117.960438 484.74 133.026438 484.74 
z
" clip-path="url(#p8d6492efa4)" style="fill: #fee2e2; stroke: #1f2937; stroke-width: 2.2; stroke-linejoin: miter"/>
   </g>
   <g id="patch_3">
    <path d="M 454.434438 484.74 
L 675.402438 484.74 
Q 690.468438 484.74 690.468438 476.424 
L 690.468438 321.192 
Q 690.468438 312.876 675.402438 312.876 
L 454.434438 312.876 
Q 439.368438 312.876 439.368438 321.192 
L 439.368438 476.424 
Q 439.368438 484.74 454.434438 484.74 
z
" clip-path="url(#p8d6492efa4)" style="fill: #fef3c7; stroke: #1f2937; stroke-width: 2.2; stroke-linejoin: miter"/>
   </g>
   <g id="patch_4">
    <path d="M 775.842438 484.74 
L 996.810438 484.74 
Q 1011.876438 484.74 1011.876438 476.424 
L 1011.876438 321.192 
Q 1011.876438 312.876 996.810438 312.876 
L 775.842438 312.876 
Q 760.776438 312.876 760.776438 321.192 
L 760.776438 476.424 
Q 760.776438 484.74 775.842438 484.74 
z
" clip-path="url(#p8d6492efa4)" style="fill: #dcfce7; stroke: #1f2937; stroke-width: 2.2; stroke-linejoin: miter"/>
   </g>
   <g id="patch_5">
    <path d="M 366.034486 398.808 
Q 404.210535 398.808 439.703302 398.808 
" clip-path="url(#p8d6492efa4)" style="fill: none; stroke: #111827; stroke-width: 2.4; stroke-linecap: round"/>
    <path d="M 432.503302 395.208 
L 439.703302 398.808 
L 432.503302 402.408 
z
" clip-path="url(#p8d6492efa4)" style="fill: #111827; stroke: #111827; stroke-width: 2.4; stroke-linecap: round"/>
   </g>
   <g id="patch_6">
    <path d="M 687.442486 398.808 
Q 725.618535 398.808 761.111302 398.808 
" clip-path="url(#p8d6492efa4)" style="fill: none; stroke: #111827; stroke-width: 2.4; stroke-linecap: round"/>
    <path d="M 753.911302 395.208 
L 761.111302 398.808 
L 753.911302 402.408 
z
" clip-path="url(#p8d6492efa4)" style="fill: #111827; stroke: #111827; stroke-width: 2.4; stroke-linecap: round"/>
   </g>
   <g id="patch_7">
    <path d="M 253.554438 274.068 
L 876.282438 274.068 
Q 891.348438 274.068 891.348438 265.752 
L 891.348438 177.048 
Q 891.348438 168.732 876.282438 168.732 
L 253.554438 168.732 
Q 238.488438 168.732 238.488438 177.048 
L 238.488438 265.752 
Q 238.488438 274.068 253.554438 274.068 
z
" clip-path="url(#p8d6492efa4)" style="fill: #e0f2fe; stroke: #1f2937; stroke-width: 2.2; stroke-linejoin: miter"/>
   </g>
   <g id="patch_8">
    <path d="M 253.554438 595.62 
L 876.282438 595.62 
Q 891.348438 595.62 891.348438 587.304 
L 891.348438 531.864 
Q 891.348438 523.548 876.282438 523.548 
L 253.554438 523.548 
Q 238.488438 523.548 238.488438 531.864 
L 238.488438 587.304 
Q 238.488438 595.62 253.554438 595.62 
z
" clip-path="url(#p8d6492efa4)" style="fill: #f3f4f6; stroke: #1f2937; stroke-width: 2.2; stroke-linejoin: miter"/>
   </g>
   <g id="text_1">
    <!-- Winter loss requirement -->
    <g transform="translate(147.247938 375.90325) scale(0.16 -0.16)">
     <defs>
      <path id="DejaVuSans-57" d="M 213 4666 
L 850 4666 
L 1831 722 
L 2809 4666 
L 3519 4666 
L 4500 722 
L 5478 4666 
L 6119 4666 
L 4947 0 
L 4153 0 
L 3169 4050 
L 2175 0 
L 1381 0 
L 213 4666 
z
" transform="scale(0.015625)"/>
      <path id="DejaVuSans-69" d="M 603 3500 
L 1178 3500 
L 1178 0 
L 603 0 
L 603 3500 
z
M 603 4863 
L 1178 4863 
L 1178 4134 
L 603 4134 
L 603 4863 
z
" transform="scale(0.015625)"/>
      <path id="DejaVuSans-6e" d="M 3513 2113 
L 3513 0 
L 2938 0 
L 2938 2094 
Q 2938 2591 2744 2837 
Q 2550 3084 2163 3084 
Q 1697 3084 1428 2787 
Q 1159 2491 1159 1978 
L 1159 0 
L 581 0 
L 581 3500 
L 1159 3500 
L 1159 2956 
Q 1366 3272 1645 3428 
Q 1925 3584 2291 3584 
Q 2894 3584 3203 3211 
Q 3513 2838 3513 2113 
z
" transform="scale(0.015625)"/>
      <path id="DejaVuSans-74" d="M 1172 4494 
L 1172 3500 
L 2356 3500 
L 2356 3053 
L 1172 3053 
L 1172 1153 
Q 1172 725 1289 603 
Q 1406 481 1766 481 
L 2356 481 
L 2356 0 
L 1766 0 
Q 1100 0 847 248 
Q 594 497 594 1153 
L 594 3053 
L 172 3053 
L 172 3500 
L 594 3500 
L 594 4494 
L 1172 4494 
z
" transform="scale(0.015625)"/>
      <path id="DejaVuSans-65" d="M 3597 1894 
L 3597 1613 
L 953 1613 
Q 991 1019 1311 708 
Q 1631 397 2203 397 
Q 2534 397 2845 478 
Q 3156 559 3463 722 
L 3463 178 
Q 3153 47 2828 -22 
Q 2503 -91 2169 -91 
Q 1331 -91 842 396 
Q 353 884 353 1716 
Q 353 2575 817 3079 
Q 1281 3584 2069 3584 
Q 2775 3584 3186 3129 
Q 3597 2675 3597 1894 
z
M 3022 2063 
Q 3016 2534 2758 2815 
Q 2500 3097 2075 3097 
Q 1594 3097 1305 2825 
Q 1016 2553 972 2059 
L 3022 2063 
z
" transform="scale(0.015625)"/>
      <path id="DejaVuSans-72" d="M 2631 2963 
Q 2534 3019 2420 3045 
Q 2306 3072 2169 3072 
Q 1681 3072 1420 2755 
Q 1159 2438 1159 1844 
L 1159 0 
L 581 0 
L 581 3500 
L 1159 3500 
L 1159 2956 
Q 1341 3275 1631 3429 
Q 1922 3584 2338 3584 
Q 2397 3584 2469 3576 
Q 2541 3569 2628 3553 
L 2631 2963 
z
" transform="scale(0.015625)"/>
      <path id="DejaVuSans-20" transform="scale(0.015625)"/>
      <path id="DejaVuSans-6c" d="M 603 4863 
L 1178 4863 
L 1178 0 
L 603 0 
L 603 4863 
z
" transform="scale(0.015625)"/>
      <path id="DejaVuSans-6f" d="M 1959 3097 
Q 1497 3097 1228 2736 
Q 959 2375 959 1747 
Q 959 1119 1226 758 
Q 1494 397 1959 397 
Q 2419 397 2687 759 
Q 2956 1122 2956 1747 
Q 2956 2369 2687 2733 
Q 2419 3097 1959 3097 
z
M 1959 3584 
Q 2709 3584 3137 3096 
Q 3566 2609 3566 1747 
Q 3566 888 3137 398 
Q 2709 -91 1959 -91 
Q 1206 -91 779 398 
Q 353 888 353 1747 
Q 353 2609 779 3096 
Q 1206 3584 1959 3584 
z
" transform="scale(0.015625)"/>
      <path id="DejaVuSans-73" d="M 2834 3397 
L 2834 2853 
Q 2591 2978 2328 3040 
Q 2066 3103 1784 3103 
Q 1356 3103 1142 2972 
Q 928 2841 928 2578 
Q 928 2378 1081 2264 
Q 1234 2150 1697 2047 
L 1894 2003 
Q 2506 1872 2764 1633 
Q 3022 1394 3022 966 
Q 3022 478 2636 193 
Q 2250 -91 1575 -91 
Q 1294 -91 989 -36 
Q 684 19 347 128 
L 347 722 
Q 666 556 975 473 
Q 1284 391 1588 391 
Q 1994 391 2212 530 
Q 2431 669 2431 922 
Q 2431 1156 2273 1281 
Q 2116 1406 1581 1522 
L 1381 1569 
Q 847 1681 609 1914 
Q 372 2147 372 2553 
Q 372 3047 722 3315 
Q 1072 3584 1716 3584 
Q 2034 3584 2315 3537 
Q 2597 3491 2834 3397 
z
" transform="scale(0.015625)"/>
      <path id="DejaVuSans-71" d="M 947 1747 
Q 947 1113 1208 752 
Q 1469 391 1925 391 
Q 2381 391 2643 752 
Q 2906 1113 2906 1747 
Q 2906 2381 2643 2742 
Q 2381 3103 1925 3103 
Q 1469 3103 1208 2742 
Q 947 2381 947 1747 
z
M 2906 525 
Q 2725 213 2448 61 
Q 2172 -91 1784 -91 
Q 1150 -91 751 415 
Q 353 922 353 1747 
Q 353 2572 751 3078 
Q 1150 3584 1784 3584 
Q 2172 3584 2448 3432 
Q 2725 3281 2906 2969 
L 2906 3500 
L 3481 3500 
L 3481 -1331 
L 2906 -1331 
L 2906 525 
z
" transform="scale(0.015625)"/>
      <path id="DejaVuSans-75" d="M 544 1381 
L 544 3500 
L 1119 3500 
L 1119 1403 
Q 1119 906 1312 657 
Q 1506 409 1894 409 
Q 2359 409 2629 706 
Q 2900 1003 2900 1516 
L 2900 3500 
L 3475 3500 
L 3475 0 
L 2900 0 
L 2900 538 
Q 2691 219 2414 64 
Q 2138 -91 1772 -91 
Q 1169 -91 856 284 
Q 544 659 544 1381 
z
M 1991 3584 
L 1991 3584 
z
" transform="scale(0.015625)"/>
      <path id="DejaVuSans-6d" d="M 3328 2828 
Q 3544 3216 3844 3400 
Q 4144 3584 4550 3584 
Q 5097 3584 5394 3201 
Q 5691 2819 5691 2113 
L 5691 0 
L 5113 0 
L 5113 2094 
Q 5113 2597 4934 2840 
Q 4756 3084 4391 3084 
Q 3944 3084 3684 2787 
Q 3425 2491 3425 1978 
L 3425 0 
L 2847 0 
L 2847 2094 
Q 2847 2600 2669 2842 
Q 2491 3084 2119 3084 
Q 1678 3084 1418 2786 
Q 1159 2488 1159 1978 
L 1159 0 
L 581 0 
L 581 3500 
L 1159 3500 
L 1159 2956 
Q 1356 3278 1631 3431 
Q 1906 3584 2284 3584 
Q 2666 3584 2933 3390 
Q 3200 3197 3328 2828 
z
" transform="scale(0.015625)"/>
     </defs>
     <use xlink:href="#DejaVuSans-57"/>
     <use xlink:href="#DejaVuSans-69" x="96.626953"/>
     <use xlink:href="#DejaVuSans-6e" x="124.410156"/>
     <use xlink:href="#DejaVuSans-74" x="187.789062"/>
     <use xlink:href="#DejaVuSans-65" x="226.998047"/>
     <use xlink:href="#DejaVuSans-72" x="288.521484"/>
     <use xlink:href="#DejaVuSans-20" x="329.634766"/>
     <use xlink:href="#DejaVuSans-6c" x="361.421875"/>
     <use xlink:href="#DejaVuSans-6f" x="389.205078"/>
     <use xlink:href="#DejaVuSans-73" x="450.386719"/>
     <use xlink:href="#DejaVuSans-73" x="502.486328"/>
     <use xlink:href="#DejaVuSans-20" x="554.585938"/>
     <use xlink:href="#DejaVuSans-72" x="586.373047"/>
     <use xlink:href="#DejaVuSans-65" x="625.236328"/>
     <use xlink:href="#DejaVuSans-71" x="686.759766"/>
     <use xlink:href="#DejaVuSans-75" x="750.236328"/>
     <use xlink:href="#DejaVuSans-69" x="813.615234"/>
     <use xlink:href="#DejaVuSans-72" x="841.398438"/>
     <use xlink:href="#DejaVuSans-65" x="880.261719"/>
     <use xlink:href="#DejaVuSans-6d" x="941.785156"/>
     <use xlink:href="#DejaVuSans-65" x="1039.197266"/>
     <use xlink:href="#DejaVuSans-6e" x="1100.720703"/>
     <use xlink:href="#DejaVuSans-74" x="1164.099609"/>
    </g>
    <!--  -->
    <g transform="translate(243.510438 393.81975) scale(0.16 -0.16)"/>
    <!-- Q_loss ~ 61.6 W -->
    <g transform="translate(177.706688 411.73625) scale(0.16 -0.16)">
     <defs>
      <path id="DejaVuSans-51" d="M 2522 4238 
Q 1834 4238 1429 3725 
Q 1025 3213 1025 2328 
Q 1025 1447 1429 934 
Q 1834 422 2522 422 
Q 3209 422 3611 934 
Q 4013 1447 4013 2328 
Q 4013 3213 3611 3725 
Q 3209 4238 2522 4238 
z
M 3406 84 
L 4238 -825 
L 3475 -825 
L 2784 -78 
Q 2681 -84 2626 -87 
Q 2572 -91 2522 -91 
Q 1538 -91 948 567 
Q 359 1225 359 2328 
Q 359 3434 948 4092 
Q 1538 4750 2522 4750 
Q 3503 4750 4090 4092 
Q 4678 3434 4678 2328 
Q 4678 1516 4351 937 
Q 4025 359 3406 84 
z
" transform="scale(0.015625)"/>
      <path id="DejaVuSans-5f" d="M 3263 -1063 
L 3263 -1509 
L -63 -1509 
L -63 -1063 
L 3263 -1063 
z
" transform="scale(0.015625)"/>
      <path id="DejaVuSans-7e" d="M 4684 2553 
L 4684 1997 
Q 4356 1750 4076 1644 
Q 3797 1538 3494 1538 
Q 3150 1538 2694 1722 
Q 2659 1734 2644 1741 
Q 2622 1750 2575 1766 
Q 2091 1959 1797 1959 
Q 1522 1959 1253 1839 
Q 984 1719 678 1459 
L 678 2016 
Q 1006 2263 1286 2370 
Q 1566 2478 1869 2478 
Q 2213 2478 2672 2291 
Q 2703 2278 2719 2272 
Q 2744 2263 2788 2247 
Q 3272 2053 3566 2053 
Q 3834 2053 4098 2172 
Q 4363 2291 4684 2553 
z
" transform="scale(0.015625)"/>
      <path id="DejaVuSans-36" d="M 2113 2584 
Q 1688 2584 1439 2293 
Q 1191 2003 1191 1497 
Q 1191 994 1439 701 
Q 1688 409 2113 409 
Q 2538 409 2786 701 
Q 3034 994 3034 1497 
Q 3034 2003 2786 2293 
Q 2538 2584 2113 2584 
z
M 3366 4563 
L 3366 3988 
Q 3128 4100 2886 4159 
Q 2644 4219 2406 4219 
Q 1781 4219 1451 3797 
Q 1122 3375 1075 2522 
Q 1259 2794 1537 2939 
Q 1816 3084 2150 3084 
Q 2853 3084 3261 2657 
Q 3669 2231 3669 1497 
Q 3669 778 3244 343 
Q 2819 -91 2113 -91 
Q 1303 -91 875 529 
Q 447 1150 447 2328 
Q 447 3434 972 4092 
Q 1497 4750 2381 4750 
Q 2619 4750 2861 4703 
Q 3103 4656 3366 4563 
z
" transform="scale(0.015625)"/>
      <path id="DejaVuSans-31" d="M 794 531 
L 1825 531 
L 1825 4091 
L 703 3866 
L 703 4441 
L 1819 4666 
L 2450 4666 
L 2450 531 
L 3481 531 
L 3481 0 
L 794 0 
L 794 531 
z
" transform="scale(0.015625)"/>
      <path id="DejaVuSans-2e" d="M 684 794 
L 1344 794 
L 1344 0 
L 684 0 
L 684 794 
z
" transform="scale(0.015625)"/>
     </defs>
     <use xlink:href="#DejaVuSans-51"/>
     <use xlink:href="#DejaVuSans-5f" x="78.710938"/>
     <use xlink:href="#DejaVuSans-6c" x="128.710938"/>
     <use xlink:href="#DejaVuSans-6f" x="156.494141"/>
     <use xlink:href="#DejaVuSans-73" x="217.675781"/>
     <use xlink:href="#DejaVuSans-73" x="269.775391"/>
     <use xlink:href="#DejaVuSans-20" x="321.875"/>
     <use xlink:href="#DejaVuSans-7e" x="353.662109"/>
     <use xlink:href="#DejaVuSans-20" x="437.451172"/>
     <use xlink:href="#DejaVuSans-36" x="469.238281"/>
     <use xlink:href="#DejaVuSans-31" x="532.861328"/>
     <use xlink:href="#DejaVuSans-2e" x="596.484375"/>
     <use xlink:href="#DejaVuSans-36" x="628.271484"/>
     <use xlink:href="#DejaVuSans-20" x="691.894531"/>
     <use xlink:href="#DejaVuSans-57" x="723.681641"/>
    </g>
    <!-- for T_bed = 20 C -->
    <g transform="translate(175.904188 430.09775) scale(0.16 -0.16)">
     <defs>
      <path id="DejaVuSans-66" d="M 2375 4863 
L 2375 4384 
L 1825 4384 
Q 1516 4384 1395 4259 
Q 1275 4134 1275 3809 
L 1275 3500 
L 2222 3500 
L 2222 3053 
L 1275 3053 
L 1275 0 
L 697 0 
L 697 3053 
L 147 3053 
L 147 3500 
L 697 3500 
L 697 3744 
Q 697 4328 969 4595 
Q 1241 4863 1831 4863 
L 2375 4863 
z
" transform="scale(0.015625)"/>
      <path id="DejaVuSans-54" d="M -19 4666 
L 3928 4666 
L 3928 4134 
L 2272 4134 
L 2272 0 
L 1638 0 
L 1638 4134 
L -19 4134 
L -19 4666 
z
" transform="scale(0.015625)"/>
      <path id="DejaVuSans-62" d="M 3116 1747 
Q 3116 2381 2855 2742 
Q 2594 3103 2138 3103 
Q 1681 3103 1420 2742 
Q 1159 2381 1159 1747 
Q 1159 1113 1420 752 
Q 1681 391 2138 391 
Q 2594 391 2855 752 
Q 3116 1113 3116 1747 
z
M 1159 2969 
Q 1341 3281 1617 3432 
Q 1894 3584 2278 3584 
Q 2916 3584 3314 3078 
Q 3713 2572 3713 1747 
Q 3713 922 3314 415 
Q 2916 -91 2278 -91 
Q 1894 -91 1617 61 
Q 1341 213 1159 525 
L 1159 0 
L 581 0 
L 581 4863 
L 1159 4863 
L 1159 2969 
z
" transform="scale(0.015625)"/>
      <path id="DejaVuSans-64" d="M 2906 2969 
L 2906 4863 
L 3481 4863 
L 3481 0 
L 2906 0 
L 2906 525 
Q 2725 213 2448 61 
Q 2172 -91 1784 -91 
Q 1150 -91 751 415 
Q 353 922 353 1747 
Q 353 2572 751 3078 
Q 1150 3584 1784 3584 
Q 2172 3584 2448 3432 
Q 2725 3281 2906 2969 
z
M 947 1747 
Q 947 1113 1208 752 
Q 1469 391 1925 391 
Q 2381 391 2643 752 
Q 2906 1113 2906 1747 
Q 2906 2381 2643 2742 
Q 2381 3103 1925 3103 
Q 1469 3103 1208 2742 
Q 947 2381 947 1747 
z
" transform="scale(0.015625)"/>
      <path id="DejaVuSans-3d" d="M 678 2906 
L 4684 2906 
L 4684 2381 
L 678 2381 
L 678 2906 
z
M 678 1631 
L 4684 1631 
L 4684 1100 
L 678 1100 
L 678 1631 
z
" transform="scale(0.015625)"/>
      <path id="DejaVuSans-32" d="M 1228 531 
L 3431 531 
L 3431 0 
L 469 0 
L 469 531 
Q 828 903 1448 1529 
Q 2069 2156 2228 2338 
Q 2531 2678 2651 2914 
Q 2772 3150 2772 3378 
Q 2772 3750 2511 3984 
Q 2250 4219 1831 4219 
Q 1534 4219 1204 4116 
Q 875 4013 500 3803 
L 500 4441 
Q 881 4594 1212 4672 
Q 1544 4750 1819 4750 
Q 2544 4750 2975 4387 
Q 3406 4025 3406 3419 
Q 3406 3131 3298 2873 
Q 3191 2616 2906 2266 
Q 2828 2175 2409 1742 
Q 1991 1309 1228 531 
z
" transform="scale(0.015625)"/>
      <path id="DejaVuSans-30" d="M 2034 4250 
Q 1547 4250 1301 3770 
Q 1056 3291 1056 2328 
Q 1056 1369 1301 889 
Q 1547 409 2034 409 
Q 2525 409 2770 889 
Q 3016 1369 3016 2328 
Q 3016 3291 2770 3770 
Q 2525 4250 2034 4250 
z
M 2034 4750 
Q 2819 4750 3233 4129 
Q 3647 3509 3647 2328 
Q 3647 1150 3233 529 
Q 2819 -91 2034 -91 
Q 1250 -91 836 529 
Q 422 1150 422 2328 
Q 422 3509 836 4129 
Q 1250 4750 2034 4750 
z
" transform="scale(0.015625)"/>
      <path id="DejaVuSans-43" d="M 4122 4306 
L 4122 3641 
Q 3803 3938 3442 4084 
Q 3081 4231 2675 4231 
Q 1875 4231 1450 3742 
Q 1025 3253 1025 2328 
Q 1025 1406 1450 917 
Q 1875 428 2675 428 
Q 3081 428 3442 575 
Q 3803 722 4122 1019 
L 4122 359 
Q 3791 134 3420 21 
Q 3050 -91 2638 -91 
Q 1578 -91 968 557 
Q 359 1206 359 2328 
Q 359 3453 968 4101 
Q 1578 4750 2638 4750 
Q 3056 4750 3426 4639 
Q 3797 4528 4122 4306 
z
" transform="scale(0.015625)"/>
     </defs>
     <use xlink:href="#DejaVuSans-66"/>
     <use xlink:href="#DejaVuSans-6f" x="35.205078"/>
     <use xlink:href="#DejaVuSans-72" x="96.386719"/>
     <use xlink:href="#DejaVuSans-20" x="137.5"/>
     <use xlink:href="#DejaVuSans-54" x="169.287109"/>
     <use xlink:href="#DejaVuSans-5f" x="230.371094"/>
     <use xlink:href="#DejaVuSans-62" x="280.371094"/>
     <use xlink:href="#DejaVuSans-65" x="343.847656"/>
     <use xlink:href="#DejaVuSans-64" x="405.371094"/>
     <use xlink:href="#DejaVuSans-20" x="468.847656"/>
     <use xlink:href="#DejaVuSans-3d" x="500.634766"/>
     <use xlink:href="#DejaVuSans-20" x="584.423828"/>
     <use xlink:href="#DejaVuSans-32" x="616.210938"/>
     <use xlink:href="#DejaVuSans-30" x="679.833984"/>
     <use xlink:href="#DejaVuSans-20" x="743.457031"/>
     <use xlink:href="#DejaVuSans-43" x="775.244141"/>
    </g>
   </g>
   <g id="text_2">
    <!-- Conservative safety cap -->
    <g transform="translate(468.189688 376.12575) scale(0.16 -0.16)">
     <defs>
      <path id="DejaVuSans-76" d="M 191 3500 
L 800 3500 
L 1894 563 
L 2988 3500 
L 3597 3500 
L 2284 0 
L 1503 0 
L 191 3500 
z
" transform="scale(0.015625)"/>
      <path id="DejaVuSans-61" d="M 2194 1759 
Q 1497 1759 1228 1600 
Q 959 1441 959 1056 
Q 959 750 1161 570 
Q 1363 391 1709 391 
Q 2188 391 2477 730 
Q 2766 1069 2766 1631 
L 2766 1759 
L 2194 1759 
z
M 3341 1997 
L 3341 0 
L 2766 0 
L 2766 531 
Q 2569 213 2275 61 
Q 1981 -91 1556 -91 
Q 1019 -91 701 211 
Q 384 513 384 1019 
Q 384 1609 779 1909 
Q 1175 2209 1959 2209 
L 2766 2209 
L 2766 2266 
Q 2766 2663 2505 2880 
Q 2244 3097 1772 3097 
Q 1472 3097 1187 3025 
Q 903 2953 641 2809 
L 641 3341 
Q 956 3463 1253 3523 
Q 1550 3584 1831 3584 
Q 2591 3584 2966 3190 
Q 3341 2797 3341 1997 
z
" transform="scale(0.015625)"/>
      <path id="DejaVuSans-79" d="M 2059 -325 
Q 1816 -950 1584 -1140 
Q 1353 -1331 966 -1331 
L 506 -1331 
L 506 -850 
L 844 -850 
Q 1081 -850 1212 -737 
Q 1344 -625 1503 -206 
L 1606 56 
L 191 3500 
L 800 3500 
L 1894 763 
L 2988 3500 
L 3597 3500 
L 2059 -325 
z
" transform="scale(0.015625)"/>
      <path id="DejaVuSans-63" d="M 3122 3366 
L 3122 2828 
Q 2878 2963 2633 3030 
Q 2388 3097 2138 3097 
Q 1578 3097 1268 2742 
Q 959 2388 959 1747 
Q 959 1106 1268 751 
Q 1578 397 2138 397 
Q 2388 397 2633 464 
Q 2878 531 3122 666 
L 3122 134 
Q 2881 22 2623 -34 
Q 2366 -91 2075 -91 
Q 1284 -91 818 406 
Q 353 903 353 1747 
Q 353 2603 823 3093 
Q 1294 3584 2113 3584 
Q 2378 3584 2631 3529 
Q 2884 3475 3122 3366 
z
" transform="scale(0.015625)"/>
      <path id="DejaVuSans-70" d="M 1159 525 
L 1159 -1331 
L 581 -1331 
L 581 3500 
L 1159 3500 
L 1159 2969 
Q 1341 3281 1617 3432 
Q 1894 3584 2278 3584 
Q 2916 3584 3314 3078 
Q 3713 2572 3713 1747 
Q 3713 922 3314 415 
Q 2916 -91 2278 -91 
Q 1894 -91 1617 61 
Q 1341 213 1159 525 
z
M 3116 1747 
Q 3116 2381 2855 2742 
Q 2594 3103 2138 3103 
Q 1681 3103 1420 2742 
Q 1159 2381 1159 1747 
Q 1159 1113 1420 752 
Q 1681 391 2138 391 
Q 2594 391 2855 752 
Q 3116 1113 3116 1747 
z
" transform="scale(0.015625)"/>
     </defs>
     <use xlink:href="#DejaVuSans-43"/>
     <use xlink:href="#DejaVuSans-6f" x="69.824219"/>
     <use xlink:href="#DejaVuSans-6e" x="131.005859"/>
     <use xlink:href="#DejaVuSans-73" x="194.384766"/>
     <use xlink:href="#DejaVuSans-65" x="246.484375"/>
     <use xlink:href="#DejaVuSans-72" x="308.007812"/>
     <use xlink:href="#DejaVuSans-76" x="349.121094"/>
     <use xlink:href="#DejaVuSans-61" x="408.300781"/>
     <use xlink:href="#DejaVuSans-74" x="469.580078"/>
     <use xlink:href="#DejaVuSans-69" x="508.789062"/>
     <use xlink:href="#DejaVuSans-76" x="536.572266"/>
     <use xlink:href="#DejaVuSans-65" x="595.751953"/>
     <use xlink:href="#DejaVuSans-20" x="657.275391"/>
     <use xlink:href="#DejaVuSans-73" x="689.0625"/>
     <use xlink:href="#DejaVuSans-61" x="741.162109"/>
     <use xlink:href="#DejaVuSans-66" x="802.441406"/>
     <use xlink:href="#DejaVuSans-65" x="837.646484"/>
     <use xlink:href="#DejaVuSans-74" x="899.169922"/>
     <use xlink:href="#DejaVuSans-79" x="938.378906"/>
     <use xlink:href="#DejaVuSans-20" x="997.558594"/>
     <use xlink:href="#DejaVuSans-63" x="1029.345703"/>
     <use xlink:href="#DejaVuSans-61" x="1084.326172"/>
     <use xlink:href="#DejaVuSans-70" x="1145.605469"/>
    </g>
    <!--  -->
    <g transform="translate(564.918438 394.04225) scale(0.16 -0.16)"/>
    <!-- T_injected &lt;= 30 C -->
    <g transform="translate(487.257188 411.95875) scale(0.16 -0.16)">
     <defs>
      <path id="DejaVuSans-6a" d="M 603 3500 
L 1178 3500 
L 1178 -63 
Q 1178 -731 923 -1031 
Q 669 -1331 103 -1331 
L -116 -1331 
L -116 -844 
L 38 -844 
Q 366 -844 484 -692 
Q 603 -541 603 -63 
L 603 3500 
z
M 603 4863 
L 1178 4863 
L 1178 4134 
L 603 4134 
L 603 4863 
z
" transform="scale(0.015625)"/>
      <path id="DejaVuSans-3c" d="M 4684 3150 
L 1459 2003 
L 4684 863 
L 4684 294 
L 678 1747 
L 678 2266 
L 4684 3719 
L 4684 3150 
z
" transform="scale(0.015625)"/>
      <path id="DejaVuSans-33" d="M 2597 2516 
Q 3050 2419 3304 2112 
Q 3559 1806 3559 1356 
Q 3559 666 3084 287 
Q 2609 -91 1734 -91 
Q 1441 -91 1130 -33 
Q 819 25 488 141 
L 488 750 
Q 750 597 1062 519 
Q 1375 441 1716 441 
Q 2309 441 2620 675 
Q 2931 909 2931 1356 
Q 2931 1769 2642 2001 
Q 2353 2234 1838 2234 
L 1294 2234 
L 1294 2753 
L 1863 2753 
Q 2328 2753 2575 2939 
Q 2822 3125 2822 3475 
Q 2822 3834 2567 4026 
Q 2313 4219 1838 4219 
Q 1578 4219 1281 4162 
Q 984 4106 628 3988 
L 628 4550 
Q 988 4650 1302 4700 
Q 1616 4750 1894 4750 
Q 2613 4750 3031 4423 
Q 3450 4097 3450 3541 
Q 3450 3153 3228 2886 
Q 3006 2619 2597 2516 
z
" transform="scale(0.015625)"/>
     </defs>
     <use xlink:href="#DejaVuSans-54"/>
     <use xlink:href="#DejaVuSans-5f" x="61.083984"/>
     <use xlink:href="#DejaVuSans-69" x="111.083984"/>
     <use xlink:href="#DejaVuSans-6e" x="138.867188"/>
     <use xlink:href="#DejaVuSans-6a" x="202.246094"/>
     <use xlink:href="#DejaVuSans-65" x="230.029297"/>
     <use xlink:href="#DejaVuSans-63" x="291.552734"/>
     <use xlink:href="#DejaVuSans-74" x="346.533203"/>
     <use xlink:href="#DejaVuSans-65" x="385.742188"/>
     <use xlink:href="#DejaVuSans-64" x="447.265625"/>
     <use xlink:href="#DejaVuSans-20" x="510.742188"/>
     <use xlink:href="#DejaVuSans-3c" x="542.529297"/>
     <use xlink:href="#DejaVuSans-3d" x="626.318359"/>
     <use xlink:href="#DejaVuSans-20" x="710.107422"/>
     <use xlink:href="#DejaVuSans-33" x="741.894531"/>
     <use xlink:href="#DejaVuSans-30" x="805.517578"/>
     <use xlink:href="#DejaVuSans-20" x="869.140625"/>
     <use xlink:href="#DejaVuSans-43" x="900.927734"/>
    </g>
    <!-- so usable DeltaT = 10 C -->
    <g transform="translate(468.079688 430.32025) scale(0.16 -0.16)">
     <defs>
      <path id="DejaVuSans-44" d="M 1259 4147 
L 1259 519 
L 2022 519 
Q 2988 519 3436 956 
Q 3884 1394 3884 2338 
Q 3884 3275 3436 3711 
Q 2988 4147 2022 4147 
L 1259 4147 
z
M 628 4666 
L 1925 4666 
Q 3281 4666 3915 4102 
Q 4550 3538 4550 2338 
Q 4550 1131 3912 565 
Q 3275 0 1925 0 
L 628 0 
L 628 4666 
z
" transform="scale(0.015625)"/>
     </defs>
     <use xlink:href="#DejaVuSans-73"/>
     <use xlink:href="#DejaVuSans-6f" x="52.099609"/>
     <use xlink:href="#DejaVuSans-20" x="113.28125"/>
     <use xlink:href="#DejaVuSans-75" x="145.068359"/>
     <use xlink:href="#DejaVuSans-73" x="208.447266"/>
     <use xlink:href="#DejaVuSans-61" x="260.546875"/>
     <use xlink:href="#DejaVuSans-62" x="321.826172"/>
     <use xlink:href="#DejaVuSans-6c" x="385.302734"/>
     <use xlink:href="#DejaVuSans-65" x="413.085938"/>
     <use xlink:href="#DejaVuSans-20" x="474.609375"/>
     <use xlink:href="#DejaVuSans-44" x="506.396484"/>
     <use xlink:href="#DejaVuSans-65" x="583.398438"/>
     <use xlink:href="#DejaVuSans-6c" x="644.921875"/>
     <use xlink:href="#DejaVuSans-74" x="672.705078"/>
     <use xlink:href="#DejaVuSans-61" x="711.914062"/>
     <use xlink:href="#DejaVuSans-54" x="773.193359"/>
     <use xlink:href="#DejaVuSans-20" x="834.277344"/>
     <use xlink:href="#DejaVuSans-3d" x="866.064453"/>
     <use xlink:href="#DejaVuSans-20" x="949.853516"/>
     <use xlink:href="#DejaVuSans-31" x="981.640625"/>
     <use xlink:href="#DejaVuSans-30" x="1045.263672"/>
     <use xlink:href="#DejaVuSans-20" x="1108.886719"/>
     <use xlink:href="#DejaVuSans-43" x="1140.673828"/>
    </g>
   </g>
   <g id="text_3">
    <!-- Thermodynamic limit -->
    <g transform="translate(801.272688 375.90325) scale(0.16 -0.16)">
     <defs>
      <path id="DejaVuSans-68" d="M 3513 2113 
L 3513 0 
L 2938 0 
L 2938 2094 
Q 2938 2591 2744 2837 
Q 2550 3084 2163 3084 
Q 1697 3084 1428 2787 
Q 1159 2491 1159 1978 
L 1159 0 
L 581 0 
L 581 4863 
L 1159 4863 
L 1159 2956 
Q 1366 3272 1645 3428 
Q 1925 3584 2291 3584 
Q 2894 3584 3203 3211 
Q 3513 2838 3513 2113 
z
" transform="scale(0.015625)"/>
     </defs>
     <use xlink:href="#DejaVuSans-54"/>
     <use xlink:href="#DejaVuSans-68" x="61.083984"/>
     <use xlink:href="#DejaVuSans-65" x="124.462891"/>
     <use xlink:href="#DejaVuSans-72" x="185.986328"/>
     <use xlink:href="#DejaVuSans-6d" x="225.349609"/>
     <use xlink:href="#DejaVuSans-6f" x="322.761719"/>
     <use xlink:href="#DejaVuSans-64" x="383.943359"/>
     <use xlink:href="#DejaVuSans-79" x="447.419922"/>
     <use xlink:href="#DejaVuSans-6e" x="506.599609"/>
     <use xlink:href="#DejaVuSans-61" x="569.978516"/>
     <use xlink:href="#DejaVuSans-6d" x="631.257812"/>
     <use xlink:href="#DejaVuSans-69" x="728.669922"/>
     <use xlink:href="#DejaVuSans-63" x="756.453125"/>
     <use xlink:href="#DejaVuSans-20" x="811.433594"/>
     <use xlink:href="#DejaVuSans-6c" x="843.220703"/>
     <use xlink:href="#DejaVuSans-69" x="871.003906"/>
     <use xlink:href="#DejaVuSans-6d" x="898.787109"/>
     <use xlink:href="#DejaVuSans-69" x="996.199219"/>
     <use xlink:href="#DejaVuSans-74" x="1023.982422"/>
    </g>
    <!--  -->
    <g transform="translate(886.326438 393.81975) scale(0.16 -0.16)"/>
    <!-- Q = m_dot c_p -->
    <g transform="translate(827.317688 411.73625) scale(0.16 -0.16)">
     <use xlink:href="#DejaVuSans-51"/>
     <use xlink:href="#DejaVuSans-20" x="78.710938"/>
     <use xlink:href="#DejaVuSans-3d" x="110.498047"/>
     <use xlink:href="#DejaVuSans-20" x="194.287109"/>
     <use xlink:href="#DejaVuSans-6d" x="226.074219"/>
     <use xlink:href="#DejaVuSans-5f" x="323.486328"/>
     <use xlink:href="#DejaVuSans-64" x="373.486328"/>
     <use xlink:href="#DejaVuSans-6f" x="436.962891"/>
     <use xlink:href="#DejaVuSans-74" x="498.144531"/>
     <use xlink:href="#DejaVuSans-20" x="537.353516"/>
     <use xlink:href="#DejaVuSans-63" x="569.140625"/>
     <use xlink:href="#DejaVuSans-5f" x="624.121094"/>
     <use xlink:href="#DejaVuSans-70" x="674.121094"/>
    </g>
    <!-- (T_injected - T_bed) -->
    <g transform="translate(807.286438 430.09775) scale(0.16 -0.16)">
     <defs>
      <path id="DejaVuSans-28" d="M 1984 4856 
Q 1566 4138 1362 3434 
Q 1159 2731 1159 2009 
Q 1159 1288 1364 580 
Q 1569 -128 1984 -844 
L 1484 -844 
Q 1016 -109 783 600 
Q 550 1309 550 2009 
Q 550 2706 781 3412 
Q 1013 4119 1484 4856 
L 1984 4856 
z
" transform="scale(0.015625)"/>
      <path id="DejaVuSans-2d" d="M 313 2009 
L 1997 2009 
L 1997 1497 
L 313 1497 
L 313 2009 
z
" transform="scale(0.015625)"/>
      <path id="DejaVuSans-29" d="M 513 4856 
L 1013 4856 
Q 1481 4119 1714 3412 
Q 1947 2706 1947 2009 
Q 1947 1309 1714 600 
Q 1481 -109 1013 -844 
L 513 -844 
Q 928 -128 1133 580 
Q 1338 1288 1338 2009 
Q 1338 2731 1133 3434 
Q 928 4138 513 4856 
z
" transform="scale(0.015625)"/>
     </defs>
     <use xlink:href="#DejaVuSans-28"/>
     <use xlink:href="#DejaVuSans-54" x="39.013672"/>
     <use xlink:href="#DejaVuSans-5f" x="100.097656"/>
     <use xlink:href="#DejaVuSans-69" x="150.097656"/>
     <use xlink:href="#DejaVuSans-6e" x="177.880859"/>
     <use xlink:href="#DejaVuSans-6a" x="241.259766"/>
     <use xlink:href="#DejaVuSans-65" x="269.042969"/>
     <use xlink:href="#DejaVuSans-63" x="330.566406"/>
     <use xlink:href="#DejaVuSans-74" x="385.546875"/>
     <use xlink:href="#DejaVuSans-65" x="424.755859"/>
     <use xlink:href="#DejaVuSans-64" x="486.279297"/>
     <use xlink:href="#DejaVuSans-20" x="549.755859"/>
     <use xlink:href="#DejaVuSans-2d" x="581.542969"/>
     <use xlink:href="#DejaVuSans-20" x="617.626953"/>
     <use xlink:href="#DejaVuSans-54" x="649.414062"/>
     <use xlink:href="#DejaVuSans-5f" x="710.498047"/>
     <use xlink:href="#DejaVuSans-62" x="760.498047"/>
     <use xlink:href="#DejaVuSans-65" x="823.974609"/>
     <use xlink:href="#DejaVuSans-64" x="885.498047"/>
     <use xlink:href="#DejaVuSans-29" x="948.974609"/>
    </g>
   </g>
   <g id="text_4">
    <!-- Verified model consequence -->
    <g transform="translate(451.679688 198.94025) scale(0.16 -0.16)">
     <defs>
      <path id="DejaVuSans-56" d="M 1831 0 
L 50 4666 
L 709 4666 
L 2188 738 
L 3669 4666 
L 4325 4666 
L 2547 0 
L 1831 0 
z
" transform="scale(0.015625)"/>
     </defs>
     <use xlink:href="#DejaVuSans-56"/>
     <use xlink:href="#DejaVuSans-65" x="60.658203"/>
     <use xlink:href="#DejaVuSans-72" x="122.181641"/>
     <use xlink:href="#DejaVuSans-69" x="163.294922"/>
     <use xlink:href="#DejaVuSans-66" x="191.078125"/>
     <use xlink:href="#DejaVuSans-69" x="226.283203"/>
     <use xlink:href="#DejaVuSans-65" x="254.066406"/>
     <use xlink:href="#DejaVuSans-64" x="315.589844"/>
     <use xlink:href="#DejaVuSans-20" x="379.066406"/>
     <use xlink:href="#DejaVuSans-6d" x="410.853516"/>
     <use xlink:href="#DejaVuSans-6f" x="508.265625"/>
     <use xlink:href="#DejaVuSans-64" x="569.447266"/>
     <use xlink:href="#DejaVuSans-65" x="632.923828"/>
     <use xlink:href="#DejaVuSans-6c" x="694.447266"/>
     <use xlink:href="#DejaVuSans-20" x="722.230469"/>
     <use xlink:href="#DejaVuSans-63" x="754.017578"/>
     <use xlink:href="#DejaVuSans-6f" x="808.998047"/>
     <use xlink:href="#DejaVuSans-6e" x="870.179688"/>
     <use xlink:href="#DejaVuSans-73" x="933.558594"/>
     <use xlink:href="#DejaVuSans-65" x="985.658203"/>
     <use xlink:href="#DejaVuSans-71" x="1047.181641"/>
     <use xlink:href="#DejaVuSans-75" x="1110.658203"/>
     <use xlink:href="#DejaVuSans-65" x="1174.037109"/>
     <use xlink:href="#DejaVuSans-6e" x="1235.560547"/>
     <use xlink:href="#DejaVuSans-63" x="1298.939453"/>
     <use xlink:href="#DejaVuSans-65" x="1353.919922"/>
    </g>
    <!--  -->
    <g transform="translate(564.918438 216.85675) scale(0.16 -0.16)"/>
    <!-- Minimum total flow for 30 C injection cap: -->
    <g transform="translate(397.278438 234.77325) scale(0.16 -0.16)">
     <defs>
      <path id="DejaVuSans-4d" d="M 628 4666 
L 1569 4666 
L 2759 1491 
L 3956 4666 
L 4897 4666 
L 4897 0 
L 4281 0 
L 4281 4097 
L 3078 897 
L 2444 897 
L 1241 4097 
L 1241 0 
L 628 0 
L 628 4666 
z
" transform="scale(0.015625)"/>
      <path id="DejaVuSans-77" d="M 269 3500 
L 844 3500 
L 1563 769 
L 2278 3500 
L 2956 3500 
L 3675 769 
L 4391 3500 
L 4966 3500 
L 4050 0 
L 3372 0 
L 2619 2869 
L 1863 0 
L 1184 0 
L 269 3500 
z
" transform="scale(0.015625)"/>
      <path id="DejaVuSans-3a" d="M 750 794 
L 1409 794 
L 1409 0 
L 750 0 
L 750 794 
z
M 750 3309 
L 1409 3309 
L 1409 2516 
L 750 2516 
L 750 3309 
z
" transform="scale(0.015625)"/>
     </defs>
     <use xlink:href="#DejaVuSans-4d"/>
     <use xlink:href="#DejaVuSans-69" x="86.279297"/>
     <use xlink:href="#DejaVuSans-6e" x="114.0625"/>
     <use xlink:href="#DejaVuSans-69" x="177.441406"/>
     <use xlink:href="#DejaVuSans-6d" x="205.224609"/>
     <use xlink:href="#DejaVuSans-75" x="302.636719"/>
     <use xlink:href="#DejaVuSans-6d" x="366.015625"/>
     <use xlink:href="#DejaVuSans-20" x="463.427734"/>
     <use xlink:href="#DejaVuSans-74" x="495.214844"/>
     <use xlink:href="#DejaVuSans-6f" x="534.423828"/>
     <use xlink:href="#DejaVuSans-74" x="595.605469"/>
     <use xlink:href="#DejaVuSans-61" x="634.814453"/>
     <use xlink:href="#DejaVuSans-6c" x="696.09375"/>
     <use xlink:href="#DejaVuSans-20" x="723.876953"/>
     <use xlink:href="#DejaVuSans-66" x="755.664062"/>
     <use xlink:href="#DejaVuSans-6c" x="790.869141"/>
     <use xlink:href="#DejaVuSans-6f" x="818.652344"/>
     <use xlink:href="#DejaVuSans-77" x="879.833984"/>
     <use xlink:href="#DejaVuSans-20" x="961.621094"/>
     <use xlink:href="#DejaVuSans-66" x="993.408203"/>
     <use xlink:href="#DejaVuSans-6f" x="1028.613281"/>
     <use xlink:href="#DejaVuSans-72" x="1089.794922"/>
     <use xlink:href="#DejaVuSans-20" x="1130.908203"/>
     <use xlink:href="#DejaVuSans-33" x="1162.695312"/>
     <use xlink:href="#DejaVuSans-30" x="1226.318359"/>
     <use xlink:href="#DejaVuSans-20" x="1289.941406"/>
     <use xlink:href="#DejaVuSans-43" x="1321.728516"/>
     <use xlink:href="#DejaVuSans-20" x="1391.552734"/>
     <use xlink:href="#DejaVuSans-69" x="1423.339844"/>
     <use xlink:href="#DejaVuSans-6e" x="1451.123047"/>
     <use xlink:href="#DejaVuSans-6a" x="1514.501953"/>
     <use xlink:href="#DejaVuSans-65" x="1542.285156"/>
     <use xlink:href="#DejaVuSans-63" x="1603.808594"/>
     <use xlink:href="#DejaVuSans-74" x="1658.789062"/>
     <use xlink:href="#DejaVuSans-69" x="1697.998047"/>
     <use xlink:href="#DejaVuSans-6f" x="1725.78125"/>
     <use xlink:href="#DejaVuSans-6e" x="1786.962891"/>
     <use xlink:href="#DejaVuSans-20" x="1850.341797"/>
     <use xlink:href="#DejaVuSans-63" x="1882.128906"/>
     <use xlink:href="#DejaVuSans-61" x="1937.109375"/>
     <use xlink:href="#DejaVuSans-70" x="1998.388672"/>
     <use xlink:href="#DejaVuSans-3a" x="2061.865234"/>
    </g>
    <!-- ~268 L/min at 100% duty, ~1342 L/min at 20% duty -->
    <g transform="translate(353.210938 252.68975) scale(0.16 -0.16)">
     <defs>
      <path id="DejaVuSans-38" d="M 2034 2216 
Q 1584 2216 1326 1975 
Q 1069 1734 1069 1313 
Q 1069 891 1326 650 
Q 1584 409 2034 409 
Q 2484 409 2743 651 
Q 3003 894 3003 1313 
Q 3003 1734 2745 1975 
Q 2488 2216 2034 2216 
z
M 1403 2484 
Q 997 2584 770 2862 
Q 544 3141 544 3541 
Q 544 4100 942 4425 
Q 1341 4750 2034 4750 
Q 2731 4750 3128 4425 
Q 3525 4100 3525 3541 
Q 3525 3141 3298 2862 
Q 3072 2584 2669 2484 
Q 3125 2378 3379 2068 
Q 3634 1759 3634 1313 
Q 3634 634 3220 271 
Q 2806 -91 2034 -91 
Q 1263 -91 848 271 
Q 434 634 434 1313 
Q 434 1759 690 2068 
Q 947 2378 1403 2484 
z
M 1172 3481 
Q 1172 3119 1398 2916 
Q 1625 2713 2034 2713 
Q 2441 2713 2670 2916 
Q 2900 3119 2900 3481 
Q 2900 3844 2670 4047 
Q 2441 4250 2034 4250 
Q 1625 4250 1398 4047 
Q 1172 3844 1172 3481 
z
" transform="scale(0.015625)"/>
      <path id="DejaVuSans-4c" d="M 628 4666 
L 1259 4666 
L 1259 531 
L 3531 531 
L 3531 0 
L 628 0 
L 628 4666 
z
" transform="scale(0.015625)"/>
      <path id="DejaVuSans-2f" d="M 1625 4666 
L 2156 4666 
L 531 -594 
L 0 -594 
L 1625 4666 
z
" transform="scale(0.015625)"/>
      <path id="DejaVuSans-25" d="M 4653 2053 
Q 4381 2053 4226 1822 
Q 4072 1591 4072 1178 
Q 4072 772 4226 539 
Q 4381 306 4653 306 
Q 4919 306 5073 539 
Q 5228 772 5228 1178 
Q 5228 1588 5073 1820 
Q 4919 2053 4653 2053 
z
M 4653 2450 
Q 5147 2450 5437 2106 
Q 5728 1763 5728 1178 
Q 5728 594 5436 251 
Q 5144 -91 4653 -91 
Q 4153 -91 3862 251 
Q 3572 594 3572 1178 
Q 3572 1766 3864 2108 
Q 4156 2450 4653 2450 
z
M 1428 4353 
Q 1159 4353 1004 4120 
Q 850 3888 850 3481 
Q 850 3069 1003 2837 
Q 1156 2606 1428 2606 
Q 1700 2606 1854 2837 
Q 2009 3069 2009 3481 
Q 2009 3884 1853 4118 
Q 1697 4353 1428 4353 
z
M 4250 4750 
L 4750 4750 
L 1831 -91 
L 1331 -91 
L 4250 4750 
z
M 1428 4750 
Q 1922 4750 2215 4408 
Q 2509 4066 2509 3481 
Q 2509 2891 2217 2550 
Q 1925 2209 1428 2209 
Q 931 2209 642 2551 
Q 353 2894 353 3481 
Q 353 4063 643 4406 
Q 934 4750 1428 4750 
z
" transform="scale(0.015625)"/>
      <path id="DejaVuSans-2c" d="M 750 794 
L 1409 794 
L 1409 256 
L 897 -744 
L 494 -744 
L 750 256 
L 750 794 
z
" transform="scale(0.015625)"/>
      <path id="DejaVuSans-34" d="M 2419 4116 
L 825 1625 
L 2419 1625 
L 2419 4116 
z
M 2253 4666 
L 3047 4666 
L 3047 1625 
L 3713 1625 
L 3713 1100 
L 3047 1100 
L 3047 0 
L 2419 0 
L 2419 1100 
L 313 1100 
L 313 1709 
L 2253 4666 
z
" transform="scale(0.015625)"/>
     </defs>
     <use xlink:href="#DejaVuSans-7e"/>
     <use xlink:href="#DejaVuSans-32" x="83.789062"/>
     <use xlink:href="#DejaVuSans-36" x="147.412109"/>
     <use xlink:href="#DejaVuSans-38" x="211.035156"/>
     <use xlink:href="#DejaVuSans-20" x="274.658203"/>
     <use xlink:href="#DejaVuSans-4c" x="306.445312"/>
     <use xlink:href="#DejaVuSans-2f" x="362.158203"/>
     <use xlink:href="#DejaVuSans-6d" x="395.849609"/>
     <use xlink:href="#DejaVuSans-69" x="493.261719"/>
     <use xlink:href="#DejaVuSans-6e" x="521.044922"/>
     <use xlink:href="#DejaVuSans-20" x="584.423828"/>
     <use xlink:href="#DejaVuSans-61" x="616.210938"/>
     <use xlink:href="#DejaVuSans-74" x="677.490234"/>
     <use xlink:href="#DejaVuSans-20" x="716.699219"/>
     <use xlink:href="#DejaVuSans-31" x="748.486328"/>
     <use xlink:href="#DejaVuSans-30" x="812.109375"/>
     <use xlink:href="#DejaVuSans-30" x="875.732422"/>
     <use xlink:href="#DejaVuSans-25" x="939.355469"/>
     <use xlink:href="#DejaVuSans-20" x="1034.375"/>
     <use xlink:href="#DejaVuSans-64" x="1066.162109"/>
     <use xlink:href="#DejaVuSans-75" x="1129.638672"/>
     <use xlink:href="#DejaVuSans-74" x="1193.017578"/>
     <use xlink:href="#DejaVuSans-79" x="1232.226562"/>
     <use xlink:href="#DejaVuSans-2c" x="1291.40625"/>
     <use xlink:href="#DejaVuSans-20" x="1323.193359"/>
     <use xlink:href="#DejaVuSans-7e" x="1354.980469"/>
     <use xlink:href="#DejaVuSans-31" x="1438.769531"/>
     <use xlink:href="#DejaVuSans-33" x="1502.392578"/>
     <use xlink:href="#DejaVuSans-34" x="1566.015625"/>
     <use xlink:href="#DejaVuSans-32" x="1629.638672"/>
     <use xlink:href="#DejaVuSans-20" x="1693.261719"/>
     <use xlink:href="#DejaVuSans-4c" x="1725.048828"/>
     <use xlink:href="#DejaVuSans-2f" x="1780.761719"/>
     <use xlink:href="#DejaVuSans-6d" x="1814.453125"/>
     <use xlink:href="#DejaVuSans-69" x="1911.865234"/>
     <use xlink:href="#DejaVuSans-6e" x="1939.648438"/>
     <use xlink:href="#DejaVuSans-20" x="2003.027344"/>
     <use xlink:href="#DejaVuSans-61" x="2034.814453"/>
     <use xlink:href="#DejaVuSans-74" x="2096.09375"/>
     <use xlink:href="#DejaVuSans-20" x="2135.302734"/>
     <use xlink:href="#DejaVuSans-32" x="2167.089844"/>
     <use xlink:href="#DejaVuSans-30" x="2230.712891"/>
     <use xlink:href="#DejaVuSans-25" x="2294.335938"/>
     <use xlink:href="#DejaVuSans-20" x="2389.355469"/>
     <use xlink:href="#DejaVuSans-64" x="2421.142578"/>
     <use xlink:href="#DejaVuSans-75" x="2484.619141"/>
     <use xlink:href="#DejaVuSans-74" x="2547.998047"/>
     <use xlink:href="#DejaVuSans-79" x="2587.207031"/>
    </g>
   </g>
   <g id="text_5">
    <!-- Adding more parallel tubes reduces local branch outlet temperature and improves heat distribution, but it does not remove the m_dot c_p DeltaT requirement. -->
    <g transform="translate(7.2 563.252437) scale(0.14 -0.14)">
     <defs>
      <path id="DejaVuSans-41" d="M 2188 4044 
L 1331 1722 
L 3047 1722 
L 2188 4044 
z
M 1831 4666 
L 2547 4666 
L 4325 0 
L 3669 0 
L 3244 1197 
L 1141 1197 
L 716 0 
L 50 0 
L 1831 4666 
z
" transform="scale(0.015625)"/>
      <path id="DejaVuSans-67" d="M 2906 1791 
Q 2906 2416 2648 2759 
Q 2391 3103 1925 3103 
Q 1463 3103 1205 2759 
Q 947 2416 947 1791 
Q 947 1169 1205 825 
Q 1463 481 1925 481 
Q 2391 481 2648 825 
Q 2906 1169 2906 1791 
z
M 3481 434 
Q 3481 -459 3084 -895 
Q 2688 -1331 1869 -1331 
Q 1566 -1331 1297 -1286 
Q 1028 -1241 775 -1147 
L 775 -588 
Q 1028 -725 1275 -790 
Q 1522 -856 1778 -856 
Q 2344 -856 2625 -561 
Q 2906 -266 2906 331 
L 2906 616 
Q 2728 306 2450 153 
Q 2172 0 1784 0 
Q 1141 0 747 490 
Q 353 981 353 1791 
Q 353 2603 747 3093 
Q 1141 3584 1784 3584 
Q 2172 3584 2450 3431 
Q 2728 3278 2906 2969 
L 2906 3500 
L 3481 3500 
L 3481 434 
z
" transform="scale(0.015625)"/>
     </defs>
     <use xlink:href="#DejaVuSans-41"/>
     <use xlink:href="#DejaVuSans-64" x="66.658203"/>
     <use xlink:href="#DejaVuSans-64" x="130.134766"/>
     <use xlink:href="#DejaVuSans-69" x="193.611328"/>
     <use xlink:href="#DejaVuSans-6e" x="221.394531"/>
     <use xlink:href="#DejaVuSans-67" x="284.773438"/>
     <use xlink:href="#DejaVuSans-20" x="348.25"/>
     <use xlink:href="#DejaVuSans-6d" x="380.037109"/>
     <use xlink:href="#DejaVuSans-6f" x="477.449219"/>
     <use xlink:href="#DejaVuSans-72" x="538.630859"/>
     <use xlink:href="#DejaVuSans-65" x="577.494141"/>
     <use xlink:href="#DejaVuSans-20" x="639.017578"/>
     <use xlink:href="#DejaVuSans-70" x="670.804688"/>
     <use xlink:href="#DejaVuSans-61" x="734.28125"/>
     <use xlink:href="#DejaVuSans-72" x="795.560547"/>
     <use xlink:href="#DejaVuSans-61" x="836.673828"/>
     <use xlink:href="#DejaVuSans-6c" x="897.953125"/>
     <use xlink:href="#DejaVuSans-6c" x="925.736328"/>
     <use xlink:href="#DejaVuSans-65" x="953.519531"/>
     <use xlink:href="#DejaVuSans-6c" x="1015.042969"/>
     <use xlink:href="#DejaVuSans-20" x="1042.826172"/>
     <use xlink:href="#DejaVuSans-74" x="1074.613281"/>
     <use xlink:href="#DejaVuSans-75" x="1113.822266"/>
     <use xlink:href="#DejaVuSans-62" x="1177.201172"/>
     <use xlink:href="#DejaVuSans-65" x="1240.677734"/>
     <use xlink:href="#DejaVuSans-73" x="1302.201172"/>
     <use xlink:href="#DejaVuSans-20" x="1354.300781"/>
     <use xlink:href="#DejaVuSans-72" x="1386.087891"/>
     <use xlink:href="#DejaVuSans-65" x="1424.951172"/>
     <use xlink:href="#DejaVuSans-64" x="1486.474609"/>
     <use xlink:href="#DejaVuSans-75" x="1549.951172"/>
     <use xlink:href="#DejaVuSans-63" x="1613.330078"/>
     <use xlink:href="#DejaVuSans-65" x="1668.310547"/>
     <use xlink:href="#DejaVuSans-73" x="1729.833984"/>
     <use xlink:href="#DejaVuSans-20" x="1781.933594"/>
     <use xlink:href="#DejaVuSans-6c" x="1813.720703"/>
     <use xlink:href="#DejaVuSans-6f" x="1841.503906"/>
     <use xlink:href="#DejaVuSans-63" x="1902.685547"/>
     <use xlink:href="#DejaVuSans-61" x="1957.666016"/>
     <use xlink:href="#DejaVuSans-6c" x="2018.945312"/>
     <use xlink:href="#DejaVuSans-20" x="2046.728516"/>
     <use xlink:href="#DejaVuSans-62" x="2078.515625"/>
     <use xlink:href="#DejaVuSans-72" x="2141.992188"/>
     <use xlink:href="#DejaVuSans-61" x="2183.105469"/>
     <use xlink:href="#DejaVuSans-6e" x="2244.384766"/>
     <use xlink:href="#DejaVuSans-63" x="2307.763672"/>
     <use xlink:href="#DejaVuSans-68" x="2362.744141"/>
     <use xlink:href="#DejaVuSans-20" x="2426.123047"/>
     <use xlink:href="#DejaVuSans-6f" x="2457.910156"/>
     <use xlink:href="#DejaVuSans-75" x="2519.091797"/>
     <use xlink:href="#DejaVuSans-74" x="2582.470703"/>
     <use xlink:href="#DejaVuSans-6c" x="2621.679688"/>
     <use xlink:href="#DejaVuSans-65" x="2649.462891"/>
     <use xlink:href="#DejaVuSans-74" x="2710.986328"/>
     <use xlink:href="#DejaVuSans-20" x="2750.195312"/>
     <use xlink:href="#DejaVuSans-74" x="2781.982422"/>
     <use xlink:href="#DejaVuSans-65" x="2821.191406"/>
     <use xlink:href="#DejaVuSans-6d" x="2882.714844"/>
     <use xlink:href="#DejaVuSans-70" x="2980.126953"/>
     <use xlink:href="#DejaVuSans-65" x="3043.603516"/>
     <use xlink:href="#DejaVuSans-72" x="3105.126953"/>
     <use xlink:href="#DejaVuSans-61" x="3146.240234"/>
     <use xlink:href="#DejaVuSans-74" x="3207.519531"/>
     <use xlink:href="#DejaVuSans-75" x="3246.728516"/>
     <use xlink:href="#DejaVuSans-72" x="3310.107422"/>
     <use xlink:href="#DejaVuSans-65" x="3348.970703"/>
     <use xlink:href="#DejaVuSans-20" x="3410.494141"/>
     <use xlink:href="#DejaVuSans-61" x="3442.28125"/>
     <use xlink:href="#DejaVuSans-6e" x="3503.560547"/>
     <use xlink:href="#DejaVuSans-64" x="3566.939453"/>
     <use xlink:href="#DejaVuSans-20" x="3630.416016"/>
     <use xlink:href="#DejaVuSans-69" x="3662.203125"/>
     <use xlink:href="#DejaVuSans-6d" x="3689.986328"/>
     <use xlink:href="#DejaVuSans-70" x="3787.398438"/>
     <use xlink:href="#DejaVuSans-72" x="3850.875"/>
     <use xlink:href="#DejaVuSans-6f" x="3889.738281"/>
     <use xlink:href="#DejaVuSans-76" x="3950.919922"/>
     <use xlink:href="#DejaVuSans-65" x="4010.099609"/>
     <use xlink:href="#DejaVuSans-73" x="4071.623047"/>
     <use xlink:href="#DejaVuSans-20" x="4123.722656"/>
     <use xlink:href="#DejaVuSans-68" x="4155.509766"/>
     <use xlink:href="#DejaVuSans-65" x="4218.888672"/>
     <use xlink:href="#DejaVuSans-61" x="4280.412109"/>
     <use xlink:href="#DejaVuSans-74" x="4341.691406"/>
     <use xlink:href="#DejaVuSans-20" x="4380.900391"/>
     <use xlink:href="#DejaVuSans-64" x="4412.6875"/>
     <use xlink:href="#DejaVuSans-69" x="4476.164062"/>
     <use xlink:href="#DejaVuSans-73" x="4503.947266"/>
     <use xlink:href="#DejaVuSans-74" x="4556.046875"/>
     <use xlink:href="#DejaVuSans-72" x="4595.255859"/>
     <use xlink:href="#DejaVuSans-69" x="4636.369141"/>
     <use xlink:href="#DejaVuSans-62" x="4664.152344"/>
     <use xlink:href="#DejaVuSans-75" x="4727.628906"/>
     <use xlink:href="#DejaVuSans-74" x="4791.007812"/>
     <use xlink:href="#DejaVuSans-69" x="4830.216797"/>
     <use xlink:href="#DejaVuSans-6f" x="4858"/>
     <use xlink:href="#DejaVuSans-6e" x="4919.181641"/>
     <use xlink:href="#DejaVuSans-2c" x="4982.560547"/>
     <use xlink:href="#DejaVuSans-20" x="5014.347656"/>
     <use xlink:href="#DejaVuSans-62" x="5046.134766"/>
     <use xlink:href="#DejaVuSans-75" x="5109.611328"/>
     <use xlink:href="#DejaVuSans-74" x="5172.990234"/>
     <use xlink:href="#DejaVuSans-20" x="5212.199219"/>
     <use xlink:href="#DejaVuSans-69" x="5243.986328"/>
     <use xlink:href="#DejaVuSans-74" x="5271.769531"/>
     <use xlink:href="#DejaVuSans-20" x="5310.978516"/>
     <use xlink:href="#DejaVuSans-64" x="5342.765625"/>
     <use xlink:href="#DejaVuSans-6f" x="5406.242188"/>
     <use xlink:href="#DejaVuSans-65" x="5467.423828"/>
     <use xlink:href="#DejaVuSans-73" x="5528.947266"/>
     <use xlink:href="#DejaVuSans-20" x="5581.046875"/>
     <use xlink:href="#DejaVuSans-6e" x="5612.833984"/>
     <use xlink:href="#DejaVuSans-6f" x="5676.212891"/>
     <use xlink:href="#DejaVuSans-74" x="5737.394531"/>
     <use xlink:href="#DejaVuSans-20" x="5776.603516"/>
     <use xlink:href="#DejaVuSans-72" x="5808.390625"/>
     <use xlink:href="#DejaVuSans-65" x="5847.253906"/>
     <use xlink:href="#DejaVuSans-6d" x="5908.777344"/>
     <use xlink:href="#DejaVuSans-6f" x="6006.189453"/>
     <use xlink:href="#DejaVuSans-76" x="6067.371094"/>
     <use xlink:href="#DejaVuSans-65" x="6126.550781"/>
     <use xlink:href="#DejaVuSans-20" x="6188.074219"/>
     <use xlink:href="#DejaVuSans-74" x="6219.861328"/>
     <use xlink:href="#DejaVuSans-68" x="6259.070312"/>
     <use xlink:href="#DejaVuSans-65" x="6322.449219"/>
     <use xlink:href="#DejaVuSans-20" x="6383.972656"/>
     <use xlink:href="#DejaVuSans-6d" x="6415.759766"/>
     <use xlink:href="#DejaVuSans-5f" x="6513.171875"/>
     <use xlink:href="#DejaVuSans-64" x="6563.171875"/>
     <use xlink:href="#DejaVuSans-6f" x="6626.648438"/>
     <use xlink:href="#DejaVuSans-74" x="6687.830078"/>
     <use xlink:href="#DejaVuSans-20" x="6727.039062"/>
     <use xlink:href="#DejaVuSans-63" x="6758.826172"/>
     <use xlink:href="#DejaVuSans-5f" x="6813.806641"/>
     <use xlink:href="#DejaVuSans-70" x="6863.806641"/>
     <use xlink:href="#DejaVuSans-20" x="6927.283203"/>
     <use xlink:href="#DejaVuSans-44" x="6959.070312"/>
     <use xlink:href="#DejaVuSans-65" x="7036.072266"/>
     <use xlink:href="#DejaVuSans-6c" x="7097.595703"/>
     <use xlink:href="#DejaVuSans-74" x="7125.378906"/>
     <use xlink:href="#DejaVuSans-61" x="7164.587891"/>
     <use xlink:href="#DejaVuSans-54" x="7225.867188"/>
     <use xlink:href="#DejaVuSans-20" x="7286.951172"/>
     <use xlink:href="#DejaVuSans-72" x="7318.738281"/>
     <use xlink:href="#DejaVuSans-65" x="7357.601562"/>
     <use xlink:href="#DejaVuSans-71" x="7419.125"/>
     <use xlink:href="#DejaVuSans-75" x="7482.601562"/>
     <use xlink:href="#DejaVuSans-69" x="7545.980469"/>
     <use xlink:href="#DejaVuSans-72" x="7573.763672"/>
     <use xlink:href="#DejaVuSans-65" x="7612.626953"/>
     <use xlink:href="#DejaVuSans-6d" x="7674.150391"/>
     <use xlink:href="#DejaVuSans-65" x="7771.5625"/>
     <use xlink:href="#DejaVuSans-6e" x="7833.085938"/>
     <use xlink:href="#DejaVuSans-74" x="7896.464844"/>
     <use xlink:href="#DejaVuSans-2e" x="7935.673828"/>
    </g>
   </g>
  </g>
  <g id="text_6">
   <!-- 05. Report Diagram: Main Design Constraint -->
   <g transform="translate(273.575781 23.916562) scale(0.22 -0.22)">
    <defs>
     <path id="DejaVuSans-Bold-30" d="M 2944 2338 
Q 2944 3213 2780 3570 
Q 2616 3928 2228 3928 
Q 1841 3928 1675 3570 
Q 1509 3213 1509 2338 
Q 1509 1453 1675 1090 
Q 1841 728 2228 728 
Q 2613 728 2778 1090 
Q 2944 1453 2944 2338 
z
M 4147 2328 
Q 4147 1169 3647 539 
Q 3147 -91 2228 -91 
Q 1306 -91 806 539 
Q 306 1169 306 2328 
Q 306 3491 806 4120 
Q 1306 4750 2228 4750 
Q 3147 4750 3647 4120 
Q 4147 3491 4147 2328 
z
" transform="scale(0.015625)"/>
     <path id="DejaVuSans-Bold-35" d="M 678 4666 
L 3669 4666 
L 3669 3781 
L 1638 3781 
L 1638 3059 
Q 1775 3097 1914 3117 
Q 2053 3138 2203 3138 
Q 3056 3138 3531 2711 
Q 4006 2284 4006 1522 
Q 4006 766 3489 337 
Q 2972 -91 2053 -91 
Q 1656 -91 1267 -14 
Q 878 63 494 219 
L 494 1166 
Q 875 947 1217 837 
Q 1559 728 1863 728 
Q 2300 728 2551 942 
Q 2803 1156 2803 1522 
Q 2803 1891 2551 2103 
Q 2300 2316 1863 2316 
Q 1603 2316 1309 2248 
Q 1016 2181 678 2041 
L 678 4666 
z
" transform="scale(0.015625)"/>
     <path id="DejaVuSans-Bold-2e" d="M 653 1209 
L 1778 1209 
L 1778 0 
L 653 0 
L 653 1209 
z
" transform="scale(0.015625)"/>
     <path id="DejaVuSans-Bold-20" transform="scale(0.015625)"/>
     <path id="DejaVuSans-Bold-52" d="M 2297 2597 
Q 2675 2597 2839 2737 
Q 3003 2878 3003 3200 
Q 3003 3519 2839 3656 
Q 2675 3794 2297 3794 
L 1791 3794 
L 1791 2597 
L 2297 2597 
z
M 1791 1766 
L 1791 0 
L 588 0 
L 588 4666 
L 2425 4666 
Q 3347 4666 3776 4356 
Q 4206 4047 4206 3378 
Q 4206 2916 3982 2619 
Q 3759 2322 3309 2181 
Q 3556 2125 3751 1926 
Q 3947 1728 4147 1325 
L 4800 0 
L 3519 0 
L 2950 1159 
Q 2778 1509 2601 1637 
Q 2425 1766 2131 1766 
L 1791 1766 
z
" transform="scale(0.015625)"/>
     <path id="DejaVuSans-Bold-65" d="M 4031 1759 
L 4031 1441 
L 1416 1441 
Q 1456 1047 1700 850 
Q 1944 653 2381 653 
Q 2734 653 3104 758 
Q 3475 863 3866 1075 
L 3866 213 
Q 3469 63 3072 -14 
Q 2675 -91 2278 -91 
Q 1328 -91 801 392 
Q 275 875 275 1747 
Q 275 2603 792 3093 
Q 1309 3584 2216 3584 
Q 3041 3584 3536 3087 
Q 4031 2591 4031 1759 
z
M 2881 2131 
Q 2881 2450 2695 2645 
Q 2509 2841 2209 2841 
Q 1884 2841 1681 2658 
Q 1478 2475 1428 2131 
L 2881 2131 
z
" transform="scale(0.015625)"/>
     <path id="DejaVuSans-Bold-70" d="M 1656 506 
L 1656 -1331 
L 538 -1331 
L 538 3500 
L 1656 3500 
L 1656 2988 
Q 1888 3294 2169 3439 
Q 2450 3584 2816 3584 
Q 3463 3584 3878 3070 
Q 4294 2556 4294 1747 
Q 4294 938 3878 423 
Q 3463 -91 2816 -91 
Q 2450 -91 2169 54 
Q 1888 200 1656 506 
z
M 2400 2772 
Q 2041 2772 1848 2508 
Q 1656 2244 1656 1747 
Q 1656 1250 1848 986 
Q 2041 722 2400 722 
Q 2759 722 2948 984 
Q 3138 1247 3138 1747 
Q 3138 2247 2948 2509 
Q 2759 2772 2400 2772 
z
" transform="scale(0.015625)"/>
     <path id="DejaVuSans-Bold-6f" d="M 2203 2784 
Q 1831 2784 1636 2517 
Q 1441 2250 1441 1747 
Q 1441 1244 1636 976 
Q 1831 709 2203 709 
Q 2569 709 2762 976 
Q 2956 1244 2956 1747 
Q 2956 2250 2762 2517 
Q 2569 2784 2203 2784 
z
M 2203 3584 
Q 3106 3584 3614 3096 
Q 4122 2609 4122 1747 
Q 4122 884 3614 396 
Q 3106 -91 2203 -91 
Q 1297 -91 786 396 
Q 275 884 275 1747 
Q 275 2609 786 3096 
Q 1297 3584 2203 3584 
z
" transform="scale(0.015625)"/>
     <path id="DejaVuSans-Bold-72" d="M 3138 2547 
Q 2991 2616 2845 2648 
Q 2700 2681 2553 2681 
Q 2122 2681 1889 2404 
Q 1656 2128 1656 1613 
L 1656 0 
L 538 0 
L 538 3500 
L 1656 3500 
L 1656 2925 
Q 1872 3269 2151 3426 
Q 2431 3584 2822 3584 
Q 2878 3584 2943 3579 
Q 3009 3575 3134 3559 
L 3138 2547 
z
" transform="scale(0.015625)"/>
     <path id="DejaVuSans-Bold-74" d="M 1759 4494 
L 1759 3500 
L 2913 3500 
L 2913 2700 
L 1759 2700 
L 1759 1216 
Q 1759 972 1856 886 
Q 1953 800 2241 800 
L 2816 800 
L 2816 0 
L 1856 0 
Q 1194 0 917 276 
Q 641 553 641 1216 
L 641 2700 
L 84 2700 
L 84 3500 
L 641 3500 
L 641 4494 
L 1759 4494 
z
" transform="scale(0.015625)"/>
     <path id="DejaVuSans-Bold-44" d="M 1791 3756 
L 1791 909 
L 2222 909 
Q 2959 909 3348 1275 
Q 3738 1641 3738 2338 
Q 3738 3031 3350 3393 
Q 2963 3756 2222 3756 
L 1791 3756 
z
M 588 4666 
L 1856 4666 
Q 2919 4666 3439 4514 
Q 3959 4363 4331 4000 
Q 4659 3684 4818 3271 
Q 4978 2859 4978 2338 
Q 4978 1809 4818 1395 
Q 4659 981 4331 666 
Q 3956 303 3431 151 
Q 2906 0 1856 0 
L 588 0 
L 588 4666 
z
" transform="scale(0.015625)"/>
     <path id="DejaVuSans-Bold-69" d="M 538 3500 
L 1656 3500 
L 1656 0 
L 538 0 
L 538 3500 
z
M 538 4863 
L 1656 4863 
L 1656 3950 
L 538 3950 
L 538 4863 
z
" transform="scale(0.015625)"/>
     <path id="DejaVuSans-Bold-61" d="M 2106 1575 
Q 1756 1575 1579 1456 
Q 1403 1338 1403 1106 
Q 1403 894 1545 773 
Q 1688 653 1941 653 
Q 2256 653 2472 879 
Q 2688 1106 2688 1447 
L 2688 1575 
L 2106 1575 
z
M 3816 1997 
L 3816 0 
L 2688 0 
L 2688 519 
Q 2463 200 2181 54 
Q 1900 -91 1497 -91 
Q 953 -91 614 226 
Q 275 544 275 1050 
Q 275 1666 698 1953 
Q 1122 2241 2028 2241 
L 2688 2241 
L 2688 2328 
Q 2688 2594 2478 2717 
Q 2269 2841 1825 2841 
Q 1466 2841 1156 2769 
Q 847 2697 581 2553 
L 581 3406 
Q 941 3494 1303 3539 
Q 1666 3584 2028 3584 
Q 2975 3584 3395 3211 
Q 3816 2838 3816 1997 
z
" transform="scale(0.015625)"/>
     <path id="DejaVuSans-Bold-67" d="M 2919 594 
Q 2688 288 2409 144 
Q 2131 0 1766 0 
Q 1125 0 706 504 
Q 288 1009 288 1791 
Q 288 2575 706 3076 
Q 1125 3578 1766 3578 
Q 2131 3578 2409 3434 
Q 2688 3291 2919 2981 
L 2919 3500 
L 4044 3500 
L 4044 353 
Q 4044 -491 3511 -936 
Q 2978 -1381 1966 -1381 
Q 1638 -1381 1331 -1331 
Q 1025 -1281 716 -1178 
L 716 -306 
Q 1009 -475 1290 -558 
Q 1572 -641 1856 -641 
Q 2406 -641 2662 -400 
Q 2919 -159 2919 353 
L 2919 594 
z
M 2181 2772 
Q 1834 2772 1640 2515 
Q 1447 2259 1447 1791 
Q 1447 1309 1634 1061 
Q 1822 813 2181 813 
Q 2531 813 2725 1069 
Q 2919 1325 2919 1791 
Q 2919 2259 2725 2515 
Q 2531 2772 2181 2772 
z
" transform="scale(0.015625)"/>
     <path id="DejaVuSans-Bold-6d" d="M 3781 2919 
Q 3994 3244 4286 3414 
Q 4578 3584 4928 3584 
Q 5531 3584 5847 3212 
Q 6163 2841 6163 2131 
L 6163 0 
L 5038 0 
L 5038 1825 
Q 5041 1866 5042 1909 
Q 5044 1953 5044 2034 
Q 5044 2406 4934 2573 
Q 4825 2741 4581 2741 
Q 4263 2741 4089 2478 
Q 3916 2216 3909 1719 
L 3909 0 
L 2784 0 
L 2784 1825 
Q 2784 2406 2684 2573 
Q 2584 2741 2328 2741 
Q 2006 2741 1831 2477 
Q 1656 2213 1656 1722 
L 1656 0 
L 531 0 
L 531 3500 
L 1656 3500 
L 1656 2988 
Q 1863 3284 2130 3434 
Q 2397 3584 2719 3584 
Q 3081 3584 3359 3409 
Q 3638 3234 3781 2919 
z
" transform="scale(0.015625)"/>
     <path id="DejaVuSans-Bold-3a" d="M 716 3500 
L 1844 3500 
L 1844 2291 
L 716 2291 
L 716 3500 
z
M 716 1209 
L 1844 1209 
L 1844 0 
L 716 0 
L 716 1209 
z
" transform="scale(0.015625)"/>
     <path id="DejaVuSans-Bold-4d" d="M 588 4666 
L 2119 4666 
L 3181 2169 
L 4250 4666 
L 5778 4666 
L 5778 0 
L 4641 0 
L 4641 3413 
L 3566 897 
L 2803 897 
L 1728 3413 
L 1728 0 
L 588 0 
L 588 4666 
z
" transform="scale(0.015625)"/>
     <path id="DejaVuSans-Bold-6e" d="M 4056 2131 
L 4056 0 
L 2931 0 
L 2931 347 
L 2931 1631 
Q 2931 2084 2911 2256 
Q 2891 2428 2841 2509 
Q 2775 2619 2662 2680 
Q 2550 2741 2406 2741 
Q 2056 2741 1856 2470 
Q 1656 2200 1656 1722 
L 1656 0 
L 538 0 
L 538 3500 
L 1656 3500 
L 1656 2988 
Q 1909 3294 2193 3439 
Q 2478 3584 2822 3584 
Q 3428 3584 3742 3212 
Q 4056 2841 4056 2131 
z
" transform="scale(0.015625)"/>
     <path id="DejaVuSans-Bold-73" d="M 3272 3391 
L 3272 2541 
Q 2913 2691 2578 2766 
Q 2244 2841 1947 2841 
Q 1628 2841 1473 2761 
Q 1319 2681 1319 2516 
Q 1319 2381 1436 2309 
Q 1553 2238 1856 2203 
L 2053 2175 
Q 2913 2066 3209 1816 
Q 3506 1566 3506 1031 
Q 3506 472 3093 190 
Q 2681 -91 1863 -91 
Q 1516 -91 1145 -36 
Q 775 19 384 128 
L 384 978 
Q 719 816 1070 734 
Q 1422 653 1784 653 
Q 2113 653 2278 743 
Q 2444 834 2444 1013 
Q 2444 1163 2330 1236 
Q 2216 1309 1875 1350 
L 1678 1375 
Q 931 1469 631 1722 
Q 331 1975 331 2491 
Q 331 3047 712 3315 
Q 1094 3584 1881 3584 
Q 2191 3584 2531 3537 
Q 2872 3491 3272 3391 
z
" transform="scale(0.015625)"/>
     <path id="DejaVuSans-Bold-43" d="M 4288 256 
Q 3956 84 3597 -3 
Q 3238 -91 2847 -91 
Q 1681 -91 1000 561 
Q 319 1213 319 2328 
Q 319 3447 1000 4098 
Q 1681 4750 2847 4750 
Q 3238 4750 3597 4662 
Q 3956 4575 4288 4403 
L 4288 3438 
Q 3953 3666 3628 3772 
Q 3303 3878 2944 3878 
Q 2300 3878 1931 3465 
Q 1563 3053 1563 2328 
Q 1563 1606 1931 1193 
Q 2300 781 2944 781 
Q 3303 781 3628 887 
Q 3953 994 4288 1222 
L 4288 256 
z
" transform="scale(0.015625)"/>
    </defs>
    <use xlink:href="#DejaVuSans-Bold-30"/>
    <use xlink:href="#DejaVuSans-Bold-35" x="69.580078"/>
    <use xlink:href="#DejaVuSans-Bold-2e" x="139.160156"/>
    <use xlink:href="#DejaVuSans-Bold-20" x="177.148438"/>
    <use xlink:href="#DejaVuSans-Bold-52" x="211.962891"/>
    <use xlink:href="#DejaVuSans-Bold-65" x="288.964844"/>
    <use xlink:href="#DejaVuSans-Bold-70" x="356.787109"/>
    <use xlink:href="#DejaVuSans-Bold-6f" x="428.369141"/>
    <use xlink:href="#DejaVuSans-Bold-72" x="497.070312"/>
    <use xlink:href="#DejaVuSans-Bold-74" x="546.386719"/>
    <use xlink:href="#DejaVuSans-Bold-20" x="594.189453"/>
    <use xlink:href="#DejaVuSans-Bold-44" x="629.003906"/>
    <use xlink:href="#DejaVuSans-Bold-69" x="712.011719"/>
    <use xlink:href="#DejaVuSans-Bold-61" x="746.289062"/>
    <use xlink:href="#DejaVuSans-Bold-67" x="813.769531"/>
    <use xlink:href="#DejaVuSans-Bold-72" x="885.351562"/>
    <use xlink:href="#DejaVuSans-Bold-61" x="934.667969"/>
    <use xlink:href="#DejaVuSans-Bold-6d" x="1002.148438"/>
    <use xlink:href="#DejaVuSans-Bold-3a" x="1106.347656"/>
    <use xlink:href="#DejaVuSans-Bold-20" x="1146.337891"/>
    <use xlink:href="#DejaVuSans-Bold-4d" x="1181.152344"/>
    <use xlink:href="#DejaVuSans-Bold-61" x="1280.664062"/>
    <use xlink:href="#DejaVuSans-Bold-69" x="1348.144531"/>
    <use xlink:href="#DejaVuSans-Bold-6e" x="1382.421875"/>
    <use xlink:href="#DejaVuSans-Bold-20" x="1453.613281"/>
    <use xlink:href="#DejaVuSans-Bold-44" x="1488.427734"/>
    <use xlink:href="#DejaVuSans-Bold-65" x="1571.435547"/>
    <use xlink:href="#DejaVuSans-Bold-73" x="1639.257812"/>
    <use xlink:href="#DejaVuSans-Bold-69" x="1698.779297"/>
    <use xlink:href="#DejaVuSans-Bold-67" x="1733.056641"/>
    <use xlink:href="#DejaVuSans-Bold-6e" x="1804.638672"/>
    <use xlink:href="#DejaVuSans-Bold-20" x="1875.830078"/>
    <use xlink:href="#DejaVuSans-Bold-43" x="1910.644531"/>
    <use xlink:href="#DejaVuSans-Bold-6f" x="1984.033203"/>
    <use xlink:href="#DejaVuSans-Bold-6e" x="2052.734375"/>
    <use xlink:href="#DejaVuSans-Bold-73" x="2123.925781"/>
    <use xlink:href="#DejaVuSans-Bold-74" x="2183.447266"/>
    <use xlink:href="#DejaVuSans-Bold-72" x="2231.25"/>
    <use xlink:href="#DejaVuSans-Bold-61" x="2280.566406"/>
    <use xlink:href="#DejaVuSans-Bold-69" x="2348.046875"/>
    <use xlink:href="#DejaVuSans-Bold-6e" x="2382.324219"/>
    <use xlink:href="#DejaVuSans-Bold-74" x="2453.515625"/>
   </g>
  </g>
 </g>
 <defs>
  <clipPath id="p8d6492efa4">
   <rect x="62.718438" y="82.8" width="1004.4" height="554.4"/>
  </clipPath>
 </defs>
</svg>
